G04 MADE WITH FRITZING*
G04 WWW.FRITZING.ORG*
G04 DOUBLE SIDED*
G04 HOLES PLATED*
G04 CONTOUR ON CENTER OF CONTOUR VECTOR*
%ASAXBY*%
%FSLAX23Y23*%
%MOIN*%
%OFA0B0*%
%SFA1.0B1.0*%
%ADD10R,1.683200X2.093300X1.667200X2.077300*%
%ADD11C,0.008000*%
%ADD12C,0.010417*%
%ADD13C,0.010000*%
%ADD14R,0.001000X0.001000*%
%LNSILK1*%
G90*
G70*
G54D11*
X4Y2089D02*
X1679Y2089D01*
X1679Y4D01*
X4Y4D01*
X4Y2089D01*
D02*
G54D12*
X303Y1010D02*
X1403Y1010D01*
D02*
X1403Y2010D02*
X303Y2010D01*
D02*
X1403Y1010D02*
X1403Y2010D01*
D02*
X303Y1010D02*
X303Y2010D01*
G54D13*
D02*
X735Y426D02*
X656Y426D01*
D02*
X814Y623D02*
X814Y456D01*
D02*
X578Y623D02*
X578Y456D01*
D02*
X735Y663D02*
X656Y663D01*
D02*
X716Y545D02*
X676Y545D01*
D02*
X696Y525D02*
X696Y564D01*
D02*
X1031Y633D02*
X952Y633D01*
D02*
X1109Y830D02*
X1109Y663D01*
D02*
X873Y830D02*
X873Y663D01*
D02*
X1031Y869D02*
X952Y869D01*
D02*
X1011Y751D02*
X971Y751D01*
D02*
X991Y732D02*
X991Y771D01*
D02*
X1326Y426D02*
X1247Y426D01*
D02*
X1405Y623D02*
X1405Y456D01*
D02*
X1168Y623D02*
X1168Y456D01*
D02*
X1326Y663D02*
X1247Y663D01*
D02*
X1306Y545D02*
X1267Y545D01*
D02*
X1286Y525D02*
X1286Y564D01*
D02*
X430Y426D02*
X351Y426D01*
D02*
X509Y623D02*
X509Y456D01*
D02*
X273Y623D02*
X273Y456D01*
D02*
X430Y663D02*
X351Y663D01*
D02*
X410Y545D02*
X371Y545D01*
D02*
X391Y525D02*
X391Y564D01*
D02*
X1031Y249D02*
X952Y249D01*
D02*
X1109Y446D02*
X1109Y279D01*
D02*
X873Y446D02*
X873Y279D01*
D02*
X1031Y485D02*
X952Y485D01*
D02*
X1011Y367D02*
X971Y367D01*
D02*
X991Y348D02*
X991Y387D01*
G54D14*
X47Y2053D02*
X1639Y2053D01*
X47Y2052D02*
X47Y2052D01*
X1639Y2052D02*
X1639Y2052D01*
X47Y2051D02*
X47Y2051D01*
X1639Y2051D02*
X1639Y2051D01*
X47Y2050D02*
X47Y2050D01*
X1639Y2050D02*
X1639Y2050D01*
X47Y2049D02*
X47Y2049D01*
X1639Y2049D02*
X1639Y2049D01*
X47Y2048D02*
X47Y2048D01*
X1639Y2048D02*
X1639Y2048D01*
X47Y2047D02*
X47Y2047D01*
X1639Y2047D02*
X1639Y2047D01*
X47Y2046D02*
X47Y2046D01*
X1639Y2046D02*
X1639Y2046D01*
X47Y2045D02*
X47Y2045D01*
X1639Y2045D02*
X1639Y2045D01*
X47Y2044D02*
X47Y2044D01*
X1639Y2044D02*
X1639Y2044D01*
X47Y2043D02*
X47Y2043D01*
X1639Y2043D02*
X1639Y2043D01*
X47Y2042D02*
X47Y2042D01*
X1639Y2042D02*
X1639Y2042D01*
X47Y2041D02*
X47Y2041D01*
X1639Y2041D02*
X1639Y2041D01*
X47Y2040D02*
X47Y2040D01*
X1639Y2040D02*
X1639Y2040D01*
X47Y2039D02*
X47Y2039D01*
X1639Y2039D02*
X1639Y2039D01*
X47Y2038D02*
X47Y2038D01*
X1639Y2038D02*
X1639Y2038D01*
X47Y2037D02*
X47Y2037D01*
X1639Y2037D02*
X1639Y2037D01*
X47Y2036D02*
X47Y2036D01*
X1639Y2036D02*
X1639Y2036D01*
X47Y2035D02*
X47Y2035D01*
X1639Y2035D02*
X1639Y2035D01*
X47Y2034D02*
X47Y2034D01*
X1639Y2034D02*
X1639Y2034D01*
X47Y2033D02*
X47Y2033D01*
X1639Y2033D02*
X1639Y2033D01*
X47Y2032D02*
X47Y2032D01*
X1639Y2032D02*
X1639Y2032D01*
X47Y2031D02*
X47Y2031D01*
X1639Y2031D02*
X1639Y2031D01*
X47Y2030D02*
X47Y2030D01*
X1639Y2030D02*
X1639Y2030D01*
X47Y2029D02*
X47Y2029D01*
X1639Y2029D02*
X1639Y2029D01*
X47Y2028D02*
X47Y2028D01*
X1639Y2028D02*
X1639Y2028D01*
X47Y2027D02*
X47Y2027D01*
X1639Y2027D02*
X1639Y2027D01*
X47Y2026D02*
X47Y2026D01*
X1639Y2026D02*
X1639Y2026D01*
X47Y2025D02*
X47Y2025D01*
X1639Y2025D02*
X1639Y2025D01*
X47Y2024D02*
X47Y2024D01*
X1639Y2024D02*
X1639Y2024D01*
X47Y2023D02*
X47Y2023D01*
X1639Y2023D02*
X1639Y2023D01*
X47Y2022D02*
X47Y2022D01*
X1639Y2022D02*
X1639Y2022D01*
X47Y2021D02*
X47Y2021D01*
X1639Y2021D02*
X1639Y2021D01*
X47Y2020D02*
X47Y2020D01*
X1639Y2020D02*
X1639Y2020D01*
X47Y2019D02*
X47Y2019D01*
X1639Y2019D02*
X1639Y2019D01*
X47Y2018D02*
X47Y2018D01*
X1639Y2018D02*
X1639Y2018D01*
X47Y2017D02*
X47Y2017D01*
X1639Y2017D02*
X1639Y2017D01*
X47Y2016D02*
X47Y2016D01*
X1639Y2016D02*
X1639Y2016D01*
X47Y2015D02*
X47Y2015D01*
X1639Y2015D02*
X1639Y2015D01*
X47Y2014D02*
X47Y2014D01*
X1639Y2014D02*
X1639Y2014D01*
X47Y2013D02*
X47Y2013D01*
X1639Y2013D02*
X1639Y2013D01*
X47Y2012D02*
X47Y2012D01*
X1639Y2012D02*
X1639Y2012D01*
X47Y2011D02*
X47Y2011D01*
X1639Y2011D02*
X1639Y2011D01*
X47Y2010D02*
X47Y2010D01*
X1639Y2010D02*
X1639Y2010D01*
X47Y2009D02*
X47Y2009D01*
X1639Y2009D02*
X1639Y2009D01*
X47Y2008D02*
X47Y2008D01*
X1639Y2008D02*
X1639Y2008D01*
X47Y2007D02*
X47Y2007D01*
X1639Y2007D02*
X1639Y2007D01*
X47Y2006D02*
X47Y2006D01*
X1639Y2006D02*
X1639Y2006D01*
X47Y2005D02*
X47Y2005D01*
X1639Y2005D02*
X1639Y2005D01*
X47Y2004D02*
X47Y2004D01*
X1639Y2004D02*
X1639Y2004D01*
X47Y2003D02*
X47Y2003D01*
X1639Y2003D02*
X1639Y2003D01*
X47Y2002D02*
X47Y2002D01*
X1639Y2002D02*
X1639Y2002D01*
X47Y2001D02*
X47Y2001D01*
X1639Y2001D02*
X1639Y2001D01*
X47Y2000D02*
X47Y2000D01*
X1639Y2000D02*
X1639Y2000D01*
X47Y1999D02*
X47Y1999D01*
X1639Y1999D02*
X1639Y1999D01*
X47Y1998D02*
X47Y1998D01*
X1639Y1998D02*
X1639Y1998D01*
X47Y1997D02*
X47Y1997D01*
X1639Y1997D02*
X1639Y1997D01*
X47Y1996D02*
X47Y1996D01*
X1639Y1996D02*
X1639Y1996D01*
X47Y1995D02*
X47Y1995D01*
X1639Y1995D02*
X1639Y1995D01*
X47Y1994D02*
X47Y1994D01*
X1639Y1994D02*
X1639Y1994D01*
X47Y1993D02*
X47Y1993D01*
X1639Y1993D02*
X1639Y1993D01*
X47Y1992D02*
X47Y1992D01*
X1639Y1992D02*
X1639Y1992D01*
X47Y1991D02*
X47Y1991D01*
X1639Y1991D02*
X1639Y1991D01*
X47Y1990D02*
X47Y1990D01*
X1639Y1990D02*
X1639Y1990D01*
X47Y1989D02*
X47Y1989D01*
X1639Y1989D02*
X1639Y1989D01*
X47Y1988D02*
X47Y1988D01*
X1639Y1988D02*
X1639Y1988D01*
X47Y1987D02*
X47Y1987D01*
X1639Y1987D02*
X1639Y1987D01*
X47Y1986D02*
X47Y1986D01*
X1639Y1986D02*
X1639Y1986D01*
X47Y1985D02*
X47Y1985D01*
X1639Y1985D02*
X1639Y1985D01*
X47Y1984D02*
X47Y1984D01*
X1639Y1984D02*
X1639Y1984D01*
X47Y1983D02*
X47Y1983D01*
X1639Y1983D02*
X1639Y1983D01*
X47Y1982D02*
X47Y1982D01*
X1639Y1982D02*
X1639Y1982D01*
X47Y1981D02*
X47Y1981D01*
X1639Y1981D02*
X1639Y1981D01*
X47Y1980D02*
X47Y1980D01*
X1639Y1980D02*
X1639Y1980D01*
X47Y1979D02*
X47Y1979D01*
X1639Y1979D02*
X1639Y1979D01*
X47Y1978D02*
X47Y1978D01*
X1639Y1978D02*
X1639Y1978D01*
X47Y1977D02*
X47Y1977D01*
X1639Y1977D02*
X1639Y1977D01*
X47Y1976D02*
X47Y1976D01*
X1639Y1976D02*
X1639Y1976D01*
X47Y1975D02*
X47Y1975D01*
X1639Y1975D02*
X1639Y1975D01*
X47Y1974D02*
X47Y1974D01*
X1639Y1974D02*
X1639Y1974D01*
X47Y1973D02*
X47Y1973D01*
X1639Y1973D02*
X1639Y1973D01*
X47Y1972D02*
X47Y1972D01*
X1639Y1972D02*
X1639Y1972D01*
X47Y1971D02*
X47Y1971D01*
X1639Y1971D02*
X1639Y1971D01*
X47Y1970D02*
X47Y1970D01*
X1639Y1970D02*
X1639Y1970D01*
X47Y1969D02*
X47Y1969D01*
X1639Y1969D02*
X1639Y1969D01*
X47Y1968D02*
X47Y1968D01*
X1639Y1968D02*
X1639Y1968D01*
X47Y1967D02*
X47Y1967D01*
X1639Y1967D02*
X1639Y1967D01*
X47Y1966D02*
X47Y1966D01*
X1639Y1966D02*
X1639Y1966D01*
X47Y1965D02*
X47Y1965D01*
X1639Y1965D02*
X1639Y1965D01*
X47Y1964D02*
X47Y1964D01*
X1639Y1964D02*
X1639Y1964D01*
X47Y1963D02*
X47Y1963D01*
X1639Y1963D02*
X1639Y1963D01*
X47Y1962D02*
X47Y1962D01*
X1639Y1962D02*
X1639Y1962D01*
X47Y1961D02*
X47Y1961D01*
X1639Y1961D02*
X1639Y1961D01*
X47Y1960D02*
X47Y1960D01*
X1639Y1960D02*
X1639Y1960D01*
X47Y1959D02*
X47Y1959D01*
X1639Y1959D02*
X1639Y1959D01*
X47Y1958D02*
X47Y1958D01*
X1639Y1958D02*
X1639Y1958D01*
X47Y1957D02*
X47Y1957D01*
X1639Y1957D02*
X1639Y1957D01*
X47Y1956D02*
X47Y1956D01*
X1639Y1956D02*
X1639Y1956D01*
X47Y1955D02*
X47Y1955D01*
X1639Y1955D02*
X1639Y1955D01*
X47Y1954D02*
X47Y1954D01*
X1639Y1954D02*
X1639Y1954D01*
X47Y1953D02*
X47Y1953D01*
X1639Y1953D02*
X1639Y1953D01*
X47Y1952D02*
X47Y1952D01*
X1639Y1952D02*
X1639Y1952D01*
X47Y1951D02*
X47Y1951D01*
X1639Y1951D02*
X1639Y1951D01*
X47Y1950D02*
X47Y1950D01*
X1639Y1950D02*
X1639Y1950D01*
X47Y1949D02*
X47Y1949D01*
X1639Y1949D02*
X1639Y1949D01*
X47Y1948D02*
X47Y1948D01*
X1639Y1948D02*
X1639Y1948D01*
X47Y1947D02*
X47Y1947D01*
X1639Y1947D02*
X1639Y1947D01*
X47Y1946D02*
X47Y1946D01*
X1639Y1946D02*
X1639Y1946D01*
X47Y1945D02*
X47Y1945D01*
X1639Y1945D02*
X1639Y1945D01*
X47Y1944D02*
X47Y1944D01*
X1639Y1944D02*
X1639Y1944D01*
X47Y1943D02*
X47Y1943D01*
X1639Y1943D02*
X1639Y1943D01*
X47Y1942D02*
X47Y1942D01*
X1639Y1942D02*
X1639Y1942D01*
X47Y1941D02*
X47Y1941D01*
X1639Y1941D02*
X1639Y1941D01*
X47Y1940D02*
X47Y1940D01*
X1639Y1940D02*
X1639Y1940D01*
X47Y1939D02*
X47Y1939D01*
X1639Y1939D02*
X1639Y1939D01*
X47Y1938D02*
X47Y1938D01*
X1639Y1938D02*
X1639Y1938D01*
X47Y1937D02*
X47Y1937D01*
X1639Y1937D02*
X1639Y1937D01*
X47Y1936D02*
X47Y1936D01*
X1639Y1936D02*
X1639Y1936D01*
X47Y1935D02*
X47Y1935D01*
X1639Y1935D02*
X1639Y1935D01*
X47Y1934D02*
X47Y1934D01*
X1639Y1934D02*
X1639Y1934D01*
X47Y1933D02*
X47Y1933D01*
X1639Y1933D02*
X1639Y1933D01*
X47Y1932D02*
X47Y1932D01*
X1639Y1932D02*
X1639Y1932D01*
X47Y1931D02*
X47Y1931D01*
X1639Y1931D02*
X1639Y1931D01*
X47Y1930D02*
X47Y1930D01*
X1639Y1930D02*
X1639Y1930D01*
X47Y1929D02*
X47Y1929D01*
X1639Y1929D02*
X1639Y1929D01*
X47Y1928D02*
X47Y1928D01*
X1639Y1928D02*
X1639Y1928D01*
X47Y1927D02*
X47Y1927D01*
X1639Y1927D02*
X1639Y1927D01*
X47Y1926D02*
X47Y1926D01*
X1639Y1926D02*
X1639Y1926D01*
X47Y1925D02*
X47Y1925D01*
X1639Y1925D02*
X1639Y1925D01*
X47Y1924D02*
X47Y1924D01*
X1639Y1924D02*
X1639Y1924D01*
X47Y1923D02*
X47Y1923D01*
X1639Y1923D02*
X1639Y1923D01*
X47Y1922D02*
X47Y1922D01*
X1639Y1922D02*
X1639Y1922D01*
X47Y1921D02*
X47Y1921D01*
X1639Y1921D02*
X1639Y1921D01*
X47Y1920D02*
X47Y1920D01*
X1639Y1920D02*
X1639Y1920D01*
X47Y1919D02*
X47Y1919D01*
X1639Y1919D02*
X1639Y1919D01*
X47Y1918D02*
X47Y1918D01*
X1639Y1918D02*
X1639Y1918D01*
X47Y1917D02*
X47Y1917D01*
X1639Y1917D02*
X1639Y1917D01*
X47Y1916D02*
X47Y1916D01*
X1639Y1916D02*
X1639Y1916D01*
X47Y1915D02*
X47Y1915D01*
X1639Y1915D02*
X1639Y1915D01*
X47Y1914D02*
X47Y1914D01*
X1639Y1914D02*
X1639Y1914D01*
X47Y1913D02*
X47Y1913D01*
X1639Y1913D02*
X1639Y1913D01*
X47Y1912D02*
X47Y1912D01*
X1639Y1912D02*
X1639Y1912D01*
X47Y1911D02*
X47Y1911D01*
X1639Y1911D02*
X1639Y1911D01*
X47Y1910D02*
X47Y1910D01*
X1639Y1910D02*
X1639Y1910D01*
X47Y1909D02*
X47Y1909D01*
X1639Y1909D02*
X1639Y1909D01*
X47Y1908D02*
X47Y1908D01*
X1639Y1908D02*
X1639Y1908D01*
X47Y1907D02*
X47Y1907D01*
X1639Y1907D02*
X1639Y1907D01*
X47Y1906D02*
X47Y1906D01*
X1639Y1906D02*
X1639Y1906D01*
X47Y1905D02*
X47Y1905D01*
X1639Y1905D02*
X1639Y1905D01*
X47Y1904D02*
X47Y1904D01*
X1639Y1904D02*
X1639Y1904D01*
X47Y1903D02*
X47Y1903D01*
X1639Y1903D02*
X1639Y1903D01*
X47Y1902D02*
X47Y1902D01*
X1639Y1902D02*
X1639Y1902D01*
X47Y1901D02*
X47Y1901D01*
X1639Y1901D02*
X1639Y1901D01*
X47Y1900D02*
X47Y1900D01*
X1639Y1900D02*
X1639Y1900D01*
X47Y1899D02*
X47Y1899D01*
X1639Y1899D02*
X1639Y1899D01*
X47Y1898D02*
X47Y1898D01*
X1639Y1898D02*
X1639Y1898D01*
X47Y1897D02*
X47Y1897D01*
X1639Y1897D02*
X1639Y1897D01*
X47Y1896D02*
X47Y1896D01*
X1639Y1896D02*
X1639Y1896D01*
X47Y1895D02*
X47Y1895D01*
X1639Y1895D02*
X1639Y1895D01*
X47Y1894D02*
X47Y1894D01*
X1639Y1894D02*
X1639Y1894D01*
X47Y1893D02*
X47Y1893D01*
X1639Y1893D02*
X1639Y1893D01*
X47Y1892D02*
X47Y1892D01*
X1639Y1892D02*
X1639Y1892D01*
X47Y1891D02*
X47Y1891D01*
X1639Y1891D02*
X1639Y1891D01*
X47Y1890D02*
X47Y1890D01*
X1639Y1890D02*
X1639Y1890D01*
X47Y1889D02*
X47Y1889D01*
X1639Y1889D02*
X1639Y1889D01*
X47Y1888D02*
X47Y1888D01*
X1639Y1888D02*
X1639Y1888D01*
X47Y1887D02*
X47Y1887D01*
X1639Y1887D02*
X1639Y1887D01*
X47Y1886D02*
X47Y1886D01*
X1639Y1886D02*
X1639Y1886D01*
X47Y1885D02*
X47Y1885D01*
X1639Y1885D02*
X1639Y1885D01*
X47Y1884D02*
X47Y1884D01*
X1639Y1884D02*
X1639Y1884D01*
X47Y1883D02*
X47Y1883D01*
X1639Y1883D02*
X1639Y1883D01*
X47Y1882D02*
X47Y1882D01*
X1639Y1882D02*
X1639Y1882D01*
X47Y1881D02*
X47Y1881D01*
X1639Y1881D02*
X1639Y1881D01*
X47Y1880D02*
X47Y1880D01*
X1639Y1880D02*
X1639Y1880D01*
X47Y1879D02*
X47Y1879D01*
X1639Y1879D02*
X1639Y1879D01*
X47Y1878D02*
X47Y1878D01*
X1639Y1878D02*
X1639Y1878D01*
X47Y1877D02*
X47Y1877D01*
X1639Y1877D02*
X1639Y1877D01*
X47Y1876D02*
X47Y1876D01*
X1639Y1876D02*
X1639Y1876D01*
X47Y1875D02*
X47Y1875D01*
X1639Y1875D02*
X1639Y1875D01*
X47Y1874D02*
X47Y1874D01*
X1639Y1874D02*
X1639Y1874D01*
X47Y1873D02*
X47Y1873D01*
X1639Y1873D02*
X1639Y1873D01*
X47Y1872D02*
X47Y1872D01*
X1639Y1872D02*
X1639Y1872D01*
X47Y1871D02*
X47Y1871D01*
X1639Y1871D02*
X1639Y1871D01*
X47Y1870D02*
X47Y1870D01*
X1639Y1870D02*
X1639Y1870D01*
X47Y1869D02*
X47Y1869D01*
X1639Y1869D02*
X1639Y1869D01*
X47Y1868D02*
X47Y1868D01*
X1639Y1868D02*
X1639Y1868D01*
X47Y1867D02*
X47Y1867D01*
X1639Y1867D02*
X1639Y1867D01*
X47Y1866D02*
X47Y1866D01*
X1639Y1866D02*
X1639Y1866D01*
X47Y1865D02*
X47Y1865D01*
X1639Y1865D02*
X1639Y1865D01*
X47Y1864D02*
X47Y1864D01*
X1639Y1864D02*
X1639Y1864D01*
X47Y1863D02*
X47Y1863D01*
X1639Y1863D02*
X1639Y1863D01*
X47Y1862D02*
X47Y1862D01*
X1639Y1862D02*
X1639Y1862D01*
X47Y1861D02*
X47Y1861D01*
X1639Y1861D02*
X1639Y1861D01*
X47Y1860D02*
X47Y1860D01*
X1639Y1860D02*
X1639Y1860D01*
X47Y1859D02*
X47Y1859D01*
X1639Y1859D02*
X1639Y1859D01*
X47Y1858D02*
X47Y1858D01*
X1639Y1858D02*
X1639Y1858D01*
X47Y1857D02*
X47Y1857D01*
X1639Y1857D02*
X1639Y1857D01*
X47Y1856D02*
X47Y1856D01*
X1639Y1856D02*
X1639Y1856D01*
X47Y1855D02*
X47Y1855D01*
X1639Y1855D02*
X1639Y1855D01*
X47Y1854D02*
X47Y1854D01*
X1639Y1854D02*
X1639Y1854D01*
X47Y1853D02*
X47Y1853D01*
X1639Y1853D02*
X1639Y1853D01*
X47Y1852D02*
X47Y1852D01*
X1639Y1852D02*
X1639Y1852D01*
X47Y1851D02*
X47Y1851D01*
X1639Y1851D02*
X1639Y1851D01*
X47Y1850D02*
X47Y1850D01*
X1639Y1850D02*
X1639Y1850D01*
X47Y1849D02*
X47Y1849D01*
X1639Y1849D02*
X1639Y1849D01*
X47Y1848D02*
X47Y1848D01*
X1639Y1848D02*
X1639Y1848D01*
X47Y1847D02*
X47Y1847D01*
X1639Y1847D02*
X1639Y1847D01*
X47Y1846D02*
X47Y1846D01*
X1639Y1846D02*
X1639Y1846D01*
X47Y1845D02*
X47Y1845D01*
X1639Y1845D02*
X1639Y1845D01*
X47Y1844D02*
X47Y1844D01*
X1639Y1844D02*
X1639Y1844D01*
X47Y1843D02*
X47Y1843D01*
X1639Y1843D02*
X1639Y1843D01*
X47Y1842D02*
X47Y1842D01*
X1639Y1842D02*
X1639Y1842D01*
X47Y1841D02*
X47Y1841D01*
X1639Y1841D02*
X1639Y1841D01*
X47Y1840D02*
X47Y1840D01*
X1639Y1840D02*
X1639Y1840D01*
X47Y1839D02*
X47Y1839D01*
X1639Y1839D02*
X1639Y1839D01*
X47Y1838D02*
X47Y1838D01*
X1639Y1838D02*
X1639Y1838D01*
X47Y1837D02*
X47Y1837D01*
X1639Y1837D02*
X1639Y1837D01*
X47Y1836D02*
X47Y1836D01*
X1639Y1836D02*
X1639Y1836D01*
X47Y1835D02*
X47Y1835D01*
X1639Y1835D02*
X1639Y1835D01*
X47Y1834D02*
X47Y1834D01*
X1639Y1834D02*
X1639Y1834D01*
X47Y1833D02*
X47Y1833D01*
X1639Y1833D02*
X1639Y1833D01*
X47Y1832D02*
X47Y1832D01*
X1639Y1832D02*
X1639Y1832D01*
X47Y1831D02*
X47Y1831D01*
X1639Y1831D02*
X1639Y1831D01*
X47Y1830D02*
X47Y1830D01*
X1639Y1830D02*
X1639Y1830D01*
X47Y1829D02*
X47Y1829D01*
X1639Y1829D02*
X1639Y1829D01*
X47Y1828D02*
X47Y1828D01*
X1639Y1828D02*
X1639Y1828D01*
X47Y1827D02*
X47Y1827D01*
X1639Y1827D02*
X1639Y1827D01*
X47Y1826D02*
X47Y1826D01*
X1639Y1826D02*
X1639Y1826D01*
X47Y1825D02*
X47Y1825D01*
X1639Y1825D02*
X1639Y1825D01*
X47Y1824D02*
X47Y1824D01*
X1639Y1824D02*
X1639Y1824D01*
X47Y1823D02*
X47Y1823D01*
X1639Y1823D02*
X1639Y1823D01*
X47Y1822D02*
X47Y1822D01*
X1639Y1822D02*
X1639Y1822D01*
X47Y1821D02*
X47Y1821D01*
X1639Y1821D02*
X1639Y1821D01*
X47Y1820D02*
X47Y1820D01*
X1639Y1820D02*
X1639Y1820D01*
X47Y1819D02*
X47Y1819D01*
X1639Y1819D02*
X1639Y1819D01*
X47Y1818D02*
X47Y1818D01*
X1639Y1818D02*
X1639Y1818D01*
X47Y1817D02*
X47Y1817D01*
X1639Y1817D02*
X1639Y1817D01*
X47Y1816D02*
X47Y1816D01*
X1639Y1816D02*
X1639Y1816D01*
X47Y1815D02*
X47Y1815D01*
X1639Y1815D02*
X1639Y1815D01*
X47Y1814D02*
X47Y1814D01*
X1639Y1814D02*
X1639Y1814D01*
X47Y1813D02*
X47Y1813D01*
X1639Y1813D02*
X1639Y1813D01*
X47Y1812D02*
X47Y1812D01*
X1639Y1812D02*
X1639Y1812D01*
X47Y1811D02*
X47Y1811D01*
X1639Y1811D02*
X1639Y1811D01*
X47Y1810D02*
X47Y1810D01*
X1639Y1810D02*
X1639Y1810D01*
X47Y1809D02*
X47Y1809D01*
X1639Y1809D02*
X1639Y1809D01*
X47Y1808D02*
X47Y1808D01*
X1639Y1808D02*
X1639Y1808D01*
X47Y1807D02*
X47Y1807D01*
X1639Y1807D02*
X1639Y1807D01*
X47Y1806D02*
X47Y1806D01*
X1639Y1806D02*
X1639Y1806D01*
X47Y1805D02*
X47Y1805D01*
X1639Y1805D02*
X1639Y1805D01*
X47Y1804D02*
X47Y1804D01*
X1639Y1804D02*
X1639Y1804D01*
X47Y1803D02*
X47Y1803D01*
X1639Y1803D02*
X1639Y1803D01*
X47Y1802D02*
X47Y1802D01*
X1639Y1802D02*
X1639Y1802D01*
X47Y1801D02*
X47Y1801D01*
X1639Y1801D02*
X1639Y1801D01*
X47Y1800D02*
X47Y1800D01*
X1639Y1800D02*
X1639Y1800D01*
X47Y1799D02*
X47Y1799D01*
X1639Y1799D02*
X1639Y1799D01*
X47Y1798D02*
X47Y1798D01*
X1639Y1798D02*
X1639Y1798D01*
X47Y1797D02*
X47Y1797D01*
X1639Y1797D02*
X1639Y1797D01*
X47Y1796D02*
X47Y1796D01*
X1639Y1796D02*
X1639Y1796D01*
X47Y1795D02*
X47Y1795D01*
X1639Y1795D02*
X1639Y1795D01*
X47Y1794D02*
X47Y1794D01*
X1639Y1794D02*
X1639Y1794D01*
X47Y1793D02*
X47Y1793D01*
X1639Y1793D02*
X1639Y1793D01*
X47Y1792D02*
X47Y1792D01*
X1639Y1792D02*
X1639Y1792D01*
X47Y1791D02*
X47Y1791D01*
X1639Y1791D02*
X1639Y1791D01*
X47Y1790D02*
X47Y1790D01*
X1639Y1790D02*
X1639Y1790D01*
X47Y1789D02*
X47Y1789D01*
X1639Y1789D02*
X1639Y1789D01*
X47Y1788D02*
X47Y1788D01*
X1639Y1788D02*
X1639Y1788D01*
X47Y1787D02*
X47Y1787D01*
X1639Y1787D02*
X1639Y1787D01*
X47Y1786D02*
X47Y1786D01*
X1639Y1786D02*
X1639Y1786D01*
X47Y1785D02*
X47Y1785D01*
X1639Y1785D02*
X1639Y1785D01*
X47Y1784D02*
X47Y1784D01*
X1639Y1784D02*
X1639Y1784D01*
X47Y1783D02*
X47Y1783D01*
X1639Y1783D02*
X1639Y1783D01*
X47Y1782D02*
X47Y1782D01*
X1639Y1782D02*
X1639Y1782D01*
X47Y1781D02*
X47Y1781D01*
X1639Y1781D02*
X1639Y1781D01*
X47Y1780D02*
X47Y1780D01*
X1639Y1780D02*
X1639Y1780D01*
X47Y1779D02*
X47Y1779D01*
X1639Y1779D02*
X1639Y1779D01*
X47Y1778D02*
X47Y1778D01*
X1639Y1778D02*
X1639Y1778D01*
X47Y1777D02*
X47Y1777D01*
X1639Y1777D02*
X1639Y1777D01*
X47Y1776D02*
X47Y1776D01*
X1639Y1776D02*
X1639Y1776D01*
X47Y1775D02*
X47Y1775D01*
X1639Y1775D02*
X1639Y1775D01*
X47Y1774D02*
X47Y1774D01*
X1639Y1774D02*
X1639Y1774D01*
X47Y1773D02*
X47Y1773D01*
X1639Y1773D02*
X1639Y1773D01*
X47Y1772D02*
X47Y1772D01*
X1639Y1772D02*
X1639Y1772D01*
X47Y1771D02*
X47Y1771D01*
X1639Y1771D02*
X1639Y1771D01*
X47Y1770D02*
X47Y1770D01*
X1639Y1770D02*
X1639Y1770D01*
X47Y1769D02*
X47Y1769D01*
X1639Y1769D02*
X1639Y1769D01*
X47Y1768D02*
X47Y1768D01*
X1639Y1768D02*
X1639Y1768D01*
X47Y1767D02*
X47Y1767D01*
X1639Y1767D02*
X1639Y1767D01*
X47Y1766D02*
X47Y1766D01*
X1639Y1766D02*
X1639Y1766D01*
X47Y1765D02*
X47Y1765D01*
X1639Y1765D02*
X1639Y1765D01*
X47Y1764D02*
X47Y1764D01*
X1639Y1764D02*
X1639Y1764D01*
X47Y1763D02*
X47Y1763D01*
X1639Y1763D02*
X1639Y1763D01*
X47Y1762D02*
X47Y1762D01*
X1639Y1762D02*
X1639Y1762D01*
X47Y1761D02*
X47Y1761D01*
X1639Y1761D02*
X1639Y1761D01*
X47Y1760D02*
X47Y1760D01*
X1639Y1760D02*
X1639Y1760D01*
X47Y1759D02*
X47Y1759D01*
X1639Y1759D02*
X1639Y1759D01*
X47Y1758D02*
X47Y1758D01*
X1639Y1758D02*
X1639Y1758D01*
X47Y1757D02*
X47Y1757D01*
X1639Y1757D02*
X1639Y1757D01*
X47Y1756D02*
X47Y1756D01*
X1639Y1756D02*
X1639Y1756D01*
X47Y1755D02*
X47Y1755D01*
X1639Y1755D02*
X1639Y1755D01*
X47Y1754D02*
X47Y1754D01*
X1639Y1754D02*
X1639Y1754D01*
X47Y1753D02*
X47Y1753D01*
X1639Y1753D02*
X1639Y1753D01*
X47Y1752D02*
X47Y1752D01*
X1639Y1752D02*
X1639Y1752D01*
X47Y1751D02*
X47Y1751D01*
X1639Y1751D02*
X1639Y1751D01*
X47Y1750D02*
X47Y1750D01*
X1639Y1750D02*
X1639Y1750D01*
X47Y1749D02*
X47Y1749D01*
X1639Y1749D02*
X1639Y1749D01*
X47Y1748D02*
X47Y1748D01*
X1639Y1748D02*
X1639Y1748D01*
X47Y1747D02*
X47Y1747D01*
X1639Y1747D02*
X1639Y1747D01*
X47Y1746D02*
X47Y1746D01*
X1639Y1746D02*
X1639Y1746D01*
X47Y1745D02*
X47Y1745D01*
X1639Y1745D02*
X1639Y1745D01*
X47Y1744D02*
X47Y1744D01*
X1639Y1744D02*
X1639Y1744D01*
X47Y1743D02*
X47Y1743D01*
X1639Y1743D02*
X1639Y1743D01*
X47Y1742D02*
X47Y1742D01*
X1639Y1742D02*
X1639Y1742D01*
X47Y1741D02*
X47Y1741D01*
X1639Y1741D02*
X1639Y1741D01*
X47Y1740D02*
X47Y1740D01*
X1639Y1740D02*
X1639Y1740D01*
X47Y1739D02*
X47Y1739D01*
X1639Y1739D02*
X1639Y1739D01*
X47Y1738D02*
X47Y1738D01*
X1639Y1738D02*
X1639Y1738D01*
X47Y1737D02*
X47Y1737D01*
X1639Y1737D02*
X1639Y1737D01*
X47Y1736D02*
X47Y1736D01*
X1639Y1736D02*
X1639Y1736D01*
X47Y1735D02*
X47Y1735D01*
X1639Y1735D02*
X1639Y1735D01*
X47Y1734D02*
X47Y1734D01*
X1639Y1734D02*
X1639Y1734D01*
X47Y1733D02*
X47Y1733D01*
X1639Y1733D02*
X1639Y1733D01*
X47Y1732D02*
X47Y1732D01*
X1639Y1732D02*
X1639Y1732D01*
X47Y1731D02*
X47Y1731D01*
X1639Y1731D02*
X1639Y1731D01*
X47Y1730D02*
X47Y1730D01*
X1639Y1730D02*
X1639Y1730D01*
X47Y1729D02*
X47Y1729D01*
X1639Y1729D02*
X1639Y1729D01*
X47Y1728D02*
X47Y1728D01*
X1639Y1728D02*
X1639Y1728D01*
X47Y1727D02*
X47Y1727D01*
X1639Y1727D02*
X1639Y1727D01*
X47Y1726D02*
X47Y1726D01*
X1639Y1726D02*
X1639Y1726D01*
X47Y1725D02*
X47Y1725D01*
X1639Y1725D02*
X1639Y1725D01*
X47Y1724D02*
X47Y1724D01*
X1639Y1724D02*
X1639Y1724D01*
X47Y1723D02*
X47Y1723D01*
X1639Y1723D02*
X1639Y1723D01*
X47Y1722D02*
X47Y1722D01*
X1639Y1722D02*
X1639Y1722D01*
X47Y1721D02*
X47Y1721D01*
X1639Y1721D02*
X1639Y1721D01*
X47Y1720D02*
X47Y1720D01*
X1639Y1720D02*
X1639Y1720D01*
X47Y1719D02*
X47Y1719D01*
X1639Y1719D02*
X1639Y1719D01*
X47Y1718D02*
X47Y1718D01*
X1639Y1718D02*
X1639Y1718D01*
X47Y1717D02*
X47Y1717D01*
X1639Y1717D02*
X1639Y1717D01*
X47Y1716D02*
X47Y1716D01*
X1639Y1716D02*
X1639Y1716D01*
X47Y1715D02*
X47Y1715D01*
X1639Y1715D02*
X1639Y1715D01*
X47Y1714D02*
X47Y1714D01*
X1639Y1714D02*
X1639Y1714D01*
X47Y1713D02*
X47Y1713D01*
X1639Y1713D02*
X1639Y1713D01*
X47Y1712D02*
X47Y1712D01*
X1639Y1712D02*
X1639Y1712D01*
X47Y1711D02*
X47Y1711D01*
X1639Y1711D02*
X1639Y1711D01*
X47Y1710D02*
X47Y1710D01*
X1639Y1710D02*
X1639Y1710D01*
X47Y1709D02*
X47Y1709D01*
X1639Y1709D02*
X1639Y1709D01*
X47Y1708D02*
X47Y1708D01*
X1639Y1708D02*
X1639Y1708D01*
X47Y1707D02*
X47Y1707D01*
X1639Y1707D02*
X1639Y1707D01*
X47Y1706D02*
X47Y1706D01*
X1639Y1706D02*
X1639Y1706D01*
X47Y1705D02*
X47Y1705D01*
X1639Y1705D02*
X1639Y1705D01*
X47Y1704D02*
X47Y1704D01*
X1639Y1704D02*
X1639Y1704D01*
X47Y1703D02*
X47Y1703D01*
X1639Y1703D02*
X1639Y1703D01*
X47Y1702D02*
X47Y1702D01*
X1639Y1702D02*
X1639Y1702D01*
X47Y1701D02*
X47Y1701D01*
X1639Y1701D02*
X1639Y1701D01*
X47Y1700D02*
X47Y1700D01*
X1639Y1700D02*
X1639Y1700D01*
X47Y1699D02*
X47Y1699D01*
X1639Y1699D02*
X1639Y1699D01*
X47Y1698D02*
X47Y1698D01*
X1639Y1698D02*
X1639Y1698D01*
X47Y1697D02*
X47Y1697D01*
X1639Y1697D02*
X1639Y1697D01*
X47Y1696D02*
X47Y1696D01*
X1639Y1696D02*
X1639Y1696D01*
X47Y1695D02*
X47Y1695D01*
X1639Y1695D02*
X1639Y1695D01*
X47Y1694D02*
X47Y1694D01*
X1639Y1694D02*
X1639Y1694D01*
X47Y1693D02*
X47Y1693D01*
X1639Y1693D02*
X1639Y1693D01*
X47Y1692D02*
X47Y1692D01*
X1639Y1692D02*
X1639Y1692D01*
X47Y1691D02*
X47Y1691D01*
X1639Y1691D02*
X1639Y1691D01*
X47Y1690D02*
X47Y1690D01*
X1639Y1690D02*
X1639Y1690D01*
X47Y1689D02*
X47Y1689D01*
X1639Y1689D02*
X1639Y1689D01*
X47Y1688D02*
X47Y1688D01*
X1639Y1688D02*
X1639Y1688D01*
X47Y1687D02*
X47Y1687D01*
X1639Y1687D02*
X1639Y1687D01*
X47Y1686D02*
X47Y1686D01*
X1639Y1686D02*
X1639Y1686D01*
X47Y1685D02*
X47Y1685D01*
X1639Y1685D02*
X1639Y1685D01*
X47Y1684D02*
X47Y1684D01*
X1639Y1684D02*
X1639Y1684D01*
X47Y1683D02*
X47Y1683D01*
X1639Y1683D02*
X1639Y1683D01*
X47Y1682D02*
X47Y1682D01*
X1639Y1682D02*
X1639Y1682D01*
X47Y1681D02*
X47Y1681D01*
X1639Y1681D02*
X1639Y1681D01*
X47Y1680D02*
X47Y1680D01*
X1639Y1680D02*
X1639Y1680D01*
X47Y1679D02*
X47Y1679D01*
X1639Y1679D02*
X1639Y1679D01*
X47Y1678D02*
X47Y1678D01*
X1639Y1678D02*
X1639Y1678D01*
X47Y1677D02*
X47Y1677D01*
X1639Y1677D02*
X1639Y1677D01*
X47Y1676D02*
X47Y1676D01*
X1639Y1676D02*
X1639Y1676D01*
X47Y1675D02*
X47Y1675D01*
X1639Y1675D02*
X1639Y1675D01*
X47Y1674D02*
X47Y1674D01*
X1639Y1674D02*
X1639Y1674D01*
X47Y1673D02*
X47Y1673D01*
X1639Y1673D02*
X1639Y1673D01*
X47Y1672D02*
X47Y1672D01*
X1639Y1672D02*
X1639Y1672D01*
X47Y1671D02*
X47Y1671D01*
X1639Y1671D02*
X1639Y1671D01*
X47Y1670D02*
X47Y1670D01*
X1639Y1670D02*
X1639Y1670D01*
X47Y1669D02*
X47Y1669D01*
X1639Y1669D02*
X1639Y1669D01*
X47Y1668D02*
X47Y1668D01*
X1639Y1668D02*
X1639Y1668D01*
X47Y1667D02*
X47Y1667D01*
X1639Y1667D02*
X1639Y1667D01*
X47Y1666D02*
X47Y1666D01*
X1639Y1666D02*
X1639Y1666D01*
X47Y1665D02*
X47Y1665D01*
X1639Y1665D02*
X1639Y1665D01*
X47Y1664D02*
X47Y1664D01*
X1639Y1664D02*
X1639Y1664D01*
X47Y1663D02*
X47Y1663D01*
X1639Y1663D02*
X1639Y1663D01*
X47Y1662D02*
X47Y1662D01*
X1639Y1662D02*
X1639Y1662D01*
X47Y1661D02*
X47Y1661D01*
X1639Y1661D02*
X1639Y1661D01*
X47Y1660D02*
X47Y1660D01*
X1639Y1660D02*
X1639Y1660D01*
X47Y1659D02*
X47Y1659D01*
X1639Y1659D02*
X1639Y1659D01*
X47Y1658D02*
X47Y1658D01*
X1639Y1658D02*
X1639Y1658D01*
X47Y1657D02*
X47Y1657D01*
X1639Y1657D02*
X1639Y1657D01*
X47Y1656D02*
X47Y1656D01*
X1639Y1656D02*
X1639Y1656D01*
X47Y1655D02*
X47Y1655D01*
X1639Y1655D02*
X1639Y1655D01*
X47Y1654D02*
X47Y1654D01*
X1639Y1654D02*
X1639Y1654D01*
X47Y1653D02*
X47Y1653D01*
X1639Y1653D02*
X1639Y1653D01*
X47Y1652D02*
X47Y1652D01*
X1639Y1652D02*
X1639Y1652D01*
X47Y1651D02*
X47Y1651D01*
X1639Y1651D02*
X1639Y1651D01*
X47Y1650D02*
X47Y1650D01*
X1639Y1650D02*
X1639Y1650D01*
X47Y1649D02*
X47Y1649D01*
X1639Y1649D02*
X1639Y1649D01*
X47Y1648D02*
X47Y1648D01*
X1639Y1648D02*
X1639Y1648D01*
X47Y1647D02*
X47Y1647D01*
X1639Y1647D02*
X1639Y1647D01*
X47Y1646D02*
X47Y1646D01*
X1639Y1646D02*
X1639Y1646D01*
X47Y1645D02*
X47Y1645D01*
X1639Y1645D02*
X1639Y1645D01*
X47Y1644D02*
X47Y1644D01*
X1639Y1644D02*
X1639Y1644D01*
X47Y1643D02*
X47Y1643D01*
X1639Y1643D02*
X1639Y1643D01*
X47Y1642D02*
X47Y1642D01*
X1639Y1642D02*
X1639Y1642D01*
X47Y1641D02*
X47Y1641D01*
X1639Y1641D02*
X1639Y1641D01*
X47Y1640D02*
X47Y1640D01*
X1639Y1640D02*
X1639Y1640D01*
X47Y1639D02*
X47Y1639D01*
X1639Y1639D02*
X1639Y1639D01*
X47Y1638D02*
X47Y1638D01*
X1639Y1638D02*
X1639Y1638D01*
X47Y1637D02*
X47Y1637D01*
X1639Y1637D02*
X1639Y1637D01*
X47Y1636D02*
X47Y1636D01*
X1639Y1636D02*
X1639Y1636D01*
X47Y1635D02*
X47Y1635D01*
X1639Y1635D02*
X1639Y1635D01*
X47Y1634D02*
X47Y1634D01*
X1639Y1634D02*
X1639Y1634D01*
X47Y1633D02*
X47Y1633D01*
X1639Y1633D02*
X1639Y1633D01*
X47Y1632D02*
X47Y1632D01*
X1639Y1632D02*
X1639Y1632D01*
X47Y1631D02*
X47Y1631D01*
X1639Y1631D02*
X1639Y1631D01*
X47Y1630D02*
X47Y1630D01*
X1639Y1630D02*
X1639Y1630D01*
X47Y1629D02*
X47Y1629D01*
X1639Y1629D02*
X1639Y1629D01*
X47Y1628D02*
X47Y1628D01*
X1639Y1628D02*
X1639Y1628D01*
X47Y1627D02*
X47Y1627D01*
X1639Y1627D02*
X1639Y1627D01*
X47Y1626D02*
X47Y1626D01*
X1639Y1626D02*
X1639Y1626D01*
X47Y1625D02*
X47Y1625D01*
X1639Y1625D02*
X1639Y1625D01*
X47Y1624D02*
X47Y1624D01*
X1639Y1624D02*
X1639Y1624D01*
X47Y1623D02*
X47Y1623D01*
X1639Y1623D02*
X1639Y1623D01*
X47Y1622D02*
X47Y1622D01*
X1639Y1622D02*
X1639Y1622D01*
X47Y1621D02*
X47Y1621D01*
X1639Y1621D02*
X1639Y1621D01*
X47Y1620D02*
X47Y1620D01*
X1639Y1620D02*
X1639Y1620D01*
X47Y1619D02*
X47Y1619D01*
X1639Y1619D02*
X1639Y1619D01*
X47Y1618D02*
X47Y1618D01*
X1639Y1618D02*
X1639Y1618D01*
X47Y1617D02*
X47Y1617D01*
X1639Y1617D02*
X1639Y1617D01*
X47Y1616D02*
X47Y1616D01*
X1639Y1616D02*
X1639Y1616D01*
X47Y1615D02*
X47Y1615D01*
X1639Y1615D02*
X1639Y1615D01*
X47Y1614D02*
X47Y1614D01*
X1639Y1614D02*
X1639Y1614D01*
X47Y1613D02*
X47Y1613D01*
X1639Y1613D02*
X1639Y1613D01*
X47Y1612D02*
X47Y1612D01*
X1639Y1612D02*
X1639Y1612D01*
X47Y1611D02*
X47Y1611D01*
X1639Y1611D02*
X1639Y1611D01*
X47Y1610D02*
X47Y1610D01*
X1639Y1610D02*
X1639Y1610D01*
X47Y1609D02*
X47Y1609D01*
X1639Y1609D02*
X1639Y1609D01*
X47Y1608D02*
X47Y1608D01*
X1639Y1608D02*
X1639Y1608D01*
X47Y1607D02*
X47Y1607D01*
X1639Y1607D02*
X1639Y1607D01*
X47Y1606D02*
X47Y1606D01*
X1639Y1606D02*
X1639Y1606D01*
X47Y1605D02*
X47Y1605D01*
X1639Y1605D02*
X1639Y1605D01*
X47Y1604D02*
X47Y1604D01*
X1639Y1604D02*
X1639Y1604D01*
X47Y1603D02*
X47Y1603D01*
X1639Y1603D02*
X1639Y1603D01*
X47Y1602D02*
X47Y1602D01*
X1639Y1602D02*
X1639Y1602D01*
X47Y1601D02*
X47Y1601D01*
X1639Y1601D02*
X1639Y1601D01*
X47Y1600D02*
X47Y1600D01*
X1639Y1600D02*
X1639Y1600D01*
X47Y1599D02*
X47Y1599D01*
X1639Y1599D02*
X1639Y1599D01*
X47Y1598D02*
X47Y1598D01*
X1639Y1598D02*
X1639Y1598D01*
X47Y1597D02*
X47Y1597D01*
X1639Y1597D02*
X1639Y1597D01*
X47Y1596D02*
X47Y1596D01*
X1639Y1596D02*
X1639Y1596D01*
X47Y1595D02*
X47Y1595D01*
X1639Y1595D02*
X1639Y1595D01*
X47Y1594D02*
X47Y1594D01*
X1639Y1594D02*
X1639Y1594D01*
X47Y1593D02*
X47Y1593D01*
X813Y1593D02*
X818Y1593D01*
X851Y1593D02*
X853Y1593D01*
X899Y1593D02*
X931Y1593D01*
X951Y1593D02*
X968Y1593D01*
X1639Y1593D02*
X1639Y1593D01*
X47Y1592D02*
X47Y1592D01*
X811Y1592D02*
X820Y1592D01*
X850Y1592D02*
X854Y1592D01*
X899Y1592D02*
X932Y1592D01*
X950Y1592D02*
X970Y1592D01*
X1639Y1592D02*
X1639Y1592D01*
X47Y1591D02*
X47Y1591D01*
X810Y1591D02*
X821Y1591D01*
X849Y1591D02*
X855Y1591D01*
X899Y1591D02*
X933Y1591D01*
X950Y1591D02*
X971Y1591D01*
X1639Y1591D02*
X1639Y1591D01*
X47Y1590D02*
X47Y1590D01*
X809Y1590D02*
X822Y1590D01*
X849Y1590D02*
X855Y1590D01*
X899Y1590D02*
X933Y1590D01*
X949Y1590D02*
X972Y1590D01*
X1639Y1590D02*
X1639Y1590D01*
X47Y1589D02*
X47Y1589D01*
X808Y1589D02*
X823Y1589D01*
X849Y1589D02*
X855Y1589D01*
X899Y1589D02*
X933Y1589D01*
X950Y1589D02*
X973Y1589D01*
X1639Y1589D02*
X1639Y1589D01*
X47Y1588D02*
X47Y1588D01*
X808Y1588D02*
X823Y1588D01*
X849Y1588D02*
X855Y1588D01*
X899Y1588D02*
X932Y1588D01*
X950Y1588D02*
X974Y1588D01*
X1639Y1588D02*
X1639Y1588D01*
X47Y1587D02*
X47Y1587D01*
X807Y1587D02*
X824Y1587D01*
X849Y1587D02*
X855Y1587D01*
X899Y1587D02*
X931Y1587D01*
X951Y1587D02*
X975Y1587D01*
X1639Y1587D02*
X1639Y1587D01*
X47Y1586D02*
X47Y1586D01*
X807Y1586D02*
X814Y1586D01*
X817Y1586D02*
X824Y1586D01*
X849Y1586D02*
X855Y1586D01*
X899Y1586D02*
X905Y1586D01*
X956Y1586D02*
X962Y1586D01*
X968Y1586D02*
X975Y1586D01*
X1639Y1586D02*
X1639Y1586D01*
X47Y1585D02*
X47Y1585D01*
X806Y1585D02*
X813Y1585D01*
X818Y1585D02*
X825Y1585D01*
X849Y1585D02*
X855Y1585D01*
X899Y1585D02*
X905Y1585D01*
X956Y1585D02*
X962Y1585D01*
X969Y1585D02*
X976Y1585D01*
X1639Y1585D02*
X1639Y1585D01*
X47Y1584D02*
X47Y1584D01*
X806Y1584D02*
X813Y1584D01*
X819Y1584D02*
X825Y1584D01*
X849Y1584D02*
X855Y1584D01*
X899Y1584D02*
X905Y1584D01*
X956Y1584D02*
X962Y1584D01*
X969Y1584D02*
X976Y1584D01*
X1639Y1584D02*
X1639Y1584D01*
X47Y1583D02*
X47Y1583D01*
X805Y1583D02*
X812Y1583D01*
X819Y1583D02*
X826Y1583D01*
X849Y1583D02*
X855Y1583D01*
X899Y1583D02*
X905Y1583D01*
X956Y1583D02*
X962Y1583D01*
X970Y1583D02*
X977Y1583D01*
X1639Y1583D02*
X1639Y1583D01*
X47Y1582D02*
X47Y1582D01*
X805Y1582D02*
X812Y1582D01*
X820Y1582D02*
X826Y1582D01*
X849Y1582D02*
X855Y1582D01*
X899Y1582D02*
X905Y1582D01*
X956Y1582D02*
X962Y1582D01*
X970Y1582D02*
X977Y1582D01*
X1639Y1582D02*
X1639Y1582D01*
X47Y1581D02*
X47Y1581D01*
X804Y1581D02*
X811Y1581D01*
X820Y1581D02*
X827Y1581D01*
X849Y1581D02*
X855Y1581D01*
X899Y1581D02*
X905Y1581D01*
X956Y1581D02*
X962Y1581D01*
X971Y1581D02*
X978Y1581D01*
X1639Y1581D02*
X1639Y1581D01*
X47Y1580D02*
X47Y1580D01*
X804Y1580D02*
X811Y1580D01*
X821Y1580D02*
X827Y1580D01*
X849Y1580D02*
X855Y1580D01*
X899Y1580D02*
X905Y1580D01*
X956Y1580D02*
X962Y1580D01*
X971Y1580D02*
X978Y1580D01*
X1639Y1580D02*
X1639Y1580D01*
X47Y1579D02*
X47Y1579D01*
X803Y1579D02*
X810Y1579D01*
X821Y1579D02*
X828Y1579D01*
X849Y1579D02*
X855Y1579D01*
X899Y1579D02*
X905Y1579D01*
X956Y1579D02*
X962Y1579D01*
X972Y1579D02*
X979Y1579D01*
X1639Y1579D02*
X1639Y1579D01*
X47Y1578D02*
X47Y1578D01*
X803Y1578D02*
X810Y1578D01*
X822Y1578D02*
X828Y1578D01*
X849Y1578D02*
X855Y1578D01*
X899Y1578D02*
X905Y1578D01*
X956Y1578D02*
X962Y1578D01*
X972Y1578D02*
X979Y1578D01*
X1639Y1578D02*
X1639Y1578D01*
X47Y1577D02*
X47Y1577D01*
X802Y1577D02*
X809Y1577D01*
X822Y1577D02*
X829Y1577D01*
X849Y1577D02*
X855Y1577D01*
X899Y1577D02*
X905Y1577D01*
X956Y1577D02*
X962Y1577D01*
X973Y1577D02*
X980Y1577D01*
X1639Y1577D02*
X1639Y1577D01*
X47Y1576D02*
X47Y1576D01*
X802Y1576D02*
X809Y1576D01*
X823Y1576D02*
X829Y1576D01*
X849Y1576D02*
X855Y1576D01*
X899Y1576D02*
X905Y1576D01*
X956Y1576D02*
X962Y1576D01*
X973Y1576D02*
X980Y1576D01*
X1639Y1576D02*
X1639Y1576D01*
X47Y1575D02*
X47Y1575D01*
X801Y1575D02*
X808Y1575D01*
X823Y1575D02*
X830Y1575D01*
X849Y1575D02*
X855Y1575D01*
X899Y1575D02*
X905Y1575D01*
X956Y1575D02*
X962Y1575D01*
X974Y1575D02*
X981Y1575D01*
X1639Y1575D02*
X1639Y1575D01*
X47Y1574D02*
X47Y1574D01*
X801Y1574D02*
X808Y1574D01*
X824Y1574D02*
X830Y1574D01*
X849Y1574D02*
X855Y1574D01*
X899Y1574D02*
X905Y1574D01*
X956Y1574D02*
X962Y1574D01*
X974Y1574D02*
X981Y1574D01*
X1639Y1574D02*
X1639Y1574D01*
X47Y1573D02*
X47Y1573D01*
X800Y1573D02*
X807Y1573D01*
X824Y1573D02*
X831Y1573D01*
X849Y1573D02*
X855Y1573D01*
X899Y1573D02*
X905Y1573D01*
X956Y1573D02*
X962Y1573D01*
X975Y1573D02*
X981Y1573D01*
X1639Y1573D02*
X1639Y1573D01*
X47Y1572D02*
X47Y1572D01*
X800Y1572D02*
X807Y1572D01*
X825Y1572D02*
X831Y1572D01*
X849Y1572D02*
X855Y1572D01*
X899Y1572D02*
X905Y1572D01*
X956Y1572D02*
X962Y1572D01*
X975Y1572D02*
X982Y1572D01*
X1639Y1572D02*
X1639Y1572D01*
X47Y1571D02*
X47Y1571D01*
X800Y1571D02*
X806Y1571D01*
X825Y1571D02*
X832Y1571D01*
X849Y1571D02*
X855Y1571D01*
X899Y1571D02*
X905Y1571D01*
X956Y1571D02*
X962Y1571D01*
X976Y1571D02*
X982Y1571D01*
X1639Y1571D02*
X1639Y1571D01*
X47Y1570D02*
X47Y1570D01*
X799Y1570D02*
X806Y1570D01*
X826Y1570D02*
X832Y1570D01*
X849Y1570D02*
X855Y1570D01*
X899Y1570D02*
X906Y1570D01*
X956Y1570D02*
X962Y1570D01*
X976Y1570D02*
X983Y1570D01*
X1639Y1570D02*
X1639Y1570D01*
X47Y1569D02*
X47Y1569D01*
X799Y1569D02*
X805Y1569D01*
X826Y1569D02*
X832Y1569D01*
X849Y1569D02*
X855Y1569D01*
X899Y1569D02*
X918Y1569D01*
X956Y1569D02*
X962Y1569D01*
X977Y1569D02*
X983Y1569D01*
X1639Y1569D02*
X1639Y1569D01*
X47Y1568D02*
X47Y1568D01*
X799Y1568D02*
X805Y1568D01*
X826Y1568D02*
X832Y1568D01*
X849Y1568D02*
X855Y1568D01*
X899Y1568D02*
X919Y1568D01*
X956Y1568D02*
X962Y1568D01*
X977Y1568D02*
X983Y1568D01*
X1639Y1568D02*
X1639Y1568D01*
X47Y1567D02*
X47Y1567D01*
X799Y1567D02*
X805Y1567D01*
X826Y1567D02*
X832Y1567D01*
X849Y1567D02*
X855Y1567D01*
X899Y1567D02*
X919Y1567D01*
X956Y1567D02*
X962Y1567D01*
X977Y1567D02*
X983Y1567D01*
X1639Y1567D02*
X1639Y1567D01*
X47Y1566D02*
X47Y1566D01*
X799Y1566D02*
X805Y1566D01*
X826Y1566D02*
X832Y1566D01*
X849Y1566D02*
X855Y1566D01*
X899Y1566D02*
X919Y1566D01*
X956Y1566D02*
X962Y1566D01*
X977Y1566D02*
X983Y1566D01*
X1639Y1566D02*
X1639Y1566D01*
X47Y1565D02*
X47Y1565D01*
X799Y1565D02*
X805Y1565D01*
X826Y1565D02*
X832Y1565D01*
X849Y1565D02*
X855Y1565D01*
X899Y1565D02*
X919Y1565D01*
X956Y1565D02*
X962Y1565D01*
X977Y1565D02*
X983Y1565D01*
X1639Y1565D02*
X1639Y1565D01*
X47Y1564D02*
X47Y1564D01*
X799Y1564D02*
X805Y1564D01*
X826Y1564D02*
X832Y1564D01*
X849Y1564D02*
X855Y1564D01*
X899Y1564D02*
X918Y1564D01*
X956Y1564D02*
X962Y1564D01*
X977Y1564D02*
X983Y1564D01*
X1639Y1564D02*
X1639Y1564D01*
X47Y1563D02*
X47Y1563D01*
X799Y1563D02*
X806Y1563D01*
X826Y1563D02*
X832Y1563D01*
X849Y1563D02*
X855Y1563D01*
X899Y1563D02*
X916Y1563D01*
X956Y1563D02*
X962Y1563D01*
X976Y1563D02*
X983Y1563D01*
X1639Y1563D02*
X1639Y1563D01*
X47Y1562D02*
X47Y1562D01*
X799Y1562D02*
X806Y1562D01*
X825Y1562D02*
X832Y1562D01*
X849Y1562D02*
X855Y1562D01*
X899Y1562D02*
X905Y1562D01*
X956Y1562D02*
X962Y1562D01*
X976Y1562D02*
X982Y1562D01*
X1639Y1562D02*
X1639Y1562D01*
X47Y1561D02*
X47Y1561D01*
X800Y1561D02*
X806Y1561D01*
X825Y1561D02*
X831Y1561D01*
X849Y1561D02*
X855Y1561D01*
X899Y1561D02*
X905Y1561D01*
X956Y1561D02*
X962Y1561D01*
X975Y1561D02*
X982Y1561D01*
X1639Y1561D02*
X1639Y1561D01*
X47Y1560D02*
X47Y1560D01*
X800Y1560D02*
X807Y1560D01*
X824Y1560D02*
X831Y1560D01*
X849Y1560D02*
X855Y1560D01*
X899Y1560D02*
X905Y1560D01*
X956Y1560D02*
X962Y1560D01*
X975Y1560D02*
X982Y1560D01*
X1639Y1560D02*
X1639Y1560D01*
X47Y1559D02*
X47Y1559D01*
X801Y1559D02*
X807Y1559D01*
X824Y1559D02*
X831Y1559D01*
X849Y1559D02*
X855Y1559D01*
X899Y1559D02*
X905Y1559D01*
X956Y1559D02*
X962Y1559D01*
X974Y1559D02*
X981Y1559D01*
X1639Y1559D02*
X1639Y1559D01*
X47Y1558D02*
X47Y1558D01*
X801Y1558D02*
X808Y1558D01*
X823Y1558D02*
X830Y1558D01*
X849Y1558D02*
X855Y1558D01*
X899Y1558D02*
X905Y1558D01*
X956Y1558D02*
X962Y1558D01*
X974Y1558D02*
X981Y1558D01*
X1639Y1558D02*
X1639Y1558D01*
X47Y1557D02*
X47Y1557D01*
X802Y1557D02*
X808Y1557D01*
X823Y1557D02*
X830Y1557D01*
X849Y1557D02*
X855Y1557D01*
X899Y1557D02*
X905Y1557D01*
X956Y1557D02*
X962Y1557D01*
X973Y1557D02*
X980Y1557D01*
X1639Y1557D02*
X1639Y1557D01*
X47Y1556D02*
X47Y1556D01*
X802Y1556D02*
X809Y1556D01*
X822Y1556D02*
X829Y1556D01*
X849Y1556D02*
X855Y1556D01*
X899Y1556D02*
X905Y1556D01*
X956Y1556D02*
X962Y1556D01*
X973Y1556D02*
X980Y1556D01*
X1639Y1556D02*
X1639Y1556D01*
X47Y1555D02*
X47Y1555D01*
X803Y1555D02*
X809Y1555D01*
X822Y1555D02*
X829Y1555D01*
X849Y1555D02*
X855Y1555D01*
X899Y1555D02*
X905Y1555D01*
X956Y1555D02*
X962Y1555D01*
X972Y1555D02*
X979Y1555D01*
X1639Y1555D02*
X1639Y1555D01*
X47Y1554D02*
X47Y1554D01*
X803Y1554D02*
X810Y1554D01*
X821Y1554D02*
X828Y1554D01*
X849Y1554D02*
X855Y1554D01*
X899Y1554D02*
X905Y1554D01*
X956Y1554D02*
X962Y1554D01*
X972Y1554D02*
X979Y1554D01*
X1639Y1554D02*
X1639Y1554D01*
X47Y1553D02*
X47Y1553D01*
X804Y1553D02*
X810Y1553D01*
X821Y1553D02*
X828Y1553D01*
X849Y1553D02*
X855Y1553D01*
X899Y1553D02*
X905Y1553D01*
X956Y1553D02*
X962Y1553D01*
X971Y1553D02*
X978Y1553D01*
X1639Y1553D02*
X1639Y1553D01*
X47Y1552D02*
X47Y1552D01*
X804Y1552D02*
X811Y1552D01*
X820Y1552D02*
X827Y1552D01*
X849Y1552D02*
X855Y1552D01*
X899Y1552D02*
X905Y1552D01*
X956Y1552D02*
X962Y1552D01*
X971Y1552D02*
X978Y1552D01*
X1639Y1552D02*
X1639Y1552D01*
X47Y1551D02*
X47Y1551D01*
X805Y1551D02*
X811Y1551D01*
X820Y1551D02*
X827Y1551D01*
X849Y1551D02*
X855Y1551D01*
X899Y1551D02*
X905Y1551D01*
X956Y1551D02*
X962Y1551D01*
X970Y1551D02*
X977Y1551D01*
X1639Y1551D02*
X1639Y1551D01*
X47Y1550D02*
X47Y1550D01*
X805Y1550D02*
X812Y1550D01*
X819Y1550D02*
X826Y1550D01*
X849Y1550D02*
X855Y1550D01*
X899Y1550D02*
X905Y1550D01*
X956Y1550D02*
X962Y1550D01*
X970Y1550D02*
X977Y1550D01*
X1639Y1550D02*
X1639Y1550D01*
X47Y1549D02*
X47Y1549D01*
X806Y1549D02*
X812Y1549D01*
X819Y1549D02*
X826Y1549D01*
X849Y1549D02*
X855Y1549D01*
X899Y1549D02*
X905Y1549D01*
X956Y1549D02*
X962Y1549D01*
X969Y1549D02*
X976Y1549D01*
X1639Y1549D02*
X1639Y1549D01*
X47Y1548D02*
X47Y1548D01*
X806Y1548D02*
X813Y1548D01*
X818Y1548D02*
X825Y1548D01*
X849Y1548D02*
X855Y1548D01*
X899Y1548D02*
X905Y1548D01*
X956Y1548D02*
X962Y1548D01*
X969Y1548D02*
X976Y1548D01*
X1639Y1548D02*
X1639Y1548D01*
X47Y1547D02*
X47Y1547D01*
X807Y1547D02*
X814Y1547D01*
X818Y1547D02*
X825Y1547D01*
X849Y1547D02*
X855Y1547D01*
X899Y1547D02*
X905Y1547D01*
X956Y1547D02*
X962Y1547D01*
X968Y1547D02*
X975Y1547D01*
X1639Y1547D02*
X1639Y1547D01*
X47Y1546D02*
X47Y1546D01*
X807Y1546D02*
X824Y1546D01*
X849Y1546D02*
X880Y1546D01*
X899Y1546D02*
X931Y1546D01*
X952Y1546D02*
X975Y1546D01*
X1639Y1546D02*
X1639Y1546D01*
X47Y1545D02*
X47Y1545D01*
X808Y1545D02*
X824Y1545D01*
X849Y1545D02*
X882Y1545D01*
X899Y1545D02*
X932Y1545D01*
X950Y1545D02*
X974Y1545D01*
X1639Y1545D02*
X1639Y1545D01*
X47Y1544D02*
X47Y1544D01*
X808Y1544D02*
X823Y1544D01*
X849Y1544D02*
X882Y1544D01*
X899Y1544D02*
X933Y1544D01*
X950Y1544D02*
X974Y1544D01*
X1639Y1544D02*
X1639Y1544D01*
X47Y1543D02*
X47Y1543D01*
X809Y1543D02*
X822Y1543D01*
X849Y1543D02*
X883Y1543D01*
X899Y1543D02*
X933Y1543D01*
X949Y1543D02*
X973Y1543D01*
X1639Y1543D02*
X1639Y1543D01*
X47Y1542D02*
X47Y1542D01*
X810Y1542D02*
X821Y1542D01*
X849Y1542D02*
X882Y1542D01*
X899Y1542D02*
X933Y1542D01*
X950Y1542D02*
X972Y1542D01*
X1639Y1542D02*
X1639Y1542D01*
X47Y1541D02*
X47Y1541D01*
X811Y1541D02*
X820Y1541D01*
X849Y1541D02*
X882Y1541D01*
X899Y1541D02*
X932Y1541D01*
X950Y1541D02*
X971Y1541D01*
X1639Y1541D02*
X1639Y1541D01*
X47Y1540D02*
X47Y1540D01*
X813Y1540D02*
X818Y1540D01*
X849Y1540D02*
X881Y1540D01*
X899Y1540D02*
X931Y1540D01*
X951Y1540D02*
X968Y1540D01*
X1639Y1540D02*
X1639Y1540D01*
X47Y1539D02*
X47Y1539D01*
X1639Y1539D02*
X1639Y1539D01*
X47Y1538D02*
X47Y1538D01*
X1639Y1538D02*
X1639Y1538D01*
X47Y1537D02*
X47Y1537D01*
X1639Y1537D02*
X1639Y1537D01*
X47Y1536D02*
X47Y1536D01*
X1639Y1536D02*
X1639Y1536D01*
X47Y1535D02*
X47Y1535D01*
X1639Y1535D02*
X1639Y1535D01*
X47Y1534D02*
X47Y1534D01*
X1639Y1534D02*
X1639Y1534D01*
X47Y1533D02*
X47Y1533D01*
X1639Y1533D02*
X1639Y1533D01*
X47Y1532D02*
X47Y1532D01*
X1639Y1532D02*
X1639Y1532D01*
X47Y1531D02*
X47Y1531D01*
X1639Y1531D02*
X1639Y1531D01*
X47Y1530D02*
X47Y1530D01*
X1639Y1530D02*
X1639Y1530D01*
X47Y1529D02*
X47Y1529D01*
X1639Y1529D02*
X1639Y1529D01*
X47Y1528D02*
X47Y1528D01*
X1639Y1528D02*
X1639Y1528D01*
X47Y1527D02*
X47Y1527D01*
X1639Y1527D02*
X1639Y1527D01*
X47Y1526D02*
X47Y1526D01*
X1639Y1526D02*
X1639Y1526D01*
X47Y1525D02*
X47Y1525D01*
X1639Y1525D02*
X1639Y1525D01*
X47Y1524D02*
X47Y1524D01*
X1639Y1524D02*
X1639Y1524D01*
X47Y1523D02*
X47Y1523D01*
X1639Y1523D02*
X1639Y1523D01*
X47Y1522D02*
X47Y1522D01*
X1639Y1522D02*
X1639Y1522D01*
X47Y1521D02*
X47Y1521D01*
X1639Y1521D02*
X1639Y1521D01*
X47Y1520D02*
X47Y1520D01*
X1639Y1520D02*
X1639Y1520D01*
X47Y1519D02*
X47Y1519D01*
X1639Y1519D02*
X1639Y1519D01*
X47Y1518D02*
X47Y1518D01*
X1639Y1518D02*
X1639Y1518D01*
X47Y1517D02*
X47Y1517D01*
X1639Y1517D02*
X1639Y1517D01*
X47Y1516D02*
X47Y1516D01*
X1639Y1516D02*
X1639Y1516D01*
X47Y1515D02*
X47Y1515D01*
X1639Y1515D02*
X1639Y1515D01*
X47Y1514D02*
X47Y1514D01*
X1639Y1514D02*
X1639Y1514D01*
X47Y1513D02*
X47Y1513D01*
X1639Y1513D02*
X1639Y1513D01*
X47Y1512D02*
X47Y1512D01*
X1639Y1512D02*
X1639Y1512D01*
X47Y1511D02*
X47Y1511D01*
X1639Y1511D02*
X1639Y1511D01*
X47Y1510D02*
X47Y1510D01*
X1639Y1510D02*
X1639Y1510D01*
X47Y1509D02*
X47Y1509D01*
X1639Y1509D02*
X1639Y1509D01*
X47Y1508D02*
X47Y1508D01*
X1639Y1508D02*
X1639Y1508D01*
X47Y1507D02*
X47Y1507D01*
X1639Y1507D02*
X1639Y1507D01*
X47Y1506D02*
X47Y1506D01*
X1639Y1506D02*
X1639Y1506D01*
X47Y1505D02*
X47Y1505D01*
X1639Y1505D02*
X1639Y1505D01*
X47Y1504D02*
X47Y1504D01*
X1639Y1504D02*
X1639Y1504D01*
X47Y1503D02*
X47Y1503D01*
X1639Y1503D02*
X1639Y1503D01*
X47Y1502D02*
X47Y1502D01*
X1639Y1502D02*
X1639Y1502D01*
X47Y1501D02*
X47Y1501D01*
X1639Y1501D02*
X1639Y1501D01*
X47Y1500D02*
X47Y1500D01*
X1639Y1500D02*
X1639Y1500D01*
X47Y1499D02*
X47Y1499D01*
X1639Y1499D02*
X1639Y1499D01*
X47Y1498D02*
X47Y1498D01*
X1639Y1498D02*
X1639Y1498D01*
X47Y1497D02*
X47Y1497D01*
X1639Y1497D02*
X1639Y1497D01*
X47Y1496D02*
X47Y1496D01*
X1639Y1496D02*
X1639Y1496D01*
X47Y1495D02*
X47Y1495D01*
X1639Y1495D02*
X1639Y1495D01*
X47Y1494D02*
X47Y1494D01*
X1639Y1494D02*
X1639Y1494D01*
X47Y1493D02*
X47Y1493D01*
X1639Y1493D02*
X1639Y1493D01*
X47Y1492D02*
X47Y1492D01*
X1639Y1492D02*
X1639Y1492D01*
X47Y1491D02*
X47Y1491D01*
X1639Y1491D02*
X1639Y1491D01*
X47Y1490D02*
X47Y1490D01*
X1639Y1490D02*
X1639Y1490D01*
X47Y1489D02*
X47Y1489D01*
X1639Y1489D02*
X1639Y1489D01*
X47Y1488D02*
X47Y1488D01*
X1639Y1488D02*
X1639Y1488D01*
X47Y1487D02*
X47Y1487D01*
X1639Y1487D02*
X1639Y1487D01*
X47Y1486D02*
X47Y1486D01*
X1639Y1486D02*
X1639Y1486D01*
X47Y1485D02*
X47Y1485D01*
X1639Y1485D02*
X1639Y1485D01*
X47Y1484D02*
X47Y1484D01*
X1639Y1484D02*
X1639Y1484D01*
X47Y1483D02*
X47Y1483D01*
X1639Y1483D02*
X1639Y1483D01*
X47Y1482D02*
X47Y1482D01*
X1639Y1482D02*
X1639Y1482D01*
X47Y1481D02*
X47Y1481D01*
X1639Y1481D02*
X1639Y1481D01*
X47Y1480D02*
X47Y1480D01*
X1639Y1480D02*
X1639Y1480D01*
X47Y1479D02*
X47Y1479D01*
X1639Y1479D02*
X1639Y1479D01*
X47Y1478D02*
X47Y1478D01*
X1639Y1478D02*
X1639Y1478D01*
X47Y1477D02*
X47Y1477D01*
X1639Y1477D02*
X1639Y1477D01*
X47Y1476D02*
X47Y1476D01*
X1639Y1476D02*
X1639Y1476D01*
X47Y1475D02*
X47Y1475D01*
X1639Y1475D02*
X1639Y1475D01*
X47Y1474D02*
X47Y1474D01*
X1639Y1474D02*
X1639Y1474D01*
X47Y1473D02*
X47Y1473D01*
X1639Y1473D02*
X1639Y1473D01*
X47Y1472D02*
X47Y1472D01*
X1639Y1472D02*
X1639Y1472D01*
X47Y1471D02*
X47Y1471D01*
X1639Y1471D02*
X1639Y1471D01*
X47Y1470D02*
X47Y1470D01*
X1639Y1470D02*
X1639Y1470D01*
X47Y1469D02*
X47Y1469D01*
X1639Y1469D02*
X1639Y1469D01*
X47Y1468D02*
X47Y1468D01*
X1639Y1468D02*
X1639Y1468D01*
X47Y1467D02*
X47Y1467D01*
X1639Y1467D02*
X1639Y1467D01*
X47Y1466D02*
X47Y1466D01*
X1639Y1466D02*
X1639Y1466D01*
X47Y1465D02*
X47Y1465D01*
X1639Y1465D02*
X1639Y1465D01*
X47Y1464D02*
X47Y1464D01*
X1639Y1464D02*
X1639Y1464D01*
X47Y1463D02*
X47Y1463D01*
X1639Y1463D02*
X1639Y1463D01*
X47Y1462D02*
X47Y1462D01*
X1639Y1462D02*
X1639Y1462D01*
X47Y1461D02*
X47Y1461D01*
X1639Y1461D02*
X1639Y1461D01*
X47Y1460D02*
X47Y1460D01*
X1639Y1460D02*
X1639Y1460D01*
X47Y1459D02*
X47Y1459D01*
X1639Y1459D02*
X1639Y1459D01*
X47Y1458D02*
X47Y1458D01*
X1639Y1458D02*
X1639Y1458D01*
X47Y1457D02*
X47Y1457D01*
X1639Y1457D02*
X1639Y1457D01*
X47Y1456D02*
X47Y1456D01*
X1639Y1456D02*
X1639Y1456D01*
X47Y1455D02*
X47Y1455D01*
X1639Y1455D02*
X1639Y1455D01*
X47Y1454D02*
X47Y1454D01*
X1639Y1454D02*
X1639Y1454D01*
X47Y1453D02*
X47Y1453D01*
X1639Y1453D02*
X1639Y1453D01*
X47Y1452D02*
X47Y1452D01*
X1639Y1452D02*
X1639Y1452D01*
X47Y1451D02*
X47Y1451D01*
X1639Y1451D02*
X1639Y1451D01*
X47Y1450D02*
X47Y1450D01*
X1639Y1450D02*
X1639Y1450D01*
X47Y1449D02*
X47Y1449D01*
X1639Y1449D02*
X1639Y1449D01*
X47Y1448D02*
X47Y1448D01*
X1639Y1448D02*
X1639Y1448D01*
X47Y1447D02*
X47Y1447D01*
X1639Y1447D02*
X1639Y1447D01*
X47Y1446D02*
X47Y1446D01*
X1639Y1446D02*
X1639Y1446D01*
X47Y1445D02*
X47Y1445D01*
X1639Y1445D02*
X1639Y1445D01*
X47Y1444D02*
X47Y1444D01*
X1639Y1444D02*
X1639Y1444D01*
X47Y1443D02*
X47Y1443D01*
X1639Y1443D02*
X1639Y1443D01*
X47Y1442D02*
X47Y1442D01*
X1639Y1442D02*
X1639Y1442D01*
X47Y1441D02*
X47Y1441D01*
X1639Y1441D02*
X1639Y1441D01*
X47Y1440D02*
X47Y1440D01*
X1639Y1440D02*
X1639Y1440D01*
X47Y1439D02*
X47Y1439D01*
X1639Y1439D02*
X1639Y1439D01*
X47Y1438D02*
X47Y1438D01*
X1639Y1438D02*
X1639Y1438D01*
X47Y1437D02*
X47Y1437D01*
X1639Y1437D02*
X1639Y1437D01*
X47Y1436D02*
X47Y1436D01*
X1639Y1436D02*
X1639Y1436D01*
X47Y1435D02*
X47Y1435D01*
X1639Y1435D02*
X1639Y1435D01*
X47Y1434D02*
X47Y1434D01*
X1639Y1434D02*
X1639Y1434D01*
X47Y1433D02*
X47Y1433D01*
X1639Y1433D02*
X1639Y1433D01*
X47Y1432D02*
X47Y1432D01*
X1639Y1432D02*
X1639Y1432D01*
X47Y1431D02*
X47Y1431D01*
X1639Y1431D02*
X1639Y1431D01*
X47Y1430D02*
X47Y1430D01*
X1639Y1430D02*
X1639Y1430D01*
X47Y1429D02*
X47Y1429D01*
X1639Y1429D02*
X1639Y1429D01*
X47Y1428D02*
X47Y1428D01*
X1639Y1428D02*
X1639Y1428D01*
X47Y1427D02*
X47Y1427D01*
X1639Y1427D02*
X1639Y1427D01*
X47Y1426D02*
X47Y1426D01*
X1639Y1426D02*
X1639Y1426D01*
X47Y1425D02*
X47Y1425D01*
X1639Y1425D02*
X1639Y1425D01*
X47Y1424D02*
X47Y1424D01*
X1639Y1424D02*
X1639Y1424D01*
X47Y1423D02*
X47Y1423D01*
X1639Y1423D02*
X1639Y1423D01*
X47Y1422D02*
X47Y1422D01*
X1639Y1422D02*
X1639Y1422D01*
X47Y1421D02*
X47Y1421D01*
X1639Y1421D02*
X1639Y1421D01*
X47Y1420D02*
X47Y1420D01*
X1639Y1420D02*
X1639Y1420D01*
X47Y1419D02*
X47Y1419D01*
X1639Y1419D02*
X1639Y1419D01*
X47Y1418D02*
X47Y1418D01*
X1639Y1418D02*
X1639Y1418D01*
X47Y1417D02*
X47Y1417D01*
X1639Y1417D02*
X1639Y1417D01*
X47Y1416D02*
X47Y1416D01*
X1639Y1416D02*
X1639Y1416D01*
X47Y1415D02*
X47Y1415D01*
X1639Y1415D02*
X1639Y1415D01*
X47Y1414D02*
X47Y1414D01*
X1639Y1414D02*
X1639Y1414D01*
X47Y1413D02*
X47Y1413D01*
X1639Y1413D02*
X1639Y1413D01*
X47Y1412D02*
X47Y1412D01*
X1639Y1412D02*
X1639Y1412D01*
X47Y1411D02*
X47Y1411D01*
X1639Y1411D02*
X1639Y1411D01*
X47Y1410D02*
X47Y1410D01*
X1639Y1410D02*
X1639Y1410D01*
X47Y1409D02*
X47Y1409D01*
X1639Y1409D02*
X1639Y1409D01*
X47Y1408D02*
X47Y1408D01*
X1639Y1408D02*
X1639Y1408D01*
X47Y1407D02*
X47Y1407D01*
X1639Y1407D02*
X1639Y1407D01*
X47Y1406D02*
X47Y1406D01*
X1639Y1406D02*
X1639Y1406D01*
X47Y1405D02*
X47Y1405D01*
X1639Y1405D02*
X1639Y1405D01*
X47Y1404D02*
X47Y1404D01*
X1639Y1404D02*
X1639Y1404D01*
X47Y1403D02*
X47Y1403D01*
X1639Y1403D02*
X1639Y1403D01*
X47Y1402D02*
X47Y1402D01*
X1639Y1402D02*
X1639Y1402D01*
X47Y1401D02*
X47Y1401D01*
X1639Y1401D02*
X1639Y1401D01*
X47Y1400D02*
X47Y1400D01*
X1639Y1400D02*
X1639Y1400D01*
X47Y1399D02*
X47Y1399D01*
X1639Y1399D02*
X1639Y1399D01*
X47Y1398D02*
X47Y1398D01*
X1639Y1398D02*
X1639Y1398D01*
X47Y1397D02*
X47Y1397D01*
X1639Y1397D02*
X1639Y1397D01*
X47Y1396D02*
X47Y1396D01*
X1639Y1396D02*
X1639Y1396D01*
X47Y1395D02*
X47Y1395D01*
X1639Y1395D02*
X1639Y1395D01*
X47Y1394D02*
X47Y1394D01*
X1639Y1394D02*
X1639Y1394D01*
X47Y1393D02*
X47Y1393D01*
X1639Y1393D02*
X1639Y1393D01*
X47Y1392D02*
X47Y1392D01*
X1639Y1392D02*
X1639Y1392D01*
X47Y1391D02*
X47Y1391D01*
X1639Y1391D02*
X1639Y1391D01*
X47Y1390D02*
X47Y1390D01*
X1639Y1390D02*
X1639Y1390D01*
X47Y1389D02*
X47Y1389D01*
X1639Y1389D02*
X1639Y1389D01*
X47Y1388D02*
X47Y1388D01*
X1639Y1388D02*
X1639Y1388D01*
X47Y1387D02*
X47Y1387D01*
X1639Y1387D02*
X1639Y1387D01*
X47Y1386D02*
X47Y1386D01*
X1639Y1386D02*
X1639Y1386D01*
X47Y1385D02*
X47Y1385D01*
X1639Y1385D02*
X1639Y1385D01*
X47Y1384D02*
X47Y1384D01*
X1639Y1384D02*
X1639Y1384D01*
X47Y1383D02*
X47Y1383D01*
X1639Y1383D02*
X1639Y1383D01*
X47Y1382D02*
X47Y1382D01*
X1639Y1382D02*
X1639Y1382D01*
X47Y1381D02*
X47Y1381D01*
X1639Y1381D02*
X1639Y1381D01*
X47Y1380D02*
X47Y1380D01*
X1639Y1380D02*
X1639Y1380D01*
X47Y1379D02*
X47Y1379D01*
X1639Y1379D02*
X1639Y1379D01*
X47Y1378D02*
X47Y1378D01*
X1639Y1378D02*
X1639Y1378D01*
X47Y1377D02*
X47Y1377D01*
X1639Y1377D02*
X1639Y1377D01*
X47Y1376D02*
X47Y1376D01*
X1639Y1376D02*
X1639Y1376D01*
X47Y1375D02*
X47Y1375D01*
X1639Y1375D02*
X1639Y1375D01*
X47Y1374D02*
X47Y1374D01*
X1639Y1374D02*
X1639Y1374D01*
X47Y1373D02*
X47Y1373D01*
X1639Y1373D02*
X1639Y1373D01*
X47Y1372D02*
X47Y1372D01*
X1639Y1372D02*
X1639Y1372D01*
X47Y1371D02*
X47Y1371D01*
X1639Y1371D02*
X1639Y1371D01*
X47Y1370D02*
X47Y1370D01*
X1639Y1370D02*
X1639Y1370D01*
X47Y1369D02*
X47Y1369D01*
X1639Y1369D02*
X1639Y1369D01*
X47Y1368D02*
X47Y1368D01*
X1639Y1368D02*
X1639Y1368D01*
X47Y1367D02*
X47Y1367D01*
X1639Y1367D02*
X1639Y1367D01*
X47Y1366D02*
X47Y1366D01*
X1639Y1366D02*
X1639Y1366D01*
X47Y1365D02*
X47Y1365D01*
X1639Y1365D02*
X1639Y1365D01*
X47Y1364D02*
X47Y1364D01*
X1639Y1364D02*
X1639Y1364D01*
X47Y1363D02*
X47Y1363D01*
X1639Y1363D02*
X1639Y1363D01*
X47Y1362D02*
X47Y1362D01*
X1639Y1362D02*
X1639Y1362D01*
X47Y1361D02*
X47Y1361D01*
X1639Y1361D02*
X1639Y1361D01*
X47Y1360D02*
X47Y1360D01*
X1639Y1360D02*
X1639Y1360D01*
X47Y1359D02*
X47Y1359D01*
X1639Y1359D02*
X1639Y1359D01*
X47Y1358D02*
X47Y1358D01*
X1639Y1358D02*
X1639Y1358D01*
X47Y1357D02*
X47Y1357D01*
X1639Y1357D02*
X1639Y1357D01*
X47Y1356D02*
X47Y1356D01*
X1639Y1356D02*
X1639Y1356D01*
X47Y1355D02*
X47Y1355D01*
X1639Y1355D02*
X1639Y1355D01*
X47Y1354D02*
X47Y1354D01*
X1639Y1354D02*
X1639Y1354D01*
X47Y1353D02*
X47Y1353D01*
X1639Y1353D02*
X1639Y1353D01*
X47Y1352D02*
X47Y1352D01*
X1639Y1352D02*
X1639Y1352D01*
X47Y1351D02*
X47Y1351D01*
X1639Y1351D02*
X1639Y1351D01*
X47Y1350D02*
X47Y1350D01*
X1639Y1350D02*
X1639Y1350D01*
X47Y1349D02*
X47Y1349D01*
X1639Y1349D02*
X1639Y1349D01*
X47Y1348D02*
X47Y1348D01*
X1639Y1348D02*
X1639Y1348D01*
X47Y1347D02*
X47Y1347D01*
X1639Y1347D02*
X1639Y1347D01*
X47Y1346D02*
X47Y1346D01*
X1639Y1346D02*
X1639Y1346D01*
X47Y1345D02*
X47Y1345D01*
X1639Y1345D02*
X1639Y1345D01*
X47Y1344D02*
X47Y1344D01*
X1639Y1344D02*
X1639Y1344D01*
X47Y1343D02*
X47Y1343D01*
X1639Y1343D02*
X1639Y1343D01*
X47Y1342D02*
X47Y1342D01*
X1639Y1342D02*
X1639Y1342D01*
X47Y1341D02*
X47Y1341D01*
X1639Y1341D02*
X1639Y1341D01*
X47Y1340D02*
X47Y1340D01*
X1639Y1340D02*
X1639Y1340D01*
X47Y1339D02*
X47Y1339D01*
X1639Y1339D02*
X1639Y1339D01*
X47Y1338D02*
X47Y1338D01*
X1639Y1338D02*
X1639Y1338D01*
X47Y1337D02*
X47Y1337D01*
X1639Y1337D02*
X1639Y1337D01*
X47Y1336D02*
X47Y1336D01*
X1639Y1336D02*
X1639Y1336D01*
X47Y1335D02*
X47Y1335D01*
X1639Y1335D02*
X1639Y1335D01*
X47Y1334D02*
X47Y1334D01*
X1639Y1334D02*
X1639Y1334D01*
X47Y1333D02*
X47Y1333D01*
X1639Y1333D02*
X1639Y1333D01*
X47Y1332D02*
X47Y1332D01*
X1639Y1332D02*
X1639Y1332D01*
X47Y1331D02*
X47Y1331D01*
X1639Y1331D02*
X1639Y1331D01*
X47Y1330D02*
X47Y1330D01*
X1639Y1330D02*
X1639Y1330D01*
X47Y1329D02*
X47Y1329D01*
X1639Y1329D02*
X1639Y1329D01*
X47Y1328D02*
X47Y1328D01*
X1639Y1328D02*
X1639Y1328D01*
X47Y1327D02*
X47Y1327D01*
X1639Y1327D02*
X1639Y1327D01*
X47Y1326D02*
X47Y1326D01*
X1639Y1326D02*
X1639Y1326D01*
X47Y1325D02*
X47Y1325D01*
X1639Y1325D02*
X1639Y1325D01*
X47Y1324D02*
X47Y1324D01*
X1639Y1324D02*
X1639Y1324D01*
X47Y1323D02*
X47Y1323D01*
X1639Y1323D02*
X1639Y1323D01*
X47Y1322D02*
X47Y1322D01*
X1639Y1322D02*
X1639Y1322D01*
X47Y1321D02*
X47Y1321D01*
X1639Y1321D02*
X1639Y1321D01*
X47Y1320D02*
X47Y1320D01*
X1639Y1320D02*
X1639Y1320D01*
X47Y1319D02*
X47Y1319D01*
X1639Y1319D02*
X1639Y1319D01*
X47Y1318D02*
X47Y1318D01*
X1639Y1318D02*
X1639Y1318D01*
X47Y1317D02*
X47Y1317D01*
X1639Y1317D02*
X1639Y1317D01*
X47Y1316D02*
X47Y1316D01*
X1639Y1316D02*
X1639Y1316D01*
X47Y1315D02*
X47Y1315D01*
X1639Y1315D02*
X1639Y1315D01*
X47Y1314D02*
X47Y1314D01*
X1639Y1314D02*
X1639Y1314D01*
X47Y1313D02*
X47Y1313D01*
X1639Y1313D02*
X1639Y1313D01*
X47Y1312D02*
X47Y1312D01*
X1639Y1312D02*
X1639Y1312D01*
X47Y1311D02*
X47Y1311D01*
X1639Y1311D02*
X1639Y1311D01*
X47Y1310D02*
X47Y1310D01*
X1639Y1310D02*
X1639Y1310D01*
X47Y1309D02*
X47Y1309D01*
X1639Y1309D02*
X1639Y1309D01*
X47Y1308D02*
X47Y1308D01*
X1639Y1308D02*
X1639Y1308D01*
X47Y1307D02*
X47Y1307D01*
X1639Y1307D02*
X1639Y1307D01*
X47Y1306D02*
X47Y1306D01*
X1639Y1306D02*
X1639Y1306D01*
X47Y1305D02*
X47Y1305D01*
X1639Y1305D02*
X1639Y1305D01*
X47Y1304D02*
X47Y1304D01*
X1639Y1304D02*
X1639Y1304D01*
X47Y1303D02*
X47Y1303D01*
X1639Y1303D02*
X1639Y1303D01*
X47Y1302D02*
X47Y1302D01*
X1639Y1302D02*
X1639Y1302D01*
X47Y1301D02*
X47Y1301D01*
X1639Y1301D02*
X1639Y1301D01*
X47Y1300D02*
X47Y1300D01*
X1639Y1300D02*
X1639Y1300D01*
X47Y1299D02*
X47Y1299D01*
X1639Y1299D02*
X1639Y1299D01*
X47Y1298D02*
X47Y1298D01*
X1639Y1298D02*
X1639Y1298D01*
X47Y1297D02*
X47Y1297D01*
X1639Y1297D02*
X1639Y1297D01*
X47Y1296D02*
X47Y1296D01*
X1639Y1296D02*
X1639Y1296D01*
X47Y1295D02*
X47Y1295D01*
X1639Y1295D02*
X1639Y1295D01*
X47Y1294D02*
X47Y1294D01*
X1639Y1294D02*
X1639Y1294D01*
X47Y1293D02*
X47Y1293D01*
X1639Y1293D02*
X1639Y1293D01*
X47Y1292D02*
X47Y1292D01*
X1639Y1292D02*
X1639Y1292D01*
X47Y1291D02*
X47Y1291D01*
X1639Y1291D02*
X1639Y1291D01*
X47Y1290D02*
X47Y1290D01*
X1639Y1290D02*
X1639Y1290D01*
X47Y1289D02*
X47Y1289D01*
X1639Y1289D02*
X1639Y1289D01*
X47Y1288D02*
X47Y1288D01*
X1639Y1288D02*
X1639Y1288D01*
X47Y1287D02*
X47Y1287D01*
X1639Y1287D02*
X1639Y1287D01*
X47Y1286D02*
X47Y1286D01*
X1639Y1286D02*
X1639Y1286D01*
X47Y1285D02*
X47Y1285D01*
X1639Y1285D02*
X1639Y1285D01*
X47Y1284D02*
X47Y1284D01*
X1639Y1284D02*
X1639Y1284D01*
X47Y1283D02*
X47Y1283D01*
X1639Y1283D02*
X1639Y1283D01*
X47Y1282D02*
X47Y1282D01*
X1639Y1282D02*
X1639Y1282D01*
X47Y1281D02*
X47Y1281D01*
X1639Y1281D02*
X1639Y1281D01*
X47Y1280D02*
X47Y1280D01*
X1639Y1280D02*
X1639Y1280D01*
X47Y1279D02*
X47Y1279D01*
X1639Y1279D02*
X1639Y1279D01*
X47Y1278D02*
X47Y1278D01*
X1639Y1278D02*
X1639Y1278D01*
X47Y1277D02*
X47Y1277D01*
X1639Y1277D02*
X1639Y1277D01*
X47Y1276D02*
X47Y1276D01*
X1639Y1276D02*
X1639Y1276D01*
X47Y1275D02*
X47Y1275D01*
X1639Y1275D02*
X1639Y1275D01*
X47Y1274D02*
X47Y1274D01*
X1639Y1274D02*
X1639Y1274D01*
X47Y1273D02*
X47Y1273D01*
X1639Y1273D02*
X1639Y1273D01*
X47Y1272D02*
X47Y1272D01*
X1639Y1272D02*
X1639Y1272D01*
X47Y1271D02*
X47Y1271D01*
X1639Y1271D02*
X1639Y1271D01*
X47Y1270D02*
X47Y1270D01*
X1639Y1270D02*
X1639Y1270D01*
X47Y1269D02*
X47Y1269D01*
X1639Y1269D02*
X1639Y1269D01*
X47Y1268D02*
X47Y1268D01*
X1639Y1268D02*
X1639Y1268D01*
X47Y1267D02*
X47Y1267D01*
X1639Y1267D02*
X1639Y1267D01*
X47Y1266D02*
X47Y1266D01*
X1639Y1266D02*
X1639Y1266D01*
X47Y1265D02*
X47Y1265D01*
X1639Y1265D02*
X1639Y1265D01*
X47Y1264D02*
X47Y1264D01*
X1639Y1264D02*
X1639Y1264D01*
X47Y1263D02*
X47Y1263D01*
X1639Y1263D02*
X1639Y1263D01*
X47Y1262D02*
X47Y1262D01*
X1639Y1262D02*
X1639Y1262D01*
X47Y1261D02*
X47Y1261D01*
X1639Y1261D02*
X1639Y1261D01*
X47Y1260D02*
X47Y1260D01*
X1639Y1260D02*
X1639Y1260D01*
X47Y1259D02*
X47Y1259D01*
X1639Y1259D02*
X1639Y1259D01*
X47Y1258D02*
X47Y1258D01*
X1639Y1258D02*
X1639Y1258D01*
X47Y1257D02*
X47Y1257D01*
X1639Y1257D02*
X1639Y1257D01*
X47Y1256D02*
X47Y1256D01*
X1639Y1256D02*
X1639Y1256D01*
X47Y1255D02*
X47Y1255D01*
X1639Y1255D02*
X1639Y1255D01*
X47Y1254D02*
X47Y1254D01*
X1639Y1254D02*
X1639Y1254D01*
X47Y1253D02*
X47Y1253D01*
X1639Y1253D02*
X1639Y1253D01*
X47Y1252D02*
X47Y1252D01*
X1639Y1252D02*
X1639Y1252D01*
X47Y1251D02*
X47Y1251D01*
X1639Y1251D02*
X1639Y1251D01*
X47Y1250D02*
X47Y1250D01*
X1639Y1250D02*
X1639Y1250D01*
X47Y1249D02*
X47Y1249D01*
X1639Y1249D02*
X1639Y1249D01*
X47Y1248D02*
X47Y1248D01*
X1639Y1248D02*
X1639Y1248D01*
X47Y1247D02*
X47Y1247D01*
X1639Y1247D02*
X1639Y1247D01*
X47Y1246D02*
X47Y1246D01*
X1639Y1246D02*
X1639Y1246D01*
X47Y1245D02*
X47Y1245D01*
X1639Y1245D02*
X1639Y1245D01*
X47Y1244D02*
X47Y1244D01*
X1639Y1244D02*
X1639Y1244D01*
X47Y1243D02*
X47Y1243D01*
X1639Y1243D02*
X1639Y1243D01*
X47Y1242D02*
X47Y1242D01*
X1639Y1242D02*
X1639Y1242D01*
X47Y1241D02*
X47Y1241D01*
X1639Y1241D02*
X1639Y1241D01*
X47Y1240D02*
X47Y1240D01*
X1639Y1240D02*
X1639Y1240D01*
X47Y1239D02*
X47Y1239D01*
X1639Y1239D02*
X1639Y1239D01*
X47Y1238D02*
X47Y1238D01*
X1639Y1238D02*
X1639Y1238D01*
X47Y1237D02*
X47Y1237D01*
X1639Y1237D02*
X1639Y1237D01*
X47Y1236D02*
X47Y1236D01*
X1639Y1236D02*
X1639Y1236D01*
X47Y1235D02*
X47Y1235D01*
X1639Y1235D02*
X1639Y1235D01*
X47Y1234D02*
X47Y1234D01*
X1639Y1234D02*
X1639Y1234D01*
X47Y1233D02*
X47Y1233D01*
X1639Y1233D02*
X1639Y1233D01*
X47Y1232D02*
X47Y1232D01*
X1639Y1232D02*
X1639Y1232D01*
X47Y1231D02*
X47Y1231D01*
X1639Y1231D02*
X1639Y1231D01*
X47Y1230D02*
X47Y1230D01*
X1639Y1230D02*
X1639Y1230D01*
X47Y1229D02*
X47Y1229D01*
X1639Y1229D02*
X1639Y1229D01*
X47Y1228D02*
X47Y1228D01*
X1639Y1228D02*
X1639Y1228D01*
X47Y1227D02*
X47Y1227D01*
X1639Y1227D02*
X1639Y1227D01*
X47Y1226D02*
X47Y1226D01*
X1639Y1226D02*
X1639Y1226D01*
X47Y1225D02*
X47Y1225D01*
X1639Y1225D02*
X1639Y1225D01*
X47Y1224D02*
X47Y1224D01*
X1639Y1224D02*
X1639Y1224D01*
X47Y1223D02*
X47Y1223D01*
X1639Y1223D02*
X1639Y1223D01*
X47Y1222D02*
X47Y1222D01*
X1639Y1222D02*
X1639Y1222D01*
X47Y1221D02*
X47Y1221D01*
X1639Y1221D02*
X1639Y1221D01*
X47Y1220D02*
X47Y1220D01*
X1639Y1220D02*
X1639Y1220D01*
X47Y1219D02*
X47Y1219D01*
X1639Y1219D02*
X1639Y1219D01*
X47Y1218D02*
X47Y1218D01*
X1639Y1218D02*
X1639Y1218D01*
X47Y1217D02*
X47Y1217D01*
X1639Y1217D02*
X1639Y1217D01*
X47Y1216D02*
X47Y1216D01*
X1639Y1216D02*
X1639Y1216D01*
X47Y1215D02*
X47Y1215D01*
X1639Y1215D02*
X1639Y1215D01*
X47Y1214D02*
X47Y1214D01*
X1639Y1214D02*
X1639Y1214D01*
X47Y1213D02*
X47Y1213D01*
X1639Y1213D02*
X1639Y1213D01*
X47Y1212D02*
X47Y1212D01*
X1639Y1212D02*
X1639Y1212D01*
X47Y1211D02*
X47Y1211D01*
X1639Y1211D02*
X1639Y1211D01*
X47Y1210D02*
X47Y1210D01*
X1639Y1210D02*
X1639Y1210D01*
X47Y1209D02*
X47Y1209D01*
X1639Y1209D02*
X1639Y1209D01*
X47Y1208D02*
X47Y1208D01*
X1639Y1208D02*
X1639Y1208D01*
X47Y1207D02*
X47Y1207D01*
X1639Y1207D02*
X1639Y1207D01*
X47Y1206D02*
X47Y1206D01*
X1639Y1206D02*
X1639Y1206D01*
X47Y1205D02*
X47Y1205D01*
X1639Y1205D02*
X1639Y1205D01*
X47Y1204D02*
X47Y1204D01*
X1639Y1204D02*
X1639Y1204D01*
X47Y1203D02*
X47Y1203D01*
X1639Y1203D02*
X1639Y1203D01*
X47Y1202D02*
X47Y1202D01*
X1639Y1202D02*
X1639Y1202D01*
X47Y1201D02*
X47Y1201D01*
X1639Y1201D02*
X1639Y1201D01*
X47Y1200D02*
X47Y1200D01*
X1639Y1200D02*
X1639Y1200D01*
X47Y1199D02*
X47Y1199D01*
X1639Y1199D02*
X1639Y1199D01*
X47Y1198D02*
X47Y1198D01*
X1639Y1198D02*
X1639Y1198D01*
X47Y1197D02*
X47Y1197D01*
X1639Y1197D02*
X1639Y1197D01*
X47Y1196D02*
X47Y1196D01*
X1639Y1196D02*
X1639Y1196D01*
X47Y1195D02*
X47Y1195D01*
X1639Y1195D02*
X1639Y1195D01*
X47Y1194D02*
X47Y1194D01*
X1639Y1194D02*
X1639Y1194D01*
X47Y1193D02*
X47Y1193D01*
X1639Y1193D02*
X1639Y1193D01*
X47Y1192D02*
X47Y1192D01*
X1639Y1192D02*
X1639Y1192D01*
X47Y1191D02*
X47Y1191D01*
X1639Y1191D02*
X1639Y1191D01*
X47Y1190D02*
X47Y1190D01*
X1639Y1190D02*
X1639Y1190D01*
X47Y1189D02*
X47Y1189D01*
X1639Y1189D02*
X1639Y1189D01*
X47Y1188D02*
X47Y1188D01*
X1639Y1188D02*
X1639Y1188D01*
X47Y1187D02*
X47Y1187D01*
X1639Y1187D02*
X1639Y1187D01*
X47Y1186D02*
X47Y1186D01*
X1639Y1186D02*
X1639Y1186D01*
X47Y1185D02*
X47Y1185D01*
X1639Y1185D02*
X1639Y1185D01*
X47Y1184D02*
X47Y1184D01*
X1639Y1184D02*
X1639Y1184D01*
X47Y1183D02*
X47Y1183D01*
X1639Y1183D02*
X1639Y1183D01*
X47Y1182D02*
X47Y1182D01*
X1639Y1182D02*
X1639Y1182D01*
X47Y1181D02*
X47Y1181D01*
X1639Y1181D02*
X1639Y1181D01*
X47Y1180D02*
X47Y1180D01*
X1639Y1180D02*
X1639Y1180D01*
X47Y1179D02*
X47Y1179D01*
X1639Y1179D02*
X1639Y1179D01*
X47Y1178D02*
X47Y1178D01*
X1639Y1178D02*
X1639Y1178D01*
X47Y1177D02*
X47Y1177D01*
X1639Y1177D02*
X1639Y1177D01*
X47Y1176D02*
X47Y1176D01*
X1639Y1176D02*
X1639Y1176D01*
X47Y1175D02*
X47Y1175D01*
X1639Y1175D02*
X1639Y1175D01*
X47Y1174D02*
X47Y1174D01*
X1639Y1174D02*
X1639Y1174D01*
X47Y1173D02*
X47Y1173D01*
X1639Y1173D02*
X1639Y1173D01*
X47Y1172D02*
X47Y1172D01*
X1639Y1172D02*
X1639Y1172D01*
X47Y1171D02*
X47Y1171D01*
X1639Y1171D02*
X1639Y1171D01*
X47Y1170D02*
X47Y1170D01*
X1639Y1170D02*
X1639Y1170D01*
X47Y1169D02*
X47Y1169D01*
X1639Y1169D02*
X1639Y1169D01*
X47Y1168D02*
X47Y1168D01*
X1639Y1168D02*
X1639Y1168D01*
X47Y1167D02*
X47Y1167D01*
X1639Y1167D02*
X1639Y1167D01*
X47Y1166D02*
X47Y1166D01*
X1639Y1166D02*
X1639Y1166D01*
X47Y1165D02*
X47Y1165D01*
X1639Y1165D02*
X1639Y1165D01*
X47Y1164D02*
X47Y1164D01*
X1639Y1164D02*
X1639Y1164D01*
X47Y1163D02*
X47Y1163D01*
X1639Y1163D02*
X1639Y1163D01*
X47Y1162D02*
X47Y1162D01*
X1639Y1162D02*
X1639Y1162D01*
X47Y1161D02*
X47Y1161D01*
X1639Y1161D02*
X1639Y1161D01*
X47Y1160D02*
X47Y1160D01*
X1639Y1160D02*
X1639Y1160D01*
X47Y1159D02*
X47Y1159D01*
X1639Y1159D02*
X1639Y1159D01*
X47Y1158D02*
X47Y1158D01*
X1639Y1158D02*
X1639Y1158D01*
X47Y1157D02*
X47Y1157D01*
X1639Y1157D02*
X1639Y1157D01*
X47Y1156D02*
X47Y1156D01*
X1639Y1156D02*
X1639Y1156D01*
X47Y1155D02*
X47Y1155D01*
X1639Y1155D02*
X1639Y1155D01*
X47Y1154D02*
X47Y1154D01*
X1639Y1154D02*
X1639Y1154D01*
X47Y1153D02*
X47Y1153D01*
X1639Y1153D02*
X1639Y1153D01*
X47Y1152D02*
X47Y1152D01*
X1639Y1152D02*
X1639Y1152D01*
X47Y1151D02*
X47Y1151D01*
X1639Y1151D02*
X1639Y1151D01*
X47Y1150D02*
X47Y1150D01*
X1639Y1150D02*
X1639Y1150D01*
X47Y1149D02*
X47Y1149D01*
X1639Y1149D02*
X1639Y1149D01*
X47Y1148D02*
X47Y1148D01*
X1639Y1148D02*
X1639Y1148D01*
X47Y1147D02*
X47Y1147D01*
X1639Y1147D02*
X1639Y1147D01*
X47Y1146D02*
X47Y1146D01*
X1639Y1146D02*
X1639Y1146D01*
X47Y1145D02*
X47Y1145D01*
X1639Y1145D02*
X1639Y1145D01*
X47Y1144D02*
X47Y1144D01*
X1639Y1144D02*
X1639Y1144D01*
X47Y1143D02*
X47Y1143D01*
X1639Y1143D02*
X1639Y1143D01*
X47Y1142D02*
X47Y1142D01*
X1639Y1142D02*
X1639Y1142D01*
X47Y1141D02*
X47Y1141D01*
X1639Y1141D02*
X1639Y1141D01*
X47Y1140D02*
X47Y1140D01*
X1639Y1140D02*
X1639Y1140D01*
X47Y1139D02*
X47Y1139D01*
X1639Y1139D02*
X1639Y1139D01*
X47Y1138D02*
X47Y1138D01*
X1639Y1138D02*
X1639Y1138D01*
X47Y1137D02*
X47Y1137D01*
X1639Y1137D02*
X1639Y1137D01*
X47Y1136D02*
X47Y1136D01*
X1639Y1136D02*
X1639Y1136D01*
X47Y1135D02*
X47Y1135D01*
X1639Y1135D02*
X1639Y1135D01*
X47Y1134D02*
X47Y1134D01*
X1639Y1134D02*
X1639Y1134D01*
X47Y1133D02*
X47Y1133D01*
X1639Y1133D02*
X1639Y1133D01*
X47Y1132D02*
X47Y1132D01*
X1639Y1132D02*
X1639Y1132D01*
X47Y1131D02*
X47Y1131D01*
X1639Y1131D02*
X1639Y1131D01*
X47Y1130D02*
X47Y1130D01*
X1639Y1130D02*
X1639Y1130D01*
X47Y1129D02*
X47Y1129D01*
X1639Y1129D02*
X1639Y1129D01*
X47Y1128D02*
X47Y1128D01*
X1639Y1128D02*
X1639Y1128D01*
X47Y1127D02*
X47Y1127D01*
X1639Y1127D02*
X1639Y1127D01*
X47Y1126D02*
X47Y1126D01*
X1639Y1126D02*
X1639Y1126D01*
X47Y1125D02*
X47Y1125D01*
X1639Y1125D02*
X1639Y1125D01*
X47Y1124D02*
X47Y1124D01*
X1639Y1124D02*
X1639Y1124D01*
X47Y1123D02*
X47Y1123D01*
X1639Y1123D02*
X1639Y1123D01*
X47Y1122D02*
X47Y1122D01*
X1639Y1122D02*
X1639Y1122D01*
X47Y1121D02*
X47Y1121D01*
X1639Y1121D02*
X1639Y1121D01*
X47Y1120D02*
X47Y1120D01*
X1639Y1120D02*
X1639Y1120D01*
X47Y1119D02*
X47Y1119D01*
X1639Y1119D02*
X1639Y1119D01*
X47Y1118D02*
X47Y1118D01*
X1639Y1118D02*
X1639Y1118D01*
X47Y1117D02*
X47Y1117D01*
X1639Y1117D02*
X1639Y1117D01*
X47Y1116D02*
X47Y1116D01*
X1639Y1116D02*
X1639Y1116D01*
X47Y1115D02*
X47Y1115D01*
X1639Y1115D02*
X1639Y1115D01*
X47Y1114D02*
X47Y1114D01*
X1639Y1114D02*
X1639Y1114D01*
X47Y1113D02*
X47Y1113D01*
X1639Y1113D02*
X1639Y1113D01*
X47Y1112D02*
X47Y1112D01*
X1639Y1112D02*
X1639Y1112D01*
X47Y1111D02*
X47Y1111D01*
X1639Y1111D02*
X1639Y1111D01*
X47Y1110D02*
X47Y1110D01*
X1639Y1110D02*
X1639Y1110D01*
X47Y1109D02*
X47Y1109D01*
X1639Y1109D02*
X1639Y1109D01*
X47Y1108D02*
X47Y1108D01*
X1639Y1108D02*
X1639Y1108D01*
X47Y1107D02*
X47Y1107D01*
X1639Y1107D02*
X1639Y1107D01*
X47Y1106D02*
X47Y1106D01*
X1639Y1106D02*
X1639Y1106D01*
X47Y1105D02*
X47Y1105D01*
X1639Y1105D02*
X1639Y1105D01*
X47Y1104D02*
X47Y1104D01*
X1639Y1104D02*
X1639Y1104D01*
X47Y1103D02*
X47Y1103D01*
X1639Y1103D02*
X1639Y1103D01*
X47Y1102D02*
X47Y1102D01*
X1639Y1102D02*
X1639Y1102D01*
X47Y1101D02*
X47Y1101D01*
X1639Y1101D02*
X1639Y1101D01*
X47Y1100D02*
X47Y1100D01*
X1639Y1100D02*
X1639Y1100D01*
X47Y1099D02*
X47Y1099D01*
X1639Y1099D02*
X1639Y1099D01*
X47Y1098D02*
X47Y1098D01*
X1639Y1098D02*
X1639Y1098D01*
X47Y1097D02*
X47Y1097D01*
X1639Y1097D02*
X1639Y1097D01*
X47Y1096D02*
X47Y1096D01*
X1639Y1096D02*
X1639Y1096D01*
X47Y1095D02*
X47Y1095D01*
X1639Y1095D02*
X1639Y1095D01*
X47Y1094D02*
X47Y1094D01*
X1639Y1094D02*
X1639Y1094D01*
X47Y1093D02*
X47Y1093D01*
X1639Y1093D02*
X1639Y1093D01*
X47Y1092D02*
X47Y1092D01*
X1639Y1092D02*
X1639Y1092D01*
X47Y1091D02*
X47Y1091D01*
X1639Y1091D02*
X1639Y1091D01*
X47Y1090D02*
X47Y1090D01*
X1639Y1090D02*
X1639Y1090D01*
X47Y1089D02*
X47Y1089D01*
X1639Y1089D02*
X1639Y1089D01*
X47Y1088D02*
X47Y1088D01*
X1639Y1088D02*
X1639Y1088D01*
X47Y1087D02*
X47Y1087D01*
X1639Y1087D02*
X1639Y1087D01*
X47Y1086D02*
X47Y1086D01*
X1639Y1086D02*
X1639Y1086D01*
X47Y1085D02*
X47Y1085D01*
X1639Y1085D02*
X1639Y1085D01*
X47Y1084D02*
X47Y1084D01*
X1639Y1084D02*
X1639Y1084D01*
X47Y1083D02*
X47Y1083D01*
X1639Y1083D02*
X1639Y1083D01*
X47Y1082D02*
X47Y1082D01*
X1639Y1082D02*
X1639Y1082D01*
X47Y1081D02*
X47Y1081D01*
X1639Y1081D02*
X1639Y1081D01*
X47Y1080D02*
X47Y1080D01*
X1639Y1080D02*
X1639Y1080D01*
X47Y1079D02*
X47Y1079D01*
X1639Y1079D02*
X1639Y1079D01*
X47Y1078D02*
X47Y1078D01*
X1639Y1078D02*
X1639Y1078D01*
X47Y1077D02*
X47Y1077D01*
X1639Y1077D02*
X1639Y1077D01*
X47Y1076D02*
X47Y1076D01*
X1639Y1076D02*
X1639Y1076D01*
X47Y1075D02*
X47Y1075D01*
X1639Y1075D02*
X1639Y1075D01*
X47Y1074D02*
X47Y1074D01*
X1639Y1074D02*
X1639Y1074D01*
X47Y1073D02*
X47Y1073D01*
X1639Y1073D02*
X1639Y1073D01*
X47Y1072D02*
X47Y1072D01*
X1639Y1072D02*
X1639Y1072D01*
X47Y1071D02*
X47Y1071D01*
X1639Y1071D02*
X1639Y1071D01*
X47Y1070D02*
X47Y1070D01*
X1639Y1070D02*
X1639Y1070D01*
X47Y1069D02*
X47Y1069D01*
X1639Y1069D02*
X1639Y1069D01*
X47Y1068D02*
X47Y1068D01*
X1639Y1068D02*
X1639Y1068D01*
X47Y1067D02*
X47Y1067D01*
X1639Y1067D02*
X1639Y1067D01*
X47Y1066D02*
X47Y1066D01*
X1639Y1066D02*
X1639Y1066D01*
X47Y1065D02*
X47Y1065D01*
X1639Y1065D02*
X1639Y1065D01*
X47Y1064D02*
X47Y1064D01*
X1639Y1064D02*
X1639Y1064D01*
X47Y1063D02*
X47Y1063D01*
X1639Y1063D02*
X1639Y1063D01*
X47Y1062D02*
X47Y1062D01*
X1639Y1062D02*
X1639Y1062D01*
X47Y1061D02*
X47Y1061D01*
X1639Y1061D02*
X1639Y1061D01*
X47Y1060D02*
X47Y1060D01*
X1639Y1060D02*
X1639Y1060D01*
X47Y1059D02*
X47Y1059D01*
X1639Y1059D02*
X1639Y1059D01*
X47Y1058D02*
X47Y1058D01*
X1639Y1058D02*
X1639Y1058D01*
X47Y1057D02*
X47Y1057D01*
X1639Y1057D02*
X1639Y1057D01*
X47Y1056D02*
X47Y1056D01*
X1639Y1056D02*
X1639Y1056D01*
X47Y1055D02*
X47Y1055D01*
X1639Y1055D02*
X1639Y1055D01*
X47Y1054D02*
X47Y1054D01*
X1639Y1054D02*
X1639Y1054D01*
X47Y1053D02*
X47Y1053D01*
X1639Y1053D02*
X1639Y1053D01*
X47Y1052D02*
X47Y1052D01*
X1639Y1052D02*
X1639Y1052D01*
X47Y1051D02*
X47Y1051D01*
X1639Y1051D02*
X1639Y1051D01*
X47Y1050D02*
X47Y1050D01*
X1639Y1050D02*
X1639Y1050D01*
X47Y1049D02*
X47Y1049D01*
X1639Y1049D02*
X1639Y1049D01*
X47Y1048D02*
X47Y1048D01*
X1639Y1048D02*
X1639Y1048D01*
X47Y1047D02*
X47Y1047D01*
X1639Y1047D02*
X1639Y1047D01*
X47Y1046D02*
X47Y1046D01*
X1639Y1046D02*
X1639Y1046D01*
X47Y1045D02*
X47Y1045D01*
X1639Y1045D02*
X1639Y1045D01*
X47Y1044D02*
X47Y1044D01*
X1639Y1044D02*
X1639Y1044D01*
X47Y1043D02*
X47Y1043D01*
X1639Y1043D02*
X1639Y1043D01*
X47Y1042D02*
X47Y1042D01*
X1639Y1042D02*
X1639Y1042D01*
X47Y1041D02*
X47Y1041D01*
X1639Y1041D02*
X1639Y1041D01*
X47Y1040D02*
X47Y1040D01*
X1639Y1040D02*
X1639Y1040D01*
X47Y1039D02*
X47Y1039D01*
X1639Y1039D02*
X1639Y1039D01*
X47Y1038D02*
X47Y1038D01*
X1639Y1038D02*
X1639Y1038D01*
X47Y1037D02*
X47Y1037D01*
X1639Y1037D02*
X1639Y1037D01*
X47Y1036D02*
X47Y1036D01*
X1639Y1036D02*
X1639Y1036D01*
X47Y1035D02*
X47Y1035D01*
X1639Y1035D02*
X1639Y1035D01*
X47Y1034D02*
X47Y1034D01*
X1639Y1034D02*
X1639Y1034D01*
X47Y1033D02*
X47Y1033D01*
X1639Y1033D02*
X1639Y1033D01*
X47Y1032D02*
X47Y1032D01*
X1639Y1032D02*
X1639Y1032D01*
X47Y1031D02*
X47Y1031D01*
X1639Y1031D02*
X1639Y1031D01*
X47Y1030D02*
X47Y1030D01*
X1639Y1030D02*
X1639Y1030D01*
X47Y1029D02*
X47Y1029D01*
X1639Y1029D02*
X1639Y1029D01*
X47Y1028D02*
X47Y1028D01*
X1639Y1028D02*
X1639Y1028D01*
X47Y1027D02*
X47Y1027D01*
X1639Y1027D02*
X1639Y1027D01*
X47Y1026D02*
X47Y1026D01*
X1639Y1026D02*
X1639Y1026D01*
X47Y1025D02*
X47Y1025D01*
X1639Y1025D02*
X1639Y1025D01*
X47Y1024D02*
X47Y1024D01*
X1639Y1024D02*
X1639Y1024D01*
X47Y1023D02*
X47Y1023D01*
X1639Y1023D02*
X1639Y1023D01*
X47Y1022D02*
X47Y1022D01*
X1639Y1022D02*
X1639Y1022D01*
X47Y1021D02*
X47Y1021D01*
X1639Y1021D02*
X1639Y1021D01*
X47Y1020D02*
X47Y1020D01*
X1639Y1020D02*
X1639Y1020D01*
X47Y1019D02*
X47Y1019D01*
X1639Y1019D02*
X1639Y1019D01*
X47Y1018D02*
X47Y1018D01*
X1639Y1018D02*
X1639Y1018D01*
X47Y1017D02*
X47Y1017D01*
X1639Y1017D02*
X1639Y1017D01*
X47Y1016D02*
X47Y1016D01*
X1639Y1016D02*
X1639Y1016D01*
X47Y1015D02*
X47Y1015D01*
X1639Y1015D02*
X1639Y1015D01*
X47Y1014D02*
X47Y1014D01*
X1639Y1014D02*
X1639Y1014D01*
X47Y1013D02*
X47Y1013D01*
X1639Y1013D02*
X1639Y1013D01*
X47Y1012D02*
X47Y1012D01*
X1639Y1012D02*
X1639Y1012D01*
X47Y1011D02*
X47Y1011D01*
X1639Y1011D02*
X1639Y1011D01*
X47Y1010D02*
X47Y1010D01*
X1639Y1010D02*
X1639Y1010D01*
X47Y1009D02*
X47Y1009D01*
X1639Y1009D02*
X1639Y1009D01*
X47Y1008D02*
X47Y1008D01*
X1639Y1008D02*
X1639Y1008D01*
X47Y1007D02*
X47Y1007D01*
X1639Y1007D02*
X1639Y1007D01*
X47Y1006D02*
X47Y1006D01*
X1639Y1006D02*
X1639Y1006D01*
X47Y1005D02*
X47Y1005D01*
X1639Y1005D02*
X1639Y1005D01*
X47Y1004D02*
X47Y1004D01*
X1639Y1004D02*
X1639Y1004D01*
X47Y1003D02*
X47Y1003D01*
X1639Y1003D02*
X1639Y1003D01*
X47Y1002D02*
X47Y1002D01*
X1639Y1002D02*
X1639Y1002D01*
X47Y1001D02*
X47Y1001D01*
X1639Y1001D02*
X1639Y1001D01*
X47Y1000D02*
X47Y1000D01*
X1639Y1000D02*
X1639Y1000D01*
X47Y999D02*
X47Y999D01*
X1639Y999D02*
X1639Y999D01*
X47Y998D02*
X47Y998D01*
X1639Y998D02*
X1639Y998D01*
X47Y997D02*
X47Y997D01*
X1639Y997D02*
X1639Y997D01*
X47Y996D02*
X47Y996D01*
X1639Y996D02*
X1639Y996D01*
X47Y995D02*
X47Y995D01*
X1639Y995D02*
X1639Y995D01*
X47Y994D02*
X47Y994D01*
X1639Y994D02*
X1639Y994D01*
X47Y993D02*
X47Y993D01*
X1639Y993D02*
X1639Y993D01*
X47Y992D02*
X47Y992D01*
X1639Y992D02*
X1639Y992D01*
X47Y991D02*
X47Y991D01*
X1639Y991D02*
X1639Y991D01*
X47Y990D02*
X47Y990D01*
X954Y990D02*
X957Y990D01*
X981Y990D02*
X985Y990D01*
X1003Y990D02*
X1030Y990D01*
X1639Y990D02*
X1639Y990D01*
X47Y989D02*
X47Y989D01*
X953Y989D02*
X958Y989D01*
X980Y989D02*
X986Y989D01*
X1003Y989D02*
X1032Y989D01*
X1639Y989D02*
X1639Y989D01*
X47Y988D02*
X47Y988D01*
X953Y988D02*
X958Y988D01*
X980Y988D02*
X986Y988D01*
X1003Y988D02*
X1033Y988D01*
X1639Y988D02*
X1639Y988D01*
X47Y987D02*
X47Y987D01*
X953Y987D02*
X959Y987D01*
X980Y987D02*
X986Y987D01*
X1003Y987D02*
X1034Y987D01*
X1639Y987D02*
X1639Y987D01*
X47Y986D02*
X47Y986D01*
X953Y986D02*
X959Y986D01*
X980Y986D02*
X986Y986D01*
X1003Y986D02*
X1035Y986D01*
X1639Y986D02*
X1639Y986D01*
X47Y985D02*
X47Y985D01*
X953Y985D02*
X959Y985D01*
X980Y985D02*
X986Y985D01*
X1003Y985D02*
X1035Y985D01*
X1639Y985D02*
X1639Y985D01*
X47Y984D02*
X47Y984D01*
X953Y984D02*
X959Y984D01*
X980Y984D02*
X986Y984D01*
X1003Y984D02*
X1036Y984D01*
X1639Y984D02*
X1639Y984D01*
X47Y983D02*
X47Y983D01*
X953Y983D02*
X959Y983D01*
X980Y983D02*
X986Y983D01*
X1003Y983D02*
X1009Y983D01*
X1029Y983D02*
X1036Y983D01*
X1639Y983D02*
X1639Y983D01*
X47Y982D02*
X47Y982D01*
X953Y982D02*
X959Y982D01*
X980Y982D02*
X986Y982D01*
X1003Y982D02*
X1009Y982D01*
X1030Y982D02*
X1036Y982D01*
X1639Y982D02*
X1639Y982D01*
X47Y981D02*
X47Y981D01*
X953Y981D02*
X959Y981D01*
X980Y981D02*
X986Y981D01*
X1003Y981D02*
X1009Y981D01*
X1030Y981D02*
X1036Y981D01*
X1639Y981D02*
X1639Y981D01*
X47Y980D02*
X47Y980D01*
X953Y980D02*
X959Y980D01*
X980Y980D02*
X986Y980D01*
X1003Y980D02*
X1009Y980D01*
X1030Y980D02*
X1036Y980D01*
X1639Y980D02*
X1639Y980D01*
X47Y979D02*
X47Y979D01*
X953Y979D02*
X959Y979D01*
X980Y979D02*
X986Y979D01*
X1003Y979D02*
X1009Y979D01*
X1030Y979D02*
X1036Y979D01*
X1639Y979D02*
X1639Y979D01*
X47Y978D02*
X47Y978D01*
X953Y978D02*
X959Y978D01*
X980Y978D02*
X986Y978D01*
X1003Y978D02*
X1009Y978D01*
X1030Y978D02*
X1036Y978D01*
X1639Y978D02*
X1639Y978D01*
X47Y977D02*
X47Y977D01*
X953Y977D02*
X959Y977D01*
X980Y977D02*
X986Y977D01*
X1003Y977D02*
X1009Y977D01*
X1030Y977D02*
X1036Y977D01*
X1639Y977D02*
X1639Y977D01*
X47Y976D02*
X47Y976D01*
X953Y976D02*
X959Y976D01*
X980Y976D02*
X986Y976D01*
X1003Y976D02*
X1009Y976D01*
X1030Y976D02*
X1036Y976D01*
X1639Y976D02*
X1639Y976D01*
X47Y975D02*
X47Y975D01*
X953Y975D02*
X959Y975D01*
X980Y975D02*
X986Y975D01*
X1003Y975D02*
X1009Y975D01*
X1030Y975D02*
X1036Y975D01*
X1639Y975D02*
X1639Y975D01*
X47Y974D02*
X47Y974D01*
X953Y974D02*
X959Y974D01*
X980Y974D02*
X986Y974D01*
X1003Y974D02*
X1009Y974D01*
X1030Y974D02*
X1036Y974D01*
X1639Y974D02*
X1639Y974D01*
X47Y973D02*
X47Y973D01*
X953Y973D02*
X959Y973D01*
X980Y973D02*
X986Y973D01*
X1003Y973D02*
X1009Y973D01*
X1030Y973D02*
X1036Y973D01*
X1639Y973D02*
X1639Y973D01*
X47Y972D02*
X47Y972D01*
X953Y972D02*
X959Y972D01*
X980Y972D02*
X986Y972D01*
X1003Y972D02*
X1009Y972D01*
X1030Y972D02*
X1036Y972D01*
X1639Y972D02*
X1639Y972D01*
X47Y971D02*
X47Y971D01*
X953Y971D02*
X959Y971D01*
X980Y971D02*
X986Y971D01*
X1003Y971D02*
X1009Y971D01*
X1030Y971D02*
X1036Y971D01*
X1639Y971D02*
X1639Y971D01*
X47Y970D02*
X47Y970D01*
X953Y970D02*
X959Y970D01*
X980Y970D02*
X986Y970D01*
X1003Y970D02*
X1009Y970D01*
X1030Y970D02*
X1036Y970D01*
X1639Y970D02*
X1639Y970D01*
X47Y969D02*
X47Y969D01*
X953Y969D02*
X959Y969D01*
X980Y969D02*
X986Y969D01*
X1003Y969D02*
X1009Y969D01*
X1030Y969D02*
X1036Y969D01*
X1639Y969D02*
X1639Y969D01*
X47Y968D02*
X47Y968D01*
X953Y968D02*
X959Y968D01*
X980Y968D02*
X986Y968D01*
X1003Y968D02*
X1009Y968D01*
X1030Y968D02*
X1036Y968D01*
X1639Y968D02*
X1639Y968D01*
X47Y967D02*
X47Y967D01*
X953Y967D02*
X959Y967D01*
X980Y967D02*
X986Y967D01*
X1003Y967D02*
X1009Y967D01*
X1030Y967D02*
X1036Y967D01*
X1639Y967D02*
X1639Y967D01*
X47Y966D02*
X47Y966D01*
X953Y966D02*
X959Y966D01*
X980Y966D02*
X986Y966D01*
X1003Y966D02*
X1009Y966D01*
X1030Y966D02*
X1036Y966D01*
X1639Y966D02*
X1639Y966D01*
X47Y965D02*
X47Y965D01*
X953Y965D02*
X959Y965D01*
X980Y965D02*
X986Y965D01*
X1003Y965D02*
X1009Y965D01*
X1028Y965D02*
X1036Y965D01*
X1639Y965D02*
X1639Y965D01*
X47Y964D02*
X47Y964D01*
X953Y964D02*
X959Y964D01*
X980Y964D02*
X986Y964D01*
X1003Y964D02*
X1036Y964D01*
X1639Y964D02*
X1639Y964D01*
X47Y963D02*
X47Y963D01*
X953Y963D02*
X959Y963D01*
X980Y963D02*
X986Y963D01*
X1003Y963D02*
X1035Y963D01*
X1639Y963D02*
X1639Y963D01*
X47Y962D02*
X47Y962D01*
X953Y962D02*
X959Y962D01*
X980Y962D02*
X986Y962D01*
X1003Y962D02*
X1034Y962D01*
X1639Y962D02*
X1639Y962D01*
X47Y961D02*
X47Y961D01*
X953Y961D02*
X959Y961D01*
X980Y961D02*
X986Y961D01*
X1003Y961D02*
X1034Y961D01*
X1639Y961D02*
X1639Y961D01*
X47Y960D02*
X47Y960D01*
X953Y960D02*
X959Y960D01*
X980Y960D02*
X986Y960D01*
X1003Y960D02*
X1033Y960D01*
X1639Y960D02*
X1639Y960D01*
X47Y959D02*
X47Y959D01*
X953Y959D02*
X959Y959D01*
X980Y959D02*
X986Y959D01*
X1003Y959D02*
X1031Y959D01*
X1639Y959D02*
X1639Y959D01*
X47Y958D02*
X47Y958D01*
X953Y958D02*
X959Y958D01*
X980Y958D02*
X986Y958D01*
X1003Y958D02*
X1029Y958D01*
X1639Y958D02*
X1639Y958D01*
X47Y957D02*
X47Y957D01*
X953Y957D02*
X959Y957D01*
X980Y957D02*
X986Y957D01*
X1003Y957D02*
X1009Y957D01*
X1639Y957D02*
X1639Y957D01*
X47Y956D02*
X47Y956D01*
X953Y956D02*
X959Y956D01*
X980Y956D02*
X986Y956D01*
X1003Y956D02*
X1009Y956D01*
X1639Y956D02*
X1639Y956D01*
X47Y955D02*
X47Y955D01*
X953Y955D02*
X959Y955D01*
X980Y955D02*
X986Y955D01*
X1003Y955D02*
X1009Y955D01*
X1639Y955D02*
X1639Y955D01*
X47Y954D02*
X47Y954D01*
X953Y954D02*
X959Y954D01*
X980Y954D02*
X986Y954D01*
X1003Y954D02*
X1009Y954D01*
X1639Y954D02*
X1639Y954D01*
X47Y953D02*
X47Y953D01*
X953Y953D02*
X959Y953D01*
X980Y953D02*
X986Y953D01*
X1003Y953D02*
X1009Y953D01*
X1639Y953D02*
X1639Y953D01*
X47Y952D02*
X47Y952D01*
X953Y952D02*
X959Y952D01*
X980Y952D02*
X986Y952D01*
X1003Y952D02*
X1009Y952D01*
X1639Y952D02*
X1639Y952D01*
X47Y951D02*
X47Y951D01*
X953Y951D02*
X959Y951D01*
X980Y951D02*
X986Y951D01*
X1003Y951D02*
X1009Y951D01*
X1639Y951D02*
X1639Y951D01*
X47Y950D02*
X47Y950D01*
X953Y950D02*
X959Y950D01*
X980Y950D02*
X986Y950D01*
X1003Y950D02*
X1009Y950D01*
X1639Y950D02*
X1639Y950D01*
X47Y949D02*
X47Y949D01*
X953Y949D02*
X959Y949D01*
X980Y949D02*
X986Y949D01*
X1003Y949D02*
X1009Y949D01*
X1639Y949D02*
X1639Y949D01*
X47Y948D02*
X47Y948D01*
X953Y948D02*
X959Y948D01*
X980Y948D02*
X986Y948D01*
X1003Y948D02*
X1009Y948D01*
X1639Y948D02*
X1639Y948D01*
X47Y947D02*
X47Y947D01*
X953Y947D02*
X959Y947D01*
X980Y947D02*
X986Y947D01*
X1003Y947D02*
X1009Y947D01*
X1639Y947D02*
X1639Y947D01*
X47Y946D02*
X47Y946D01*
X953Y946D02*
X959Y946D01*
X980Y946D02*
X986Y946D01*
X1003Y946D02*
X1009Y946D01*
X1639Y946D02*
X1639Y946D01*
X47Y945D02*
X47Y945D01*
X953Y945D02*
X960Y945D01*
X979Y945D02*
X986Y945D01*
X1003Y945D02*
X1009Y945D01*
X1639Y945D02*
X1639Y945D01*
X47Y944D02*
X47Y944D01*
X953Y944D02*
X961Y944D01*
X977Y944D02*
X986Y944D01*
X1003Y944D02*
X1009Y944D01*
X1639Y944D02*
X1639Y944D01*
X47Y943D02*
X47Y943D01*
X953Y943D02*
X985Y943D01*
X1003Y943D02*
X1009Y943D01*
X1639Y943D02*
X1639Y943D01*
X47Y942D02*
X47Y942D01*
X954Y942D02*
X985Y942D01*
X1003Y942D02*
X1009Y942D01*
X1639Y942D02*
X1639Y942D01*
X47Y941D02*
X47Y941D01*
X955Y941D02*
X984Y941D01*
X1003Y941D02*
X1009Y941D01*
X1639Y941D02*
X1639Y941D01*
X47Y940D02*
X47Y940D01*
X956Y940D02*
X983Y940D01*
X1003Y940D02*
X1009Y940D01*
X1639Y940D02*
X1639Y940D01*
X47Y939D02*
X47Y939D01*
X957Y939D02*
X982Y939D01*
X1003Y939D02*
X1008Y939D01*
X1639Y939D02*
X1639Y939D01*
X47Y938D02*
X47Y938D01*
X958Y938D02*
X980Y938D01*
X1004Y938D02*
X1008Y938D01*
X1639Y938D02*
X1639Y938D01*
X47Y937D02*
X47Y937D01*
X961Y937D02*
X977Y937D01*
X1005Y937D02*
X1006Y937D01*
X1639Y937D02*
X1639Y937D01*
X47Y936D02*
X47Y936D01*
X1639Y936D02*
X1639Y936D01*
X47Y935D02*
X47Y935D01*
X1639Y935D02*
X1639Y935D01*
X47Y934D02*
X47Y934D01*
X1639Y934D02*
X1639Y934D01*
X47Y933D02*
X47Y933D01*
X1639Y933D02*
X1639Y933D01*
X47Y932D02*
X47Y932D01*
X1639Y932D02*
X1639Y932D01*
X47Y931D02*
X47Y931D01*
X1639Y931D02*
X1639Y931D01*
X47Y930D02*
X47Y930D01*
X1639Y930D02*
X1639Y930D01*
X47Y929D02*
X47Y929D01*
X1639Y929D02*
X1639Y929D01*
X47Y928D02*
X47Y928D01*
X1639Y928D02*
X1639Y928D01*
X47Y927D02*
X47Y927D01*
X1639Y927D02*
X1639Y927D01*
X47Y926D02*
X47Y926D01*
X1639Y926D02*
X1639Y926D01*
X47Y925D02*
X47Y925D01*
X1639Y925D02*
X1639Y925D01*
X47Y924D02*
X47Y924D01*
X1639Y924D02*
X1639Y924D01*
X47Y923D02*
X47Y923D01*
X1639Y923D02*
X1639Y923D01*
X47Y922D02*
X47Y922D01*
X1639Y922D02*
X1639Y922D01*
X47Y921D02*
X47Y921D01*
X1639Y921D02*
X1639Y921D01*
X47Y920D02*
X47Y920D01*
X1639Y920D02*
X1639Y920D01*
X47Y919D02*
X47Y919D01*
X1639Y919D02*
X1639Y919D01*
X47Y918D02*
X47Y918D01*
X1639Y918D02*
X1639Y918D01*
X47Y917D02*
X47Y917D01*
X1639Y917D02*
X1639Y917D01*
X47Y916D02*
X47Y916D01*
X1639Y916D02*
X1639Y916D01*
X47Y915D02*
X47Y915D01*
X1639Y915D02*
X1639Y915D01*
X47Y914D02*
X47Y914D01*
X1639Y914D02*
X1639Y914D01*
X47Y913D02*
X47Y913D01*
X1639Y913D02*
X1639Y913D01*
X47Y912D02*
X47Y912D01*
X1639Y912D02*
X1639Y912D01*
X47Y911D02*
X47Y911D01*
X1639Y911D02*
X1639Y911D01*
X47Y910D02*
X47Y910D01*
X1639Y910D02*
X1639Y910D01*
X47Y909D02*
X47Y909D01*
X1639Y909D02*
X1639Y909D01*
X47Y908D02*
X47Y908D01*
X1639Y908D02*
X1639Y908D01*
X47Y907D02*
X47Y907D01*
X1639Y907D02*
X1639Y907D01*
X47Y906D02*
X47Y906D01*
X1639Y906D02*
X1639Y906D01*
X47Y905D02*
X47Y905D01*
X1639Y905D02*
X1639Y905D01*
X47Y904D02*
X47Y904D01*
X1639Y904D02*
X1639Y904D01*
X47Y903D02*
X47Y903D01*
X1639Y903D02*
X1639Y903D01*
X47Y902D02*
X47Y902D01*
X1639Y902D02*
X1639Y902D01*
X47Y901D02*
X47Y901D01*
X1639Y901D02*
X1639Y901D01*
X47Y900D02*
X47Y900D01*
X1639Y900D02*
X1639Y900D01*
X47Y899D02*
X47Y899D01*
X1639Y899D02*
X1639Y899D01*
X47Y898D02*
X47Y898D01*
X1639Y898D02*
X1639Y898D01*
X47Y897D02*
X47Y897D01*
X1639Y897D02*
X1639Y897D01*
X47Y896D02*
X47Y896D01*
X1639Y896D02*
X1639Y896D01*
X47Y895D02*
X47Y895D01*
X1639Y895D02*
X1639Y895D01*
X47Y894D02*
X47Y894D01*
X1639Y894D02*
X1639Y894D01*
X47Y893D02*
X47Y893D01*
X1639Y893D02*
X1639Y893D01*
X47Y892D02*
X47Y892D01*
X1639Y892D02*
X1639Y892D01*
X47Y891D02*
X47Y891D01*
X1639Y891D02*
X1639Y891D01*
X47Y890D02*
X47Y890D01*
X1639Y890D02*
X1639Y890D01*
X47Y889D02*
X47Y889D01*
X1639Y889D02*
X1639Y889D01*
X47Y888D02*
X47Y888D01*
X1639Y888D02*
X1639Y888D01*
X47Y887D02*
X47Y887D01*
X1639Y887D02*
X1639Y887D01*
X47Y886D02*
X47Y886D01*
X1639Y886D02*
X1639Y886D01*
X47Y885D02*
X47Y885D01*
X1639Y885D02*
X1639Y885D01*
X47Y884D02*
X47Y884D01*
X1639Y884D02*
X1639Y884D01*
X47Y883D02*
X47Y883D01*
X1639Y883D02*
X1639Y883D01*
X47Y882D02*
X47Y882D01*
X1639Y882D02*
X1639Y882D01*
X47Y881D02*
X47Y881D01*
X1639Y881D02*
X1639Y881D01*
X47Y880D02*
X47Y880D01*
X1639Y880D02*
X1639Y880D01*
X47Y879D02*
X47Y879D01*
X1639Y879D02*
X1639Y879D01*
X47Y878D02*
X47Y878D01*
X1639Y878D02*
X1639Y878D01*
X47Y877D02*
X47Y877D01*
X1639Y877D02*
X1639Y877D01*
X47Y876D02*
X47Y876D01*
X1639Y876D02*
X1639Y876D01*
X47Y875D02*
X47Y875D01*
X1639Y875D02*
X1639Y875D01*
X47Y874D02*
X47Y874D01*
X1639Y874D02*
X1639Y874D01*
X47Y873D02*
X47Y873D01*
X1639Y873D02*
X1639Y873D01*
X47Y872D02*
X47Y872D01*
X1639Y872D02*
X1639Y872D01*
X47Y871D02*
X47Y871D01*
X1639Y871D02*
X1639Y871D01*
X47Y870D02*
X47Y870D01*
X1639Y870D02*
X1639Y870D01*
X47Y869D02*
X47Y869D01*
X1639Y869D02*
X1639Y869D01*
X47Y868D02*
X47Y868D01*
X1639Y868D02*
X1639Y868D01*
X47Y867D02*
X47Y867D01*
X1639Y867D02*
X1639Y867D01*
X47Y866D02*
X47Y866D01*
X1639Y866D02*
X1639Y866D01*
X47Y865D02*
X47Y865D01*
X1639Y865D02*
X1639Y865D01*
X47Y864D02*
X47Y864D01*
X1639Y864D02*
X1639Y864D01*
X47Y863D02*
X47Y863D01*
X1639Y863D02*
X1639Y863D01*
X47Y862D02*
X47Y862D01*
X1639Y862D02*
X1639Y862D01*
X47Y861D02*
X47Y861D01*
X1639Y861D02*
X1639Y861D01*
X47Y860D02*
X47Y860D01*
X1639Y860D02*
X1639Y860D01*
X47Y859D02*
X47Y859D01*
X1639Y859D02*
X1639Y859D01*
X47Y858D02*
X47Y858D01*
X1639Y858D02*
X1639Y858D01*
X47Y857D02*
X47Y857D01*
X1639Y857D02*
X1639Y857D01*
X47Y856D02*
X47Y856D01*
X1639Y856D02*
X1639Y856D01*
X47Y855D02*
X47Y855D01*
X1639Y855D02*
X1639Y855D01*
X47Y854D02*
X47Y854D01*
X1639Y854D02*
X1639Y854D01*
X47Y853D02*
X47Y853D01*
X1639Y853D02*
X1639Y853D01*
X47Y852D02*
X47Y852D01*
X1639Y852D02*
X1639Y852D01*
X47Y851D02*
X47Y851D01*
X1639Y851D02*
X1639Y851D01*
X47Y850D02*
X47Y850D01*
X1639Y850D02*
X1639Y850D01*
X47Y849D02*
X47Y849D01*
X1639Y849D02*
X1639Y849D01*
X47Y848D02*
X47Y848D01*
X1639Y848D02*
X1639Y848D01*
X47Y847D02*
X47Y847D01*
X1639Y847D02*
X1639Y847D01*
X47Y846D02*
X47Y846D01*
X1639Y846D02*
X1639Y846D01*
X47Y845D02*
X47Y845D01*
X1639Y845D02*
X1639Y845D01*
X47Y844D02*
X47Y844D01*
X1639Y844D02*
X1639Y844D01*
X47Y843D02*
X47Y843D01*
X1639Y843D02*
X1639Y843D01*
X47Y842D02*
X47Y842D01*
X1639Y842D02*
X1639Y842D01*
X47Y841D02*
X47Y841D01*
X1639Y841D02*
X1639Y841D01*
X47Y840D02*
X47Y840D01*
X1639Y840D02*
X1639Y840D01*
X47Y839D02*
X47Y839D01*
X1639Y839D02*
X1639Y839D01*
X47Y838D02*
X47Y838D01*
X1639Y838D02*
X1639Y838D01*
X47Y837D02*
X47Y837D01*
X1639Y837D02*
X1639Y837D01*
X47Y836D02*
X47Y836D01*
X1639Y836D02*
X1639Y836D01*
X47Y835D02*
X47Y835D01*
X1639Y835D02*
X1639Y835D01*
X47Y834D02*
X47Y834D01*
X1639Y834D02*
X1639Y834D01*
X47Y833D02*
X47Y833D01*
X1639Y833D02*
X1639Y833D01*
X47Y832D02*
X47Y832D01*
X1639Y832D02*
X1639Y832D01*
X47Y831D02*
X47Y831D01*
X1639Y831D02*
X1639Y831D01*
X47Y830D02*
X47Y830D01*
X1639Y830D02*
X1639Y830D01*
X47Y829D02*
X47Y829D01*
X1639Y829D02*
X1639Y829D01*
X47Y828D02*
X47Y828D01*
X1639Y828D02*
X1639Y828D01*
X47Y827D02*
X47Y827D01*
X1639Y827D02*
X1639Y827D01*
X47Y826D02*
X47Y826D01*
X1639Y826D02*
X1639Y826D01*
X47Y825D02*
X47Y825D01*
X1639Y825D02*
X1639Y825D01*
X47Y824D02*
X47Y824D01*
X1639Y824D02*
X1639Y824D01*
X47Y823D02*
X47Y823D01*
X1639Y823D02*
X1639Y823D01*
X47Y822D02*
X47Y822D01*
X1639Y822D02*
X1639Y822D01*
X47Y821D02*
X47Y821D01*
X1639Y821D02*
X1639Y821D01*
X47Y820D02*
X47Y820D01*
X1639Y820D02*
X1639Y820D01*
X47Y819D02*
X47Y819D01*
X1639Y819D02*
X1639Y819D01*
X47Y818D02*
X47Y818D01*
X1639Y818D02*
X1639Y818D01*
X47Y817D02*
X47Y817D01*
X1639Y817D02*
X1639Y817D01*
X47Y816D02*
X47Y816D01*
X1639Y816D02*
X1639Y816D01*
X47Y815D02*
X47Y815D01*
X1639Y815D02*
X1639Y815D01*
X47Y814D02*
X47Y814D01*
X1639Y814D02*
X1639Y814D01*
X47Y813D02*
X47Y813D01*
X1639Y813D02*
X1639Y813D01*
X47Y812D02*
X47Y812D01*
X1639Y812D02*
X1639Y812D01*
X47Y811D02*
X47Y811D01*
X1639Y811D02*
X1639Y811D01*
X47Y810D02*
X47Y810D01*
X1639Y810D02*
X1639Y810D01*
X47Y809D02*
X47Y809D01*
X1639Y809D02*
X1639Y809D01*
X47Y808D02*
X47Y808D01*
X1639Y808D02*
X1639Y808D01*
X47Y807D02*
X47Y807D01*
X1639Y807D02*
X1639Y807D01*
X47Y806D02*
X47Y806D01*
X1639Y806D02*
X1639Y806D01*
X47Y805D02*
X47Y805D01*
X1639Y805D02*
X1639Y805D01*
X47Y804D02*
X47Y804D01*
X1639Y804D02*
X1639Y804D01*
X47Y803D02*
X47Y803D01*
X1639Y803D02*
X1639Y803D01*
X47Y802D02*
X47Y802D01*
X1639Y802D02*
X1639Y802D01*
X47Y801D02*
X47Y801D01*
X1639Y801D02*
X1639Y801D01*
X47Y800D02*
X47Y800D01*
X1639Y800D02*
X1639Y800D01*
X47Y799D02*
X47Y799D01*
X1639Y799D02*
X1639Y799D01*
X47Y798D02*
X47Y798D01*
X1639Y798D02*
X1639Y798D01*
X47Y797D02*
X47Y797D01*
X1639Y797D02*
X1639Y797D01*
X47Y796D02*
X47Y796D01*
X1639Y796D02*
X1639Y796D01*
X47Y795D02*
X47Y795D01*
X1639Y795D02*
X1639Y795D01*
X47Y794D02*
X47Y794D01*
X1639Y794D02*
X1639Y794D01*
X47Y793D02*
X47Y793D01*
X1639Y793D02*
X1639Y793D01*
X47Y792D02*
X47Y792D01*
X1639Y792D02*
X1639Y792D01*
X47Y791D02*
X47Y791D01*
X1639Y791D02*
X1639Y791D01*
X47Y790D02*
X47Y790D01*
X1639Y790D02*
X1639Y790D01*
X47Y789D02*
X47Y789D01*
X1639Y789D02*
X1639Y789D01*
X47Y788D02*
X47Y788D01*
X1639Y788D02*
X1639Y788D01*
X47Y787D02*
X47Y787D01*
X618Y787D02*
X641Y787D01*
X668Y787D02*
X692Y787D01*
X718Y787D02*
X748Y787D01*
X771Y787D02*
X771Y787D01*
X798Y787D02*
X798Y787D01*
X1204Y787D02*
X1212Y787D01*
X1234Y787D02*
X1234Y787D01*
X1254Y787D02*
X1285Y787D01*
X1307Y787D02*
X1307Y787D01*
X1335Y787D02*
X1335Y787D01*
X1355Y787D02*
X1388Y787D01*
X1639Y787D02*
X1639Y787D01*
X47Y786D02*
X47Y786D01*
X617Y786D02*
X645Y786D01*
X667Y786D02*
X695Y786D01*
X718Y786D02*
X750Y786D01*
X769Y786D02*
X773Y786D01*
X797Y786D02*
X800Y786D01*
X1204Y786D02*
X1213Y786D01*
X1232Y786D02*
X1236Y786D01*
X1254Y786D02*
X1287Y786D01*
X1305Y786D02*
X1309Y786D01*
X1333Y786D02*
X1337Y786D01*
X1354Y786D02*
X1388Y786D01*
X1639Y786D02*
X1639Y786D01*
X47Y785D02*
X47Y785D01*
X617Y785D02*
X647Y785D01*
X667Y785D02*
X697Y785D01*
X718Y785D02*
X751Y785D01*
X768Y785D02*
X774Y785D01*
X796Y785D02*
X801Y785D01*
X1204Y785D02*
X1213Y785D01*
X1232Y785D02*
X1237Y785D01*
X1254Y785D02*
X1287Y785D01*
X1305Y785D02*
X1310Y785D01*
X1332Y785D02*
X1338Y785D01*
X1354Y785D02*
X1388Y785D01*
X1639Y785D02*
X1639Y785D01*
X47Y784D02*
X47Y784D01*
X617Y784D02*
X648Y784D01*
X667Y784D02*
X698Y784D01*
X718Y784D02*
X751Y784D01*
X768Y784D02*
X774Y784D01*
X796Y784D02*
X801Y784D01*
X1204Y784D02*
X1213Y784D01*
X1232Y784D02*
X1237Y784D01*
X1254Y784D02*
X1288Y784D01*
X1304Y784D02*
X1311Y784D01*
X1331Y784D02*
X1338Y784D01*
X1354Y784D02*
X1388Y784D01*
X1639Y784D02*
X1639Y784D01*
X47Y783D02*
X47Y783D01*
X617Y783D02*
X649Y783D01*
X667Y783D02*
X699Y783D01*
X718Y783D02*
X751Y783D01*
X768Y783D02*
X774Y783D01*
X795Y783D02*
X801Y783D01*
X1204Y783D02*
X1214Y783D01*
X1231Y783D02*
X1237Y783D01*
X1254Y783D02*
X1288Y783D01*
X1304Y783D02*
X1311Y783D01*
X1331Y783D02*
X1338Y783D01*
X1354Y783D02*
X1388Y783D01*
X1639Y783D02*
X1639Y783D01*
X47Y782D02*
X47Y782D01*
X617Y782D02*
X649Y782D01*
X667Y782D02*
X699Y782D01*
X718Y782D02*
X751Y782D01*
X768Y782D02*
X774Y782D01*
X795Y782D02*
X801Y782D01*
X1204Y782D02*
X1214Y782D01*
X1231Y782D02*
X1237Y782D01*
X1254Y782D02*
X1287Y782D01*
X1305Y782D02*
X1312Y782D01*
X1330Y782D02*
X1337Y782D01*
X1354Y782D02*
X1388Y782D01*
X1639Y782D02*
X1639Y782D01*
X47Y781D02*
X47Y781D01*
X617Y781D02*
X650Y781D01*
X667Y781D02*
X700Y781D01*
X718Y781D02*
X750Y781D01*
X768Y781D02*
X774Y781D01*
X795Y781D02*
X801Y781D01*
X1204Y781D02*
X1215Y781D01*
X1231Y781D02*
X1237Y781D01*
X1254Y781D02*
X1286Y781D01*
X1305Y781D02*
X1312Y781D01*
X1330Y781D02*
X1337Y781D01*
X1354Y781D02*
X1388Y781D01*
X1639Y781D02*
X1639Y781D01*
X47Y780D02*
X47Y780D01*
X617Y780D02*
X624Y780D01*
X642Y780D02*
X650Y780D01*
X667Y780D02*
X674Y780D01*
X692Y780D02*
X700Y780D01*
X718Y780D02*
X724Y780D01*
X768Y780D02*
X774Y780D01*
X795Y780D02*
X801Y780D01*
X1204Y780D02*
X1215Y780D01*
X1231Y780D02*
X1237Y780D01*
X1254Y780D02*
X1260Y780D01*
X1306Y780D02*
X1313Y780D01*
X1329Y780D02*
X1336Y780D01*
X1354Y780D02*
X1361Y780D01*
X1368Y780D02*
X1375Y780D01*
X1382Y780D02*
X1388Y780D01*
X1639Y780D02*
X1639Y780D01*
X47Y779D02*
X47Y779D01*
X617Y779D02*
X623Y779D01*
X644Y779D02*
X651Y779D01*
X667Y779D02*
X674Y779D01*
X694Y779D02*
X701Y779D01*
X718Y779D02*
X724Y779D01*
X768Y779D02*
X774Y779D01*
X795Y779D02*
X801Y779D01*
X1204Y779D02*
X1216Y779D01*
X1231Y779D02*
X1237Y779D01*
X1254Y779D02*
X1260Y779D01*
X1306Y779D02*
X1314Y779D01*
X1329Y779D02*
X1336Y779D01*
X1354Y779D02*
X1361Y779D01*
X1368Y779D02*
X1374Y779D01*
X1382Y779D02*
X1388Y779D01*
X1639Y779D02*
X1639Y779D01*
X47Y778D02*
X47Y778D01*
X617Y778D02*
X623Y778D01*
X644Y778D02*
X651Y778D01*
X667Y778D02*
X674Y778D01*
X695Y778D02*
X701Y778D01*
X718Y778D02*
X724Y778D01*
X768Y778D02*
X774Y778D01*
X795Y778D02*
X801Y778D01*
X1204Y778D02*
X1216Y778D01*
X1231Y778D02*
X1237Y778D01*
X1254Y778D02*
X1260Y778D01*
X1307Y778D02*
X1314Y778D01*
X1328Y778D02*
X1335Y778D01*
X1354Y778D02*
X1360Y778D01*
X1368Y778D02*
X1374Y778D01*
X1382Y778D02*
X1388Y778D01*
X1639Y778D02*
X1639Y778D01*
X47Y777D02*
X47Y777D01*
X617Y777D02*
X623Y777D01*
X645Y777D02*
X651Y777D01*
X667Y777D02*
X674Y777D01*
X695Y777D02*
X701Y777D01*
X718Y777D02*
X724Y777D01*
X768Y777D02*
X774Y777D01*
X795Y777D02*
X801Y777D01*
X1204Y777D02*
X1217Y777D01*
X1231Y777D02*
X1237Y777D01*
X1254Y777D02*
X1260Y777D01*
X1308Y777D02*
X1315Y777D01*
X1327Y777D02*
X1335Y777D01*
X1355Y777D02*
X1360Y777D01*
X1368Y777D02*
X1374Y777D01*
X1382Y777D02*
X1388Y777D01*
X1639Y777D02*
X1639Y777D01*
X47Y776D02*
X47Y776D01*
X617Y776D02*
X623Y776D01*
X645Y776D02*
X651Y776D01*
X667Y776D02*
X674Y776D01*
X695Y776D02*
X701Y776D01*
X718Y776D02*
X724Y776D01*
X768Y776D02*
X774Y776D01*
X795Y776D02*
X801Y776D01*
X1204Y776D02*
X1217Y776D01*
X1231Y776D02*
X1237Y776D01*
X1254Y776D02*
X1260Y776D01*
X1308Y776D02*
X1315Y776D01*
X1327Y776D02*
X1334Y776D01*
X1355Y776D02*
X1360Y776D01*
X1368Y776D02*
X1374Y776D01*
X1383Y776D02*
X1388Y776D01*
X1639Y776D02*
X1639Y776D01*
X47Y775D02*
X47Y775D01*
X617Y775D02*
X623Y775D01*
X645Y775D02*
X651Y775D01*
X667Y775D02*
X674Y775D01*
X695Y775D02*
X701Y775D01*
X718Y775D02*
X724Y775D01*
X768Y775D02*
X774Y775D01*
X795Y775D02*
X801Y775D01*
X1204Y775D02*
X1217Y775D01*
X1231Y775D02*
X1237Y775D01*
X1254Y775D02*
X1260Y775D01*
X1309Y775D02*
X1316Y775D01*
X1326Y775D02*
X1333Y775D01*
X1356Y775D02*
X1359Y775D01*
X1368Y775D02*
X1374Y775D01*
X1383Y775D02*
X1387Y775D01*
X1639Y775D02*
X1639Y775D01*
X47Y774D02*
X47Y774D01*
X617Y774D02*
X623Y774D01*
X645Y774D02*
X651Y774D01*
X667Y774D02*
X674Y774D01*
X695Y774D02*
X701Y774D01*
X718Y774D02*
X724Y774D01*
X768Y774D02*
X774Y774D01*
X795Y774D02*
X801Y774D01*
X1204Y774D02*
X1218Y774D01*
X1231Y774D02*
X1237Y774D01*
X1254Y774D02*
X1260Y774D01*
X1309Y774D02*
X1316Y774D01*
X1326Y774D02*
X1333Y774D01*
X1368Y774D02*
X1374Y774D01*
X1639Y774D02*
X1639Y774D01*
X47Y773D02*
X47Y773D01*
X617Y773D02*
X623Y773D01*
X645Y773D02*
X651Y773D01*
X667Y773D02*
X674Y773D01*
X695Y773D02*
X701Y773D01*
X718Y773D02*
X724Y773D01*
X768Y773D02*
X774Y773D01*
X795Y773D02*
X801Y773D01*
X1204Y773D02*
X1210Y773D01*
X1212Y773D02*
X1218Y773D01*
X1231Y773D02*
X1237Y773D01*
X1254Y773D02*
X1260Y773D01*
X1310Y773D02*
X1317Y773D01*
X1325Y773D02*
X1332Y773D01*
X1368Y773D02*
X1374Y773D01*
X1639Y773D02*
X1639Y773D01*
X47Y772D02*
X47Y772D01*
X617Y772D02*
X623Y772D01*
X645Y772D02*
X651Y772D01*
X667Y772D02*
X674Y772D01*
X695Y772D02*
X701Y772D01*
X718Y772D02*
X724Y772D01*
X768Y772D02*
X774Y772D01*
X795Y772D02*
X801Y772D01*
X1204Y772D02*
X1210Y772D01*
X1212Y772D02*
X1219Y772D01*
X1231Y772D02*
X1237Y772D01*
X1254Y772D02*
X1260Y772D01*
X1310Y772D02*
X1318Y772D01*
X1324Y772D02*
X1332Y772D01*
X1368Y772D02*
X1374Y772D01*
X1639Y772D02*
X1639Y772D01*
X47Y771D02*
X47Y771D01*
X617Y771D02*
X623Y771D01*
X645Y771D02*
X651Y771D01*
X667Y771D02*
X674Y771D01*
X694Y771D02*
X701Y771D01*
X718Y771D02*
X724Y771D01*
X768Y771D02*
X774Y771D01*
X795Y771D02*
X801Y771D01*
X1204Y771D02*
X1210Y771D01*
X1212Y771D02*
X1219Y771D01*
X1231Y771D02*
X1237Y771D01*
X1254Y771D02*
X1260Y771D01*
X1311Y771D02*
X1318Y771D01*
X1324Y771D02*
X1331Y771D01*
X1368Y771D02*
X1374Y771D01*
X1639Y771D02*
X1639Y771D01*
X47Y770D02*
X47Y770D01*
X617Y770D02*
X623Y770D01*
X645Y770D02*
X651Y770D01*
X667Y770D02*
X674Y770D01*
X693Y770D02*
X701Y770D01*
X718Y770D02*
X724Y770D01*
X768Y770D02*
X775Y770D01*
X794Y770D02*
X801Y770D01*
X1204Y770D02*
X1210Y770D01*
X1213Y770D02*
X1220Y770D01*
X1231Y770D02*
X1237Y770D01*
X1254Y770D02*
X1260Y770D01*
X1312Y770D02*
X1319Y770D01*
X1323Y770D02*
X1330Y770D01*
X1368Y770D02*
X1374Y770D01*
X1639Y770D02*
X1639Y770D01*
X47Y769D02*
X47Y769D01*
X617Y769D02*
X623Y769D01*
X645Y769D02*
X651Y769D01*
X667Y769D02*
X700Y769D01*
X718Y769D02*
X724Y769D01*
X769Y769D02*
X775Y769D01*
X794Y769D02*
X801Y769D01*
X1204Y769D02*
X1210Y769D01*
X1213Y769D02*
X1220Y769D01*
X1231Y769D02*
X1237Y769D01*
X1254Y769D02*
X1260Y769D01*
X1312Y769D02*
X1319Y769D01*
X1323Y769D02*
X1330Y769D01*
X1368Y769D02*
X1374Y769D01*
X1639Y769D02*
X1639Y769D01*
X47Y768D02*
X47Y768D01*
X617Y768D02*
X623Y768D01*
X645Y768D02*
X651Y768D01*
X667Y768D02*
X700Y768D01*
X718Y768D02*
X724Y768D01*
X769Y768D02*
X776Y768D01*
X794Y768D02*
X800Y768D01*
X1204Y768D02*
X1210Y768D01*
X1214Y768D02*
X1220Y768D01*
X1231Y768D02*
X1237Y768D01*
X1254Y768D02*
X1260Y768D01*
X1313Y768D02*
X1320Y768D01*
X1322Y768D02*
X1329Y768D01*
X1368Y768D02*
X1374Y768D01*
X1639Y768D02*
X1639Y768D01*
X47Y767D02*
X47Y767D01*
X617Y767D02*
X623Y767D01*
X645Y767D02*
X651Y767D01*
X667Y767D02*
X699Y767D01*
X718Y767D02*
X724Y767D01*
X769Y767D02*
X776Y767D01*
X793Y767D02*
X800Y767D01*
X1204Y767D02*
X1210Y767D01*
X1214Y767D02*
X1221Y767D01*
X1231Y767D02*
X1237Y767D01*
X1254Y767D02*
X1260Y767D01*
X1313Y767D02*
X1329Y767D01*
X1368Y767D02*
X1374Y767D01*
X1639Y767D02*
X1639Y767D01*
X47Y766D02*
X47Y766D01*
X617Y766D02*
X623Y766D01*
X645Y766D02*
X651Y766D01*
X667Y766D02*
X698Y766D01*
X718Y766D02*
X724Y766D01*
X770Y766D02*
X776Y766D01*
X793Y766D02*
X799Y766D01*
X1204Y766D02*
X1210Y766D01*
X1215Y766D02*
X1221Y766D01*
X1231Y766D02*
X1237Y766D01*
X1254Y766D02*
X1260Y766D01*
X1314Y766D02*
X1328Y766D01*
X1368Y766D02*
X1374Y766D01*
X1639Y766D02*
X1639Y766D01*
X47Y765D02*
X47Y765D01*
X617Y765D02*
X623Y765D01*
X645Y765D02*
X651Y765D01*
X667Y765D02*
X697Y765D01*
X718Y765D02*
X724Y765D01*
X770Y765D02*
X777Y765D01*
X793Y765D02*
X799Y765D01*
X1204Y765D02*
X1210Y765D01*
X1215Y765D02*
X1222Y765D01*
X1231Y765D02*
X1237Y765D01*
X1254Y765D02*
X1260Y765D01*
X1315Y765D02*
X1328Y765D01*
X1368Y765D02*
X1374Y765D01*
X1639Y765D02*
X1639Y765D01*
X47Y764D02*
X47Y764D01*
X617Y764D02*
X623Y764D01*
X645Y764D02*
X651Y764D01*
X667Y764D02*
X696Y764D01*
X718Y764D02*
X724Y764D01*
X771Y764D02*
X777Y764D01*
X792Y764D02*
X799Y764D01*
X1204Y764D02*
X1210Y764D01*
X1216Y764D02*
X1222Y764D01*
X1231Y764D02*
X1237Y764D01*
X1254Y764D02*
X1260Y764D01*
X1315Y764D02*
X1327Y764D01*
X1368Y764D02*
X1374Y764D01*
X1639Y764D02*
X1639Y764D01*
X47Y763D02*
X47Y763D01*
X617Y763D02*
X623Y763D01*
X645Y763D02*
X651Y763D01*
X667Y763D02*
X694Y763D01*
X718Y763D02*
X736Y763D01*
X771Y763D02*
X778Y763D01*
X792Y763D02*
X798Y763D01*
X1204Y763D02*
X1210Y763D01*
X1216Y763D02*
X1223Y763D01*
X1231Y763D02*
X1237Y763D01*
X1254Y763D02*
X1272Y763D01*
X1316Y763D02*
X1326Y763D01*
X1368Y763D02*
X1374Y763D01*
X1639Y763D02*
X1639Y763D01*
X47Y762D02*
X47Y762D01*
X617Y762D02*
X623Y762D01*
X644Y762D02*
X651Y762D01*
X667Y762D02*
X674Y762D01*
X679Y762D02*
X687Y762D01*
X718Y762D02*
X737Y762D01*
X771Y762D02*
X778Y762D01*
X791Y762D02*
X798Y762D01*
X1204Y762D02*
X1210Y762D01*
X1216Y762D02*
X1223Y762D01*
X1231Y762D02*
X1237Y762D01*
X1254Y762D02*
X1273Y762D01*
X1316Y762D02*
X1326Y762D01*
X1368Y762D02*
X1374Y762D01*
X1639Y762D02*
X1639Y762D01*
X47Y761D02*
X47Y761D01*
X617Y761D02*
X623Y761D01*
X643Y761D02*
X650Y761D01*
X667Y761D02*
X674Y761D01*
X680Y761D02*
X687Y761D01*
X718Y761D02*
X737Y761D01*
X772Y761D02*
X778Y761D01*
X791Y761D02*
X798Y761D01*
X1204Y761D02*
X1210Y761D01*
X1217Y761D02*
X1224Y761D01*
X1231Y761D02*
X1237Y761D01*
X1254Y761D02*
X1274Y761D01*
X1317Y761D02*
X1325Y761D01*
X1368Y761D02*
X1374Y761D01*
X1639Y761D02*
X1639Y761D01*
X47Y760D02*
X47Y760D01*
X617Y760D02*
X650Y760D01*
X667Y760D02*
X674Y760D01*
X681Y760D02*
X688Y760D01*
X718Y760D02*
X737Y760D01*
X772Y760D02*
X779Y760D01*
X791Y760D02*
X797Y760D01*
X1204Y760D02*
X1210Y760D01*
X1217Y760D02*
X1224Y760D01*
X1231Y760D02*
X1237Y760D01*
X1254Y760D02*
X1274Y760D01*
X1317Y760D02*
X1325Y760D01*
X1368Y760D02*
X1374Y760D01*
X1639Y760D02*
X1639Y760D01*
X47Y759D02*
X47Y759D01*
X617Y759D02*
X649Y759D01*
X667Y759D02*
X674Y759D01*
X681Y759D02*
X688Y759D01*
X718Y759D02*
X737Y759D01*
X773Y759D02*
X779Y759D01*
X790Y759D02*
X797Y759D01*
X1204Y759D02*
X1210Y759D01*
X1218Y759D02*
X1224Y759D01*
X1231Y759D02*
X1237Y759D01*
X1254Y759D02*
X1274Y759D01*
X1317Y759D02*
X1325Y759D01*
X1368Y759D02*
X1374Y759D01*
X1639Y759D02*
X1639Y759D01*
X47Y758D02*
X47Y758D01*
X617Y758D02*
X649Y758D01*
X667Y758D02*
X674Y758D01*
X682Y758D02*
X689Y758D01*
X718Y758D02*
X737Y758D01*
X773Y758D02*
X780Y758D01*
X790Y758D02*
X796Y758D01*
X1204Y758D02*
X1210Y758D01*
X1218Y758D02*
X1225Y758D01*
X1231Y758D02*
X1237Y758D01*
X1254Y758D02*
X1273Y758D01*
X1316Y758D02*
X1326Y758D01*
X1368Y758D02*
X1374Y758D01*
X1639Y758D02*
X1639Y758D01*
X47Y757D02*
X47Y757D01*
X617Y757D02*
X648Y757D01*
X667Y757D02*
X674Y757D01*
X682Y757D02*
X690Y757D01*
X718Y757D02*
X736Y757D01*
X773Y757D02*
X780Y757D01*
X789Y757D02*
X796Y757D01*
X1204Y757D02*
X1210Y757D01*
X1219Y757D02*
X1225Y757D01*
X1231Y757D02*
X1237Y757D01*
X1254Y757D02*
X1272Y757D01*
X1316Y757D02*
X1326Y757D01*
X1368Y757D02*
X1374Y757D01*
X1639Y757D02*
X1639Y757D01*
X47Y756D02*
X47Y756D01*
X617Y756D02*
X647Y756D01*
X667Y756D02*
X674Y756D01*
X683Y756D02*
X690Y756D01*
X718Y756D02*
X724Y756D01*
X774Y756D02*
X780Y756D01*
X789Y756D02*
X796Y756D01*
X1204Y756D02*
X1210Y756D01*
X1219Y756D02*
X1226Y756D01*
X1231Y756D02*
X1237Y756D01*
X1254Y756D02*
X1260Y756D01*
X1315Y756D02*
X1327Y756D01*
X1368Y756D02*
X1374Y756D01*
X1639Y756D02*
X1639Y756D01*
X47Y755D02*
X47Y755D01*
X617Y755D02*
X646Y755D01*
X667Y755D02*
X674Y755D01*
X684Y755D02*
X691Y755D01*
X718Y755D02*
X724Y755D01*
X774Y755D02*
X781Y755D01*
X789Y755D02*
X795Y755D01*
X1204Y755D02*
X1210Y755D01*
X1219Y755D02*
X1226Y755D01*
X1231Y755D02*
X1237Y755D01*
X1254Y755D02*
X1260Y755D01*
X1315Y755D02*
X1328Y755D01*
X1368Y755D02*
X1374Y755D01*
X1639Y755D02*
X1639Y755D01*
X47Y754D02*
X47Y754D01*
X617Y754D02*
X643Y754D01*
X667Y754D02*
X674Y754D01*
X684Y754D02*
X691Y754D01*
X718Y754D02*
X724Y754D01*
X775Y754D02*
X781Y754D01*
X788Y754D02*
X795Y754D01*
X1204Y754D02*
X1210Y754D01*
X1220Y754D02*
X1227Y754D01*
X1231Y754D02*
X1237Y754D01*
X1254Y754D02*
X1260Y754D01*
X1314Y754D02*
X1328Y754D01*
X1368Y754D02*
X1374Y754D01*
X1639Y754D02*
X1639Y754D01*
X47Y753D02*
X47Y753D01*
X617Y753D02*
X623Y753D01*
X667Y753D02*
X674Y753D01*
X685Y753D02*
X692Y753D01*
X718Y753D02*
X724Y753D01*
X775Y753D02*
X782Y753D01*
X788Y753D02*
X794Y753D01*
X1204Y753D02*
X1210Y753D01*
X1220Y753D02*
X1227Y753D01*
X1231Y753D02*
X1237Y753D01*
X1254Y753D02*
X1260Y753D01*
X1313Y753D02*
X1329Y753D01*
X1368Y753D02*
X1374Y753D01*
X1639Y753D02*
X1639Y753D01*
X47Y752D02*
X47Y752D01*
X617Y752D02*
X623Y752D01*
X667Y752D02*
X674Y752D01*
X685Y752D02*
X693Y752D01*
X718Y752D02*
X724Y752D01*
X775Y752D02*
X782Y752D01*
X787Y752D02*
X794Y752D01*
X1204Y752D02*
X1210Y752D01*
X1221Y752D02*
X1228Y752D01*
X1231Y752D02*
X1237Y752D01*
X1254Y752D02*
X1260Y752D01*
X1313Y752D02*
X1320Y752D01*
X1322Y752D02*
X1329Y752D01*
X1368Y752D02*
X1374Y752D01*
X1639Y752D02*
X1639Y752D01*
X47Y751D02*
X47Y751D01*
X617Y751D02*
X623Y751D01*
X667Y751D02*
X674Y751D01*
X686Y751D02*
X693Y751D01*
X718Y751D02*
X724Y751D01*
X776Y751D02*
X782Y751D01*
X787Y751D02*
X794Y751D01*
X1204Y751D02*
X1210Y751D01*
X1221Y751D02*
X1228Y751D01*
X1231Y751D02*
X1237Y751D01*
X1254Y751D02*
X1260Y751D01*
X1312Y751D02*
X1319Y751D01*
X1323Y751D02*
X1330Y751D01*
X1368Y751D02*
X1374Y751D01*
X1639Y751D02*
X1639Y751D01*
X47Y750D02*
X47Y750D01*
X617Y750D02*
X623Y750D01*
X667Y750D02*
X674Y750D01*
X687Y750D02*
X694Y750D01*
X718Y750D02*
X724Y750D01*
X776Y750D02*
X783Y750D01*
X787Y750D02*
X793Y750D01*
X1204Y750D02*
X1210Y750D01*
X1222Y750D02*
X1228Y750D01*
X1231Y750D02*
X1237Y750D01*
X1254Y750D02*
X1260Y750D01*
X1312Y750D02*
X1319Y750D01*
X1323Y750D02*
X1330Y750D01*
X1368Y750D02*
X1374Y750D01*
X1639Y750D02*
X1639Y750D01*
X47Y749D02*
X47Y749D01*
X617Y749D02*
X623Y749D01*
X667Y749D02*
X674Y749D01*
X687Y749D02*
X694Y749D01*
X718Y749D02*
X724Y749D01*
X776Y749D02*
X783Y749D01*
X786Y749D02*
X793Y749D01*
X1204Y749D02*
X1210Y749D01*
X1222Y749D02*
X1229Y749D01*
X1231Y749D02*
X1237Y749D01*
X1254Y749D02*
X1260Y749D01*
X1311Y749D02*
X1318Y749D01*
X1324Y749D02*
X1331Y749D01*
X1368Y749D02*
X1374Y749D01*
X1639Y749D02*
X1639Y749D01*
X47Y748D02*
X47Y748D01*
X617Y748D02*
X623Y748D01*
X667Y748D02*
X674Y748D01*
X688Y748D02*
X695Y748D01*
X718Y748D02*
X724Y748D01*
X777Y748D02*
X783Y748D01*
X786Y748D02*
X792Y748D01*
X1204Y748D02*
X1210Y748D01*
X1223Y748D02*
X1229Y748D01*
X1231Y748D02*
X1237Y748D01*
X1254Y748D02*
X1260Y748D01*
X1310Y748D02*
X1318Y748D01*
X1324Y748D02*
X1332Y748D01*
X1368Y748D02*
X1374Y748D01*
X1639Y748D02*
X1639Y748D01*
X47Y747D02*
X47Y747D01*
X617Y747D02*
X623Y747D01*
X667Y747D02*
X674Y747D01*
X688Y747D02*
X695Y747D01*
X718Y747D02*
X724Y747D01*
X777Y747D02*
X792Y747D01*
X1204Y747D02*
X1210Y747D01*
X1223Y747D02*
X1237Y747D01*
X1254Y747D02*
X1260Y747D01*
X1310Y747D02*
X1317Y747D01*
X1325Y747D02*
X1332Y747D01*
X1368Y747D02*
X1374Y747D01*
X1639Y747D02*
X1639Y747D01*
X47Y746D02*
X47Y746D01*
X617Y746D02*
X623Y746D01*
X667Y746D02*
X674Y746D01*
X689Y746D02*
X696Y746D01*
X718Y746D02*
X724Y746D01*
X778Y746D02*
X792Y746D01*
X1204Y746D02*
X1210Y746D01*
X1223Y746D02*
X1237Y746D01*
X1254Y746D02*
X1260Y746D01*
X1309Y746D02*
X1316Y746D01*
X1326Y746D02*
X1333Y746D01*
X1368Y746D02*
X1374Y746D01*
X1639Y746D02*
X1639Y746D01*
X47Y745D02*
X47Y745D01*
X617Y745D02*
X623Y745D01*
X667Y745D02*
X674Y745D01*
X689Y745D02*
X697Y745D01*
X718Y745D02*
X724Y745D01*
X778Y745D02*
X791Y745D01*
X1204Y745D02*
X1210Y745D01*
X1224Y745D02*
X1237Y745D01*
X1254Y745D02*
X1260Y745D01*
X1309Y745D02*
X1316Y745D01*
X1326Y745D02*
X1333Y745D01*
X1368Y745D02*
X1374Y745D01*
X1639Y745D02*
X1639Y745D01*
X47Y744D02*
X47Y744D01*
X617Y744D02*
X623Y744D01*
X667Y744D02*
X674Y744D01*
X690Y744D02*
X697Y744D01*
X718Y744D02*
X724Y744D01*
X778Y744D02*
X791Y744D01*
X1204Y744D02*
X1210Y744D01*
X1224Y744D02*
X1237Y744D01*
X1254Y744D02*
X1260Y744D01*
X1308Y744D02*
X1315Y744D01*
X1327Y744D02*
X1334Y744D01*
X1368Y744D02*
X1374Y744D01*
X1639Y744D02*
X1639Y744D01*
X47Y743D02*
X47Y743D01*
X617Y743D02*
X623Y743D01*
X667Y743D02*
X674Y743D01*
X691Y743D02*
X698Y743D01*
X718Y743D02*
X724Y743D01*
X779Y743D02*
X790Y743D01*
X1204Y743D02*
X1210Y743D01*
X1225Y743D02*
X1237Y743D01*
X1254Y743D02*
X1260Y743D01*
X1308Y743D02*
X1315Y743D01*
X1327Y743D02*
X1335Y743D01*
X1368Y743D02*
X1374Y743D01*
X1639Y743D02*
X1639Y743D01*
X47Y742D02*
X47Y742D01*
X617Y742D02*
X623Y742D01*
X667Y742D02*
X674Y742D01*
X691Y742D02*
X698Y742D01*
X718Y742D02*
X724Y742D01*
X779Y742D02*
X790Y742D01*
X1204Y742D02*
X1210Y742D01*
X1225Y742D02*
X1237Y742D01*
X1254Y742D02*
X1260Y742D01*
X1307Y742D02*
X1314Y742D01*
X1328Y742D02*
X1335Y742D01*
X1368Y742D02*
X1374Y742D01*
X1639Y742D02*
X1639Y742D01*
X47Y741D02*
X47Y741D01*
X617Y741D02*
X623Y741D01*
X667Y741D02*
X674Y741D01*
X692Y741D02*
X699Y741D01*
X718Y741D02*
X724Y741D01*
X780Y741D02*
X790Y741D01*
X1204Y741D02*
X1210Y741D01*
X1226Y741D02*
X1237Y741D01*
X1254Y741D02*
X1260Y741D01*
X1306Y741D02*
X1314Y741D01*
X1329Y741D02*
X1336Y741D01*
X1368Y741D02*
X1374Y741D01*
X1639Y741D02*
X1639Y741D01*
X47Y740D02*
X47Y740D01*
X617Y740D02*
X623Y740D01*
X667Y740D02*
X674Y740D01*
X692Y740D02*
X700Y740D01*
X718Y740D02*
X724Y740D01*
X780Y740D02*
X789Y740D01*
X1204Y740D02*
X1210Y740D01*
X1226Y740D02*
X1237Y740D01*
X1254Y740D02*
X1260Y740D01*
X1306Y740D02*
X1313Y740D01*
X1329Y740D02*
X1336Y740D01*
X1368Y740D02*
X1374Y740D01*
X1639Y740D02*
X1639Y740D01*
X47Y739D02*
X47Y739D01*
X617Y739D02*
X623Y739D01*
X667Y739D02*
X674Y739D01*
X693Y739D02*
X700Y739D01*
X718Y739D02*
X750Y739D01*
X780Y739D02*
X789Y739D01*
X1204Y739D02*
X1210Y739D01*
X1226Y739D02*
X1237Y739D01*
X1254Y739D02*
X1286Y739D01*
X1305Y739D02*
X1312Y739D01*
X1330Y739D02*
X1337Y739D01*
X1368Y739D02*
X1374Y739D01*
X1639Y739D02*
X1639Y739D01*
X47Y738D02*
X47Y738D01*
X617Y738D02*
X623Y738D01*
X667Y738D02*
X674Y738D01*
X694Y738D02*
X701Y738D01*
X718Y738D02*
X751Y738D01*
X781Y738D02*
X789Y738D01*
X1204Y738D02*
X1210Y738D01*
X1227Y738D02*
X1237Y738D01*
X1254Y738D02*
X1287Y738D01*
X1305Y738D02*
X1312Y738D01*
X1330Y738D02*
X1337Y738D01*
X1368Y738D02*
X1374Y738D01*
X1639Y738D02*
X1639Y738D01*
X47Y737D02*
X47Y737D01*
X617Y737D02*
X623Y737D01*
X667Y737D02*
X674Y737D01*
X694Y737D02*
X701Y737D01*
X718Y737D02*
X751Y737D01*
X781Y737D02*
X788Y737D01*
X1204Y737D02*
X1210Y737D01*
X1227Y737D02*
X1237Y737D01*
X1254Y737D02*
X1288Y737D01*
X1304Y737D02*
X1311Y737D01*
X1331Y737D02*
X1338Y737D01*
X1368Y737D02*
X1374Y737D01*
X1639Y737D02*
X1639Y737D01*
X47Y736D02*
X47Y736D01*
X617Y736D02*
X623Y736D01*
X668Y736D02*
X673Y736D01*
X695Y736D02*
X701Y736D01*
X718Y736D02*
X751Y736D01*
X782Y736D02*
X788Y736D01*
X1204Y736D02*
X1210Y736D01*
X1228Y736D02*
X1237Y736D01*
X1254Y736D02*
X1288Y736D01*
X1304Y736D02*
X1311Y736D01*
X1331Y736D02*
X1338Y736D01*
X1368Y736D02*
X1374Y736D01*
X1639Y736D02*
X1639Y736D01*
X47Y735D02*
X47Y735D01*
X618Y735D02*
X623Y735D01*
X668Y735D02*
X673Y735D01*
X695Y735D02*
X701Y735D01*
X718Y735D02*
X751Y735D01*
X782Y735D02*
X787Y735D01*
X1204Y735D02*
X1210Y735D01*
X1228Y735D02*
X1237Y735D01*
X1254Y735D02*
X1287Y735D01*
X1305Y735D02*
X1310Y735D01*
X1332Y735D02*
X1337Y735D01*
X1369Y735D02*
X1374Y735D01*
X1639Y735D02*
X1639Y735D01*
X47Y734D02*
X47Y734D01*
X618Y734D02*
X622Y734D01*
X669Y734D02*
X672Y734D01*
X696Y734D02*
X700Y734D01*
X718Y734D02*
X750Y734D01*
X783Y734D02*
X787Y734D01*
X1205Y734D02*
X1209Y734D01*
X1229Y734D02*
X1237Y734D01*
X1254Y734D02*
X1287Y734D01*
X1305Y734D02*
X1309Y734D01*
X1333Y734D02*
X1337Y734D01*
X1369Y734D02*
X1373Y734D01*
X1639Y734D02*
X1639Y734D01*
X47Y733D02*
X47Y733D01*
X620Y733D02*
X620Y733D01*
X698Y733D02*
X698Y733D01*
X718Y733D02*
X748Y733D01*
X785Y733D02*
X785Y733D01*
X1207Y733D02*
X1207Y733D01*
X1229Y733D02*
X1237Y733D01*
X1254Y733D02*
X1284Y733D01*
X1307Y733D02*
X1307Y733D01*
X1335Y733D02*
X1335Y733D01*
X1371Y733D02*
X1371Y733D01*
X1639Y733D02*
X1639Y733D01*
X47Y732D02*
X47Y732D01*
X1639Y732D02*
X1639Y732D01*
X47Y731D02*
X47Y731D01*
X1639Y731D02*
X1639Y731D01*
X47Y730D02*
X47Y730D01*
X1639Y730D02*
X1639Y730D01*
X47Y729D02*
X47Y729D01*
X1639Y729D02*
X1639Y729D01*
X47Y728D02*
X47Y728D01*
X1639Y728D02*
X1639Y728D01*
X47Y727D02*
X47Y727D01*
X1639Y727D02*
X1639Y727D01*
X47Y726D02*
X47Y726D01*
X1639Y726D02*
X1639Y726D01*
X47Y725D02*
X47Y725D01*
X1639Y725D02*
X1639Y725D01*
X47Y724D02*
X47Y724D01*
X1639Y724D02*
X1639Y724D01*
X47Y723D02*
X47Y723D01*
X1639Y723D02*
X1639Y723D01*
X47Y722D02*
X47Y722D01*
X1639Y722D02*
X1639Y722D01*
X47Y721D02*
X47Y721D01*
X1639Y721D02*
X1639Y721D01*
X47Y720D02*
X47Y720D01*
X1639Y720D02*
X1639Y720D01*
X47Y719D02*
X47Y719D01*
X1639Y719D02*
X1639Y719D01*
X47Y718D02*
X47Y718D01*
X1639Y718D02*
X1639Y718D01*
X47Y717D02*
X47Y717D01*
X1639Y717D02*
X1639Y717D01*
X47Y716D02*
X47Y716D01*
X1639Y716D02*
X1639Y716D01*
X47Y715D02*
X47Y715D01*
X1639Y715D02*
X1639Y715D01*
X47Y714D02*
X47Y714D01*
X1639Y714D02*
X1639Y714D01*
X47Y713D02*
X47Y713D01*
X1639Y713D02*
X1639Y713D01*
X47Y712D02*
X47Y712D01*
X1639Y712D02*
X1639Y712D01*
X47Y711D02*
X47Y711D01*
X1639Y711D02*
X1639Y711D01*
X47Y710D02*
X47Y710D01*
X1639Y710D02*
X1639Y710D01*
X47Y709D02*
X47Y709D01*
X1639Y709D02*
X1639Y709D01*
X47Y708D02*
X47Y708D01*
X1639Y708D02*
X1639Y708D01*
X47Y707D02*
X47Y707D01*
X1639Y707D02*
X1639Y707D01*
X47Y706D02*
X47Y706D01*
X1639Y706D02*
X1639Y706D01*
X47Y705D02*
X47Y705D01*
X1639Y705D02*
X1639Y705D01*
X47Y704D02*
X47Y704D01*
X1639Y704D02*
X1639Y704D01*
X47Y703D02*
X47Y703D01*
X1639Y703D02*
X1639Y703D01*
X47Y702D02*
X47Y702D01*
X1639Y702D02*
X1639Y702D01*
X47Y701D02*
X47Y701D01*
X1639Y701D02*
X1639Y701D01*
X47Y700D02*
X47Y700D01*
X1639Y700D02*
X1639Y700D01*
X47Y699D02*
X47Y699D01*
X1639Y699D02*
X1639Y699D01*
X47Y698D02*
X47Y698D01*
X1639Y698D02*
X1639Y698D01*
X47Y697D02*
X47Y697D01*
X1639Y697D02*
X1639Y697D01*
X47Y696D02*
X47Y696D01*
X1639Y696D02*
X1639Y696D01*
X47Y695D02*
X47Y695D01*
X1639Y695D02*
X1639Y695D01*
X47Y694D02*
X47Y694D01*
X1639Y694D02*
X1639Y694D01*
X47Y693D02*
X47Y693D01*
X1639Y693D02*
X1639Y693D01*
X47Y692D02*
X47Y692D01*
X1639Y692D02*
X1639Y692D01*
X47Y691D02*
X47Y691D01*
X1639Y691D02*
X1639Y691D01*
X47Y690D02*
X47Y690D01*
X1639Y690D02*
X1639Y690D01*
X47Y689D02*
X47Y689D01*
X1639Y689D02*
X1639Y689D01*
X47Y688D02*
X47Y688D01*
X1639Y688D02*
X1639Y688D01*
X47Y687D02*
X47Y687D01*
X1639Y687D02*
X1639Y687D01*
X47Y686D02*
X47Y686D01*
X1639Y686D02*
X1639Y686D01*
X47Y685D02*
X47Y685D01*
X1639Y685D02*
X1639Y685D01*
X47Y684D02*
X47Y684D01*
X1639Y684D02*
X1639Y684D01*
X47Y683D02*
X47Y683D01*
X1639Y683D02*
X1639Y683D01*
X47Y682D02*
X47Y682D01*
X1639Y682D02*
X1639Y682D01*
X47Y681D02*
X47Y681D01*
X1639Y681D02*
X1639Y681D01*
X47Y680D02*
X47Y680D01*
X1639Y680D02*
X1639Y680D01*
X47Y679D02*
X47Y679D01*
X1639Y679D02*
X1639Y679D01*
X47Y678D02*
X47Y678D01*
X1639Y678D02*
X1639Y678D01*
X47Y677D02*
X47Y677D01*
X1639Y677D02*
X1639Y677D01*
X47Y676D02*
X47Y676D01*
X1639Y676D02*
X1639Y676D01*
X47Y675D02*
X47Y675D01*
X1639Y675D02*
X1639Y675D01*
X47Y674D02*
X47Y674D01*
X1639Y674D02*
X1639Y674D01*
X47Y673D02*
X47Y673D01*
X1639Y673D02*
X1639Y673D01*
X47Y672D02*
X47Y672D01*
X1639Y672D02*
X1639Y672D01*
X47Y671D02*
X47Y671D01*
X1639Y671D02*
X1639Y671D01*
X47Y670D02*
X47Y670D01*
X1639Y670D02*
X1639Y670D01*
X47Y669D02*
X47Y669D01*
X1639Y669D02*
X1639Y669D01*
X47Y668D02*
X47Y668D01*
X1639Y668D02*
X1639Y668D01*
X47Y667D02*
X47Y667D01*
X1639Y667D02*
X1639Y667D01*
X47Y666D02*
X47Y666D01*
X1639Y666D02*
X1639Y666D01*
X47Y665D02*
X47Y665D01*
X1639Y665D02*
X1639Y665D01*
X47Y664D02*
X47Y664D01*
X1639Y664D02*
X1639Y664D01*
X47Y663D02*
X47Y663D01*
X1639Y663D02*
X1639Y663D01*
X47Y662D02*
X47Y662D01*
X1639Y662D02*
X1639Y662D01*
X47Y661D02*
X47Y661D01*
X1639Y661D02*
X1639Y661D01*
X47Y660D02*
X47Y660D01*
X1639Y660D02*
X1639Y660D01*
X47Y659D02*
X47Y659D01*
X1639Y659D02*
X1639Y659D01*
X47Y658D02*
X47Y658D01*
X1639Y658D02*
X1639Y658D01*
X47Y657D02*
X47Y657D01*
X1639Y657D02*
X1639Y657D01*
X47Y656D02*
X47Y656D01*
X1639Y656D02*
X1639Y656D01*
X47Y655D02*
X47Y655D01*
X1639Y655D02*
X1639Y655D01*
X47Y654D02*
X47Y654D01*
X1639Y654D02*
X1639Y654D01*
X47Y653D02*
X47Y653D01*
X1639Y653D02*
X1639Y653D01*
X47Y652D02*
X47Y652D01*
X1639Y652D02*
X1639Y652D01*
X47Y651D02*
X47Y651D01*
X1639Y651D02*
X1639Y651D01*
X47Y650D02*
X47Y650D01*
X1639Y650D02*
X1639Y650D01*
X47Y649D02*
X47Y649D01*
X1639Y649D02*
X1639Y649D01*
X47Y648D02*
X47Y648D01*
X1639Y648D02*
X1639Y648D01*
X47Y647D02*
X47Y647D01*
X1639Y647D02*
X1639Y647D01*
X47Y646D02*
X47Y646D01*
X1639Y646D02*
X1639Y646D01*
X47Y645D02*
X47Y645D01*
X1639Y645D02*
X1639Y645D01*
X47Y644D02*
X47Y644D01*
X1639Y644D02*
X1639Y644D01*
X47Y643D02*
X47Y643D01*
X1639Y643D02*
X1639Y643D01*
X47Y642D02*
X47Y642D01*
X1639Y642D02*
X1639Y642D01*
X47Y641D02*
X47Y641D01*
X1639Y641D02*
X1639Y641D01*
X47Y640D02*
X47Y640D01*
X1639Y640D02*
X1639Y640D01*
X47Y639D02*
X47Y639D01*
X1639Y639D02*
X1639Y639D01*
X47Y638D02*
X47Y638D01*
X1639Y638D02*
X1639Y638D01*
X47Y637D02*
X47Y637D01*
X1639Y637D02*
X1639Y637D01*
X47Y636D02*
X47Y636D01*
X1639Y636D02*
X1639Y636D01*
X47Y635D02*
X47Y635D01*
X1639Y635D02*
X1639Y635D01*
X47Y634D02*
X47Y634D01*
X1639Y634D02*
X1639Y634D01*
X47Y633D02*
X47Y633D01*
X1639Y633D02*
X1639Y633D01*
X47Y632D02*
X47Y632D01*
X1639Y632D02*
X1639Y632D01*
X47Y631D02*
X47Y631D01*
X1639Y631D02*
X1639Y631D01*
X47Y630D02*
X47Y630D01*
X1639Y630D02*
X1639Y630D01*
X47Y629D02*
X47Y629D01*
X1639Y629D02*
X1639Y629D01*
X47Y628D02*
X47Y628D01*
X1639Y628D02*
X1639Y628D01*
X47Y627D02*
X47Y627D01*
X1639Y627D02*
X1639Y627D01*
X47Y626D02*
X47Y626D01*
X1639Y626D02*
X1639Y626D01*
X47Y625D02*
X47Y625D01*
X1639Y625D02*
X1639Y625D01*
X47Y624D02*
X47Y624D01*
X1639Y624D02*
X1639Y624D01*
X47Y623D02*
X47Y623D01*
X1639Y623D02*
X1639Y623D01*
X47Y622D02*
X47Y622D01*
X1639Y622D02*
X1639Y622D01*
X47Y621D02*
X47Y621D01*
X1639Y621D02*
X1639Y621D01*
X47Y620D02*
X47Y620D01*
X1639Y620D02*
X1639Y620D01*
X47Y619D02*
X47Y619D01*
X1639Y619D02*
X1639Y619D01*
X47Y618D02*
X47Y618D01*
X1639Y618D02*
X1639Y618D01*
X47Y617D02*
X47Y617D01*
X1639Y617D02*
X1639Y617D01*
X47Y616D02*
X47Y616D01*
X1639Y616D02*
X1639Y616D01*
X47Y615D02*
X47Y615D01*
X1639Y615D02*
X1639Y615D01*
X47Y614D02*
X47Y614D01*
X1639Y614D02*
X1639Y614D01*
X47Y613D02*
X47Y613D01*
X1639Y613D02*
X1639Y613D01*
X47Y612D02*
X47Y612D01*
X1639Y612D02*
X1639Y612D01*
X47Y611D02*
X47Y611D01*
X1639Y611D02*
X1639Y611D01*
X47Y610D02*
X47Y610D01*
X1639Y610D02*
X1639Y610D01*
X47Y609D02*
X47Y609D01*
X1639Y609D02*
X1639Y609D01*
X47Y608D02*
X47Y608D01*
X1639Y608D02*
X1639Y608D01*
X47Y607D02*
X47Y607D01*
X1639Y607D02*
X1639Y607D01*
X47Y606D02*
X47Y606D01*
X1639Y606D02*
X1639Y606D01*
X47Y605D02*
X47Y605D01*
X1639Y605D02*
X1639Y605D01*
X47Y604D02*
X47Y604D01*
X1639Y604D02*
X1639Y604D01*
X47Y603D02*
X47Y603D01*
X1639Y603D02*
X1639Y603D01*
X47Y602D02*
X47Y602D01*
X1639Y602D02*
X1639Y602D01*
X47Y601D02*
X47Y601D01*
X1639Y601D02*
X1639Y601D01*
X47Y600D02*
X47Y600D01*
X1639Y600D02*
X1639Y600D01*
X47Y599D02*
X47Y599D01*
X1639Y599D02*
X1639Y599D01*
X47Y598D02*
X47Y598D01*
X1639Y598D02*
X1639Y598D01*
X47Y597D02*
X47Y597D01*
X1639Y597D02*
X1639Y597D01*
X47Y596D02*
X47Y596D01*
X1639Y596D02*
X1639Y596D01*
X47Y595D02*
X47Y595D01*
X1639Y595D02*
X1639Y595D01*
X47Y594D02*
X47Y594D01*
X1639Y594D02*
X1639Y594D01*
X47Y593D02*
X47Y593D01*
X1639Y593D02*
X1639Y593D01*
X47Y592D02*
X47Y592D01*
X1639Y592D02*
X1639Y592D01*
X47Y591D02*
X47Y591D01*
X1639Y591D02*
X1639Y591D01*
X47Y590D02*
X47Y590D01*
X1639Y590D02*
X1639Y590D01*
X47Y589D02*
X47Y589D01*
X1639Y589D02*
X1639Y589D01*
X47Y588D02*
X47Y588D01*
X1639Y588D02*
X1639Y588D01*
X47Y587D02*
X47Y587D01*
X1639Y587D02*
X1639Y587D01*
X47Y586D02*
X47Y586D01*
X1639Y586D02*
X1639Y586D01*
X47Y585D02*
X47Y585D01*
X1639Y585D02*
X1639Y585D01*
X47Y584D02*
X47Y584D01*
X1639Y584D02*
X1639Y584D01*
X47Y583D02*
X47Y583D01*
X1639Y583D02*
X1639Y583D01*
X47Y582D02*
X47Y582D01*
X1639Y582D02*
X1639Y582D01*
X47Y581D02*
X47Y581D01*
X1639Y581D02*
X1639Y581D01*
X47Y580D02*
X47Y580D01*
X1639Y580D02*
X1639Y580D01*
X47Y579D02*
X47Y579D01*
X1639Y579D02*
X1639Y579D01*
X47Y578D02*
X47Y578D01*
X1639Y578D02*
X1639Y578D01*
X47Y577D02*
X47Y577D01*
X1639Y577D02*
X1639Y577D01*
X47Y576D02*
X47Y576D01*
X1639Y576D02*
X1639Y576D01*
X47Y575D02*
X47Y575D01*
X1639Y575D02*
X1639Y575D01*
X47Y574D02*
X47Y574D01*
X1639Y574D02*
X1639Y574D01*
X47Y573D02*
X47Y573D01*
X1639Y573D02*
X1639Y573D01*
X47Y572D02*
X47Y572D01*
X1639Y572D02*
X1639Y572D01*
X47Y571D02*
X47Y571D01*
X1639Y571D02*
X1639Y571D01*
X47Y570D02*
X47Y570D01*
X1639Y570D02*
X1639Y570D01*
X47Y569D02*
X47Y569D01*
X1639Y569D02*
X1639Y569D01*
X47Y568D02*
X47Y568D01*
X1639Y568D02*
X1639Y568D01*
X47Y567D02*
X47Y567D01*
X1639Y567D02*
X1639Y567D01*
X47Y566D02*
X47Y566D01*
X1639Y566D02*
X1639Y566D01*
X47Y565D02*
X47Y565D01*
X1639Y565D02*
X1639Y565D01*
X47Y564D02*
X47Y564D01*
X1639Y564D02*
X1639Y564D01*
X47Y563D02*
X47Y563D01*
X1639Y563D02*
X1639Y563D01*
X47Y562D02*
X47Y562D01*
X1639Y562D02*
X1639Y562D01*
X47Y561D02*
X47Y561D01*
X1639Y561D02*
X1639Y561D01*
X47Y560D02*
X47Y560D01*
X1639Y560D02*
X1639Y560D01*
X47Y559D02*
X47Y559D01*
X1639Y559D02*
X1639Y559D01*
X47Y558D02*
X47Y558D01*
X1639Y558D02*
X1639Y558D01*
X47Y557D02*
X47Y557D01*
X1639Y557D02*
X1639Y557D01*
X47Y556D02*
X47Y556D01*
X1639Y556D02*
X1639Y556D01*
X47Y555D02*
X47Y555D01*
X1639Y555D02*
X1639Y555D01*
X47Y554D02*
X47Y554D01*
X1639Y554D02*
X1639Y554D01*
X47Y553D02*
X47Y553D01*
X1639Y553D02*
X1639Y553D01*
X47Y552D02*
X47Y552D01*
X1639Y552D02*
X1639Y552D01*
X47Y551D02*
X47Y551D01*
X1639Y551D02*
X1639Y551D01*
X47Y550D02*
X47Y550D01*
X1639Y550D02*
X1639Y550D01*
X47Y549D02*
X47Y549D01*
X1639Y549D02*
X1639Y549D01*
X47Y548D02*
X47Y548D01*
X1639Y548D02*
X1639Y548D01*
X47Y547D02*
X47Y547D01*
X1639Y547D02*
X1639Y547D01*
X47Y546D02*
X47Y546D01*
X1639Y546D02*
X1639Y546D01*
X47Y545D02*
X47Y545D01*
X1639Y545D02*
X1639Y545D01*
X47Y544D02*
X47Y544D01*
X1639Y544D02*
X1639Y544D01*
X47Y543D02*
X47Y543D01*
X1639Y543D02*
X1639Y543D01*
X47Y542D02*
X47Y542D01*
X1639Y542D02*
X1639Y542D01*
X47Y541D02*
X47Y541D01*
X1639Y541D02*
X1639Y541D01*
X47Y540D02*
X47Y540D01*
X1639Y540D02*
X1639Y540D01*
X47Y539D02*
X47Y539D01*
X1639Y539D02*
X1639Y539D01*
X47Y538D02*
X47Y538D01*
X1639Y538D02*
X1639Y538D01*
X47Y537D02*
X47Y537D01*
X1639Y537D02*
X1639Y537D01*
X47Y536D02*
X47Y536D01*
X1639Y536D02*
X1639Y536D01*
X47Y535D02*
X47Y535D01*
X1639Y535D02*
X1639Y535D01*
X47Y534D02*
X47Y534D01*
X1639Y534D02*
X1639Y534D01*
X47Y533D02*
X47Y533D01*
X1639Y533D02*
X1639Y533D01*
X47Y532D02*
X47Y532D01*
X1639Y532D02*
X1639Y532D01*
X47Y531D02*
X47Y531D01*
X1639Y531D02*
X1639Y531D01*
X47Y530D02*
X47Y530D01*
X1639Y530D02*
X1639Y530D01*
X47Y529D02*
X47Y529D01*
X1639Y529D02*
X1639Y529D01*
X47Y528D02*
X47Y528D01*
X1639Y528D02*
X1639Y528D01*
X47Y527D02*
X47Y527D01*
X1639Y527D02*
X1639Y527D01*
X47Y526D02*
X47Y526D01*
X1639Y526D02*
X1639Y526D01*
X47Y525D02*
X47Y525D01*
X1639Y525D02*
X1639Y525D01*
X47Y524D02*
X47Y524D01*
X1639Y524D02*
X1639Y524D01*
X47Y523D02*
X47Y523D01*
X1639Y523D02*
X1639Y523D01*
X47Y522D02*
X47Y522D01*
X1639Y522D02*
X1639Y522D01*
X47Y521D02*
X47Y521D01*
X1639Y521D02*
X1639Y521D01*
X47Y520D02*
X47Y520D01*
X1639Y520D02*
X1639Y520D01*
X47Y519D02*
X47Y519D01*
X1639Y519D02*
X1639Y519D01*
X47Y518D02*
X47Y518D01*
X1639Y518D02*
X1639Y518D01*
X47Y517D02*
X47Y517D01*
X1639Y517D02*
X1639Y517D01*
X47Y516D02*
X47Y516D01*
X1639Y516D02*
X1639Y516D01*
X47Y515D02*
X47Y515D01*
X1639Y515D02*
X1639Y515D01*
X47Y514D02*
X47Y514D01*
X1639Y514D02*
X1639Y514D01*
X47Y513D02*
X47Y513D01*
X1639Y513D02*
X1639Y513D01*
X47Y512D02*
X47Y512D01*
X1639Y512D02*
X1639Y512D01*
X47Y511D02*
X47Y511D01*
X1639Y511D02*
X1639Y511D01*
X47Y510D02*
X47Y510D01*
X1639Y510D02*
X1639Y510D01*
X47Y509D02*
X47Y509D01*
X1639Y509D02*
X1639Y509D01*
X47Y508D02*
X47Y508D01*
X1639Y508D02*
X1639Y508D01*
X47Y507D02*
X47Y507D01*
X1639Y507D02*
X1639Y507D01*
X47Y506D02*
X47Y506D01*
X1639Y506D02*
X1639Y506D01*
X47Y505D02*
X47Y505D01*
X1639Y505D02*
X1639Y505D01*
X47Y504D02*
X47Y504D01*
X1639Y504D02*
X1639Y504D01*
X47Y503D02*
X47Y503D01*
X1639Y503D02*
X1639Y503D01*
X47Y502D02*
X47Y502D01*
X1639Y502D02*
X1639Y502D01*
X47Y501D02*
X47Y501D01*
X1639Y501D02*
X1639Y501D01*
X47Y500D02*
X47Y500D01*
X1639Y500D02*
X1639Y500D01*
X47Y499D02*
X47Y499D01*
X1639Y499D02*
X1639Y499D01*
X47Y498D02*
X47Y498D01*
X1639Y498D02*
X1639Y498D01*
X47Y497D02*
X47Y497D01*
X1639Y497D02*
X1639Y497D01*
X47Y496D02*
X47Y496D01*
X1639Y496D02*
X1639Y496D01*
X47Y495D02*
X47Y495D01*
X1639Y495D02*
X1639Y495D01*
X47Y494D02*
X47Y494D01*
X1639Y494D02*
X1639Y494D01*
X47Y493D02*
X47Y493D01*
X1639Y493D02*
X1639Y493D01*
X47Y492D02*
X47Y492D01*
X1639Y492D02*
X1639Y492D01*
X47Y491D02*
X47Y491D01*
X1639Y491D02*
X1639Y491D01*
X47Y490D02*
X47Y490D01*
X1639Y490D02*
X1639Y490D01*
X47Y489D02*
X47Y489D01*
X1639Y489D02*
X1639Y489D01*
X47Y488D02*
X47Y488D01*
X1639Y488D02*
X1639Y488D01*
X47Y487D02*
X47Y487D01*
X1639Y487D02*
X1639Y487D01*
X47Y486D02*
X47Y486D01*
X1639Y486D02*
X1639Y486D01*
X47Y485D02*
X47Y485D01*
X1639Y485D02*
X1639Y485D01*
X47Y484D02*
X47Y484D01*
X1639Y484D02*
X1639Y484D01*
X47Y483D02*
X47Y483D01*
X1639Y483D02*
X1639Y483D01*
X47Y482D02*
X47Y482D01*
X1639Y482D02*
X1639Y482D01*
X47Y481D02*
X47Y481D01*
X1639Y481D02*
X1639Y481D01*
X47Y480D02*
X47Y480D01*
X1639Y480D02*
X1639Y480D01*
X47Y479D02*
X47Y479D01*
X1639Y479D02*
X1639Y479D01*
X47Y478D02*
X47Y478D01*
X1639Y478D02*
X1639Y478D01*
X47Y477D02*
X47Y477D01*
X1639Y477D02*
X1639Y477D01*
X47Y476D02*
X47Y476D01*
X1639Y476D02*
X1639Y476D01*
X47Y475D02*
X47Y475D01*
X1639Y475D02*
X1639Y475D01*
X47Y474D02*
X47Y474D01*
X1639Y474D02*
X1639Y474D01*
X47Y473D02*
X47Y473D01*
X1639Y473D02*
X1639Y473D01*
X47Y472D02*
X47Y472D01*
X1639Y472D02*
X1639Y472D01*
X47Y471D02*
X47Y471D01*
X1639Y471D02*
X1639Y471D01*
X47Y470D02*
X47Y470D01*
X1639Y470D02*
X1639Y470D01*
X47Y469D02*
X47Y469D01*
X1639Y469D02*
X1639Y469D01*
X47Y468D02*
X47Y468D01*
X1639Y468D02*
X1639Y468D01*
X47Y467D02*
X47Y467D01*
X1639Y467D02*
X1639Y467D01*
X47Y466D02*
X47Y466D01*
X1639Y466D02*
X1639Y466D01*
X47Y465D02*
X47Y465D01*
X1639Y465D02*
X1639Y465D01*
X47Y464D02*
X47Y464D01*
X1639Y464D02*
X1639Y464D01*
X47Y463D02*
X47Y463D01*
X1639Y463D02*
X1639Y463D01*
X47Y462D02*
X47Y462D01*
X1639Y462D02*
X1639Y462D01*
X47Y461D02*
X47Y461D01*
X1639Y461D02*
X1639Y461D01*
X47Y460D02*
X47Y460D01*
X1639Y460D02*
X1639Y460D01*
X47Y459D02*
X47Y459D01*
X1639Y459D02*
X1639Y459D01*
X47Y458D02*
X47Y458D01*
X1639Y458D02*
X1639Y458D01*
X47Y457D02*
X47Y457D01*
X1639Y457D02*
X1639Y457D01*
X47Y456D02*
X47Y456D01*
X1639Y456D02*
X1639Y456D01*
X47Y455D02*
X47Y455D01*
X1639Y455D02*
X1639Y455D01*
X47Y454D02*
X47Y454D01*
X1639Y454D02*
X1639Y454D01*
X47Y453D02*
X47Y453D01*
X1639Y453D02*
X1639Y453D01*
X47Y452D02*
X47Y452D01*
X1639Y452D02*
X1639Y452D01*
X47Y451D02*
X47Y451D01*
X1639Y451D02*
X1639Y451D01*
X47Y450D02*
X47Y450D01*
X1639Y450D02*
X1639Y450D01*
X47Y449D02*
X47Y449D01*
X1639Y449D02*
X1639Y449D01*
X47Y448D02*
X47Y448D01*
X1639Y448D02*
X1639Y448D01*
X47Y447D02*
X47Y447D01*
X1639Y447D02*
X1639Y447D01*
X47Y446D02*
X47Y446D01*
X1639Y446D02*
X1639Y446D01*
X47Y445D02*
X47Y445D01*
X1639Y445D02*
X1639Y445D01*
X47Y444D02*
X47Y444D01*
X1639Y444D02*
X1639Y444D01*
X47Y443D02*
X47Y443D01*
X1639Y443D02*
X1639Y443D01*
X47Y442D02*
X47Y442D01*
X1639Y442D02*
X1639Y442D01*
X47Y441D02*
X47Y441D01*
X1639Y441D02*
X1639Y441D01*
X47Y440D02*
X47Y440D01*
X1639Y440D02*
X1639Y440D01*
X47Y439D02*
X47Y439D01*
X1639Y439D02*
X1639Y439D01*
X47Y438D02*
X47Y438D01*
X1639Y438D02*
X1639Y438D01*
X47Y437D02*
X47Y437D01*
X1639Y437D02*
X1639Y437D01*
X47Y436D02*
X47Y436D01*
X1639Y436D02*
X1639Y436D01*
X47Y435D02*
X47Y435D01*
X1639Y435D02*
X1639Y435D01*
X47Y434D02*
X47Y434D01*
X1639Y434D02*
X1639Y434D01*
X47Y433D02*
X47Y433D01*
X1639Y433D02*
X1639Y433D01*
X47Y432D02*
X47Y432D01*
X1639Y432D02*
X1639Y432D01*
X47Y431D02*
X47Y431D01*
X1639Y431D02*
X1639Y431D01*
X47Y430D02*
X47Y430D01*
X1639Y430D02*
X1639Y430D01*
X47Y429D02*
X47Y429D01*
X1639Y429D02*
X1639Y429D01*
X47Y428D02*
X47Y428D01*
X1639Y428D02*
X1639Y428D01*
X47Y427D02*
X47Y427D01*
X1639Y427D02*
X1639Y427D01*
X47Y426D02*
X47Y426D01*
X1639Y426D02*
X1639Y426D01*
X47Y425D02*
X47Y425D01*
X1639Y425D02*
X1639Y425D01*
X47Y424D02*
X47Y424D01*
X1639Y424D02*
X1639Y424D01*
X47Y423D02*
X47Y423D01*
X1639Y423D02*
X1639Y423D01*
X47Y422D02*
X47Y422D01*
X1639Y422D02*
X1639Y422D01*
X47Y421D02*
X47Y421D01*
X1639Y421D02*
X1639Y421D01*
X47Y420D02*
X47Y420D01*
X1639Y420D02*
X1639Y420D01*
X47Y419D02*
X47Y419D01*
X1639Y419D02*
X1639Y419D01*
X47Y418D02*
X47Y418D01*
X1639Y418D02*
X1639Y418D01*
X47Y417D02*
X47Y417D01*
X1639Y417D02*
X1639Y417D01*
X47Y416D02*
X47Y416D01*
X1639Y416D02*
X1639Y416D01*
X47Y415D02*
X47Y415D01*
X1639Y415D02*
X1639Y415D01*
X47Y414D02*
X47Y414D01*
X1639Y414D02*
X1639Y414D01*
X47Y413D02*
X47Y413D01*
X1639Y413D02*
X1639Y413D01*
X47Y412D02*
X47Y412D01*
X1639Y412D02*
X1639Y412D01*
X47Y411D02*
X47Y411D01*
X1639Y411D02*
X1639Y411D01*
X47Y410D02*
X47Y410D01*
X1639Y410D02*
X1639Y410D01*
X47Y409D02*
X47Y409D01*
X1639Y409D02*
X1639Y409D01*
X47Y408D02*
X47Y408D01*
X1639Y408D02*
X1639Y408D01*
X47Y407D02*
X47Y407D01*
X1639Y407D02*
X1639Y407D01*
X47Y406D02*
X47Y406D01*
X1639Y406D02*
X1639Y406D01*
X47Y405D02*
X47Y405D01*
X1639Y405D02*
X1639Y405D01*
X47Y404D02*
X47Y404D01*
X1639Y404D02*
X1639Y404D01*
X47Y403D02*
X47Y403D01*
X1639Y403D02*
X1639Y403D01*
X47Y402D02*
X47Y402D01*
X1639Y402D02*
X1639Y402D01*
X47Y401D02*
X47Y401D01*
X1639Y401D02*
X1639Y401D01*
X47Y400D02*
X47Y400D01*
X1639Y400D02*
X1639Y400D01*
X47Y399D02*
X47Y399D01*
X1639Y399D02*
X1639Y399D01*
X47Y398D02*
X47Y398D01*
X1639Y398D02*
X1639Y398D01*
X47Y397D02*
X47Y397D01*
X1639Y397D02*
X1639Y397D01*
X47Y396D02*
X47Y396D01*
X1639Y396D02*
X1639Y396D01*
X47Y395D02*
X47Y395D01*
X1639Y395D02*
X1639Y395D01*
X47Y394D02*
X47Y394D01*
X1639Y394D02*
X1639Y394D01*
X47Y393D02*
X47Y393D01*
X1639Y393D02*
X1639Y393D01*
X47Y392D02*
X47Y392D01*
X1639Y392D02*
X1639Y392D01*
X47Y391D02*
X47Y391D01*
X1639Y391D02*
X1639Y391D01*
X47Y390D02*
X47Y390D01*
X1639Y390D02*
X1639Y390D01*
X47Y389D02*
X47Y389D01*
X1639Y389D02*
X1639Y389D01*
X47Y388D02*
X47Y388D01*
X1639Y388D02*
X1639Y388D01*
X47Y387D02*
X47Y387D01*
X1639Y387D02*
X1639Y387D01*
X47Y386D02*
X47Y386D01*
X1639Y386D02*
X1639Y386D01*
X47Y385D02*
X47Y385D01*
X1639Y385D02*
X1639Y385D01*
X47Y384D02*
X47Y384D01*
X1639Y384D02*
X1639Y384D01*
X47Y383D02*
X47Y383D01*
X1639Y383D02*
X1639Y383D01*
X47Y382D02*
X47Y382D01*
X1639Y382D02*
X1639Y382D01*
X47Y381D02*
X47Y381D01*
X1639Y381D02*
X1639Y381D01*
X47Y380D02*
X47Y380D01*
X1639Y380D02*
X1639Y380D01*
X47Y379D02*
X47Y379D01*
X1639Y379D02*
X1639Y379D01*
X47Y378D02*
X47Y378D01*
X1639Y378D02*
X1639Y378D01*
X47Y377D02*
X47Y377D01*
X1639Y377D02*
X1639Y377D01*
X47Y376D02*
X47Y376D01*
X1639Y376D02*
X1639Y376D01*
X47Y375D02*
X47Y375D01*
X1639Y375D02*
X1639Y375D01*
X47Y374D02*
X47Y374D01*
X1639Y374D02*
X1639Y374D01*
X47Y373D02*
X47Y373D01*
X1639Y373D02*
X1639Y373D01*
X47Y372D02*
X47Y372D01*
X1639Y372D02*
X1639Y372D01*
X47Y371D02*
X47Y371D01*
X1639Y371D02*
X1639Y371D01*
X47Y370D02*
X47Y370D01*
X1639Y370D02*
X1639Y370D01*
X47Y369D02*
X47Y369D01*
X1639Y369D02*
X1639Y369D01*
X47Y368D02*
X47Y368D01*
X1639Y368D02*
X1639Y368D01*
X47Y367D02*
X47Y367D01*
X1639Y367D02*
X1639Y367D01*
X47Y366D02*
X47Y366D01*
X1639Y366D02*
X1639Y366D01*
X47Y365D02*
X47Y365D01*
X1639Y365D02*
X1639Y365D01*
X47Y364D02*
X47Y364D01*
X1639Y364D02*
X1639Y364D01*
X47Y363D02*
X47Y363D01*
X1639Y363D02*
X1639Y363D01*
X47Y362D02*
X47Y362D01*
X1639Y362D02*
X1639Y362D01*
X47Y361D02*
X47Y361D01*
X1639Y361D02*
X1639Y361D01*
X47Y360D02*
X47Y360D01*
X1639Y360D02*
X1639Y360D01*
X47Y359D02*
X47Y359D01*
X1639Y359D02*
X1639Y359D01*
X47Y358D02*
X47Y358D01*
X1639Y358D02*
X1639Y358D01*
X47Y357D02*
X47Y357D01*
X1639Y357D02*
X1639Y357D01*
X47Y356D02*
X47Y356D01*
X1639Y356D02*
X1639Y356D01*
X47Y355D02*
X47Y355D01*
X1639Y355D02*
X1639Y355D01*
X47Y354D02*
X47Y354D01*
X1639Y354D02*
X1639Y354D01*
X47Y353D02*
X47Y353D01*
X1639Y353D02*
X1639Y353D01*
X47Y352D02*
X47Y352D01*
X1639Y352D02*
X1639Y352D01*
X47Y351D02*
X47Y351D01*
X1639Y351D02*
X1639Y351D01*
X47Y350D02*
X47Y350D01*
X1639Y350D02*
X1639Y350D01*
X47Y349D02*
X47Y349D01*
X1639Y349D02*
X1639Y349D01*
X47Y348D02*
X47Y348D01*
X278Y348D02*
X299Y348D01*
X325Y348D02*
X326Y348D01*
X352Y348D02*
X354Y348D01*
X375Y348D02*
X376Y348D01*
X402Y348D02*
X404Y348D01*
X423Y348D02*
X456Y348D01*
X475Y348D02*
X491Y348D01*
X539Y348D02*
X541Y348D01*
X576Y348D02*
X577Y348D01*
X603Y348D02*
X605Y348D01*
X624Y348D02*
X632Y348D01*
X653Y348D02*
X655Y348D01*
X1639Y348D02*
X1639Y348D01*
X47Y347D02*
X47Y347D01*
X276Y347D02*
X301Y347D01*
X323Y347D02*
X328Y347D01*
X351Y347D02*
X355Y347D01*
X373Y347D02*
X378Y347D01*
X401Y347D02*
X405Y347D01*
X423Y347D02*
X456Y347D01*
X474Y347D02*
X493Y347D01*
X536Y347D02*
X544Y347D01*
X574Y347D02*
X579Y347D01*
X602Y347D02*
X606Y347D01*
X624Y347D02*
X632Y347D01*
X652Y347D02*
X656Y347D01*
X1639Y347D02*
X1639Y347D01*
X47Y346D02*
X47Y346D01*
X275Y346D02*
X302Y346D01*
X323Y346D02*
X328Y346D01*
X350Y346D02*
X356Y346D01*
X373Y346D02*
X378Y346D01*
X400Y346D02*
X406Y346D01*
X423Y346D02*
X456Y346D01*
X473Y346D02*
X495Y346D01*
X535Y346D02*
X545Y346D01*
X574Y346D02*
X579Y346D01*
X601Y346D02*
X607Y346D01*
X624Y346D02*
X633Y346D01*
X651Y346D02*
X657Y346D01*
X1639Y346D02*
X1639Y346D01*
X47Y345D02*
X47Y345D01*
X274Y345D02*
X303Y345D01*
X322Y345D02*
X328Y345D01*
X350Y345D02*
X356Y345D01*
X373Y345D02*
X379Y345D01*
X400Y345D02*
X406Y345D01*
X423Y345D02*
X456Y345D01*
X473Y345D02*
X496Y345D01*
X534Y345D02*
X546Y345D01*
X573Y345D02*
X579Y345D01*
X601Y345D02*
X607Y345D01*
X624Y345D02*
X633Y345D01*
X651Y345D02*
X657Y345D01*
X1639Y345D02*
X1639Y345D01*
X47Y344D02*
X47Y344D01*
X273Y344D02*
X304Y344D01*
X322Y344D02*
X328Y344D01*
X350Y344D02*
X356Y344D01*
X373Y344D02*
X379Y344D01*
X400Y344D02*
X406Y344D01*
X423Y344D02*
X456Y344D01*
X473Y344D02*
X497Y344D01*
X533Y344D02*
X547Y344D01*
X573Y344D02*
X579Y344D01*
X601Y344D02*
X607Y344D01*
X624Y344D02*
X634Y344D01*
X651Y344D02*
X657Y344D01*
X1639Y344D02*
X1639Y344D01*
X47Y343D02*
X47Y343D01*
X273Y343D02*
X305Y343D01*
X322Y343D02*
X328Y343D01*
X350Y343D02*
X356Y343D01*
X373Y343D02*
X379Y343D01*
X400Y343D02*
X406Y343D01*
X423Y343D02*
X456Y343D01*
X474Y343D02*
X497Y343D01*
X532Y343D02*
X548Y343D01*
X573Y343D02*
X579Y343D01*
X601Y343D02*
X607Y343D01*
X624Y343D02*
X634Y343D01*
X651Y343D02*
X657Y343D01*
X1639Y343D02*
X1639Y343D01*
X47Y342D02*
X47Y342D01*
X272Y342D02*
X305Y342D01*
X322Y342D02*
X328Y342D01*
X350Y342D02*
X356Y342D01*
X373Y342D02*
X379Y342D01*
X400Y342D02*
X406Y342D01*
X423Y342D02*
X456Y342D01*
X474Y342D02*
X498Y342D01*
X532Y342D02*
X548Y342D01*
X573Y342D02*
X579Y342D01*
X601Y342D02*
X607Y342D01*
X624Y342D02*
X635Y342D01*
X651Y342D02*
X657Y342D01*
X1639Y342D02*
X1639Y342D01*
X47Y341D02*
X47Y341D01*
X272Y341D02*
X279Y341D01*
X298Y341D02*
X306Y341D01*
X322Y341D02*
X328Y341D01*
X350Y341D02*
X356Y341D01*
X373Y341D02*
X379Y341D01*
X400Y341D02*
X406Y341D01*
X423Y341D02*
X429Y341D01*
X436Y341D02*
X443Y341D01*
X450Y341D02*
X456Y341D01*
X480Y341D02*
X486Y341D01*
X491Y341D02*
X499Y341D01*
X531Y341D02*
X539Y341D01*
X541Y341D02*
X549Y341D01*
X573Y341D02*
X579Y341D01*
X601Y341D02*
X607Y341D01*
X624Y341D02*
X635Y341D01*
X651Y341D02*
X657Y341D01*
X1639Y341D02*
X1639Y341D01*
X47Y340D02*
X47Y340D01*
X272Y340D02*
X278Y340D01*
X299Y340D02*
X306Y340D01*
X322Y340D02*
X328Y340D01*
X350Y340D02*
X356Y340D01*
X373Y340D02*
X379Y340D01*
X400Y340D02*
X406Y340D01*
X423Y340D02*
X429Y340D01*
X437Y340D02*
X443Y340D01*
X450Y340D02*
X456Y340D01*
X480Y340D02*
X486Y340D01*
X492Y340D02*
X499Y340D01*
X531Y340D02*
X538Y340D01*
X542Y340D02*
X549Y340D01*
X573Y340D02*
X579Y340D01*
X601Y340D02*
X607Y340D01*
X624Y340D02*
X635Y340D01*
X651Y340D02*
X657Y340D01*
X1639Y340D02*
X1639Y340D01*
X47Y339D02*
X47Y339D01*
X272Y339D02*
X279Y339D01*
X300Y339D02*
X306Y339D01*
X322Y339D02*
X328Y339D01*
X350Y339D02*
X356Y339D01*
X373Y339D02*
X379Y339D01*
X400Y339D02*
X406Y339D01*
X423Y339D02*
X429Y339D01*
X437Y339D02*
X443Y339D01*
X450Y339D02*
X456Y339D01*
X480Y339D02*
X486Y339D01*
X493Y339D02*
X500Y339D01*
X530Y339D02*
X537Y339D01*
X543Y339D02*
X550Y339D01*
X573Y339D02*
X579Y339D01*
X601Y339D02*
X607Y339D01*
X624Y339D02*
X636Y339D01*
X651Y339D02*
X657Y339D01*
X1639Y339D02*
X1639Y339D01*
X47Y338D02*
X47Y338D01*
X273Y338D02*
X280Y338D01*
X300Y338D02*
X306Y338D01*
X322Y338D02*
X328Y338D01*
X350Y338D02*
X356Y338D01*
X373Y338D02*
X379Y338D01*
X400Y338D02*
X406Y338D01*
X423Y338D02*
X429Y338D01*
X437Y338D02*
X443Y338D01*
X451Y338D02*
X456Y338D01*
X480Y338D02*
X486Y338D01*
X493Y338D02*
X500Y338D01*
X530Y338D02*
X537Y338D01*
X543Y338D02*
X550Y338D01*
X573Y338D02*
X579Y338D01*
X601Y338D02*
X607Y338D01*
X624Y338D02*
X636Y338D01*
X651Y338D02*
X657Y338D01*
X1639Y338D02*
X1639Y338D01*
X47Y337D02*
X47Y337D01*
X273Y337D02*
X281Y337D01*
X300Y337D02*
X305Y337D01*
X322Y337D02*
X328Y337D01*
X350Y337D02*
X356Y337D01*
X373Y337D02*
X379Y337D01*
X400Y337D02*
X406Y337D01*
X423Y337D02*
X428Y337D01*
X437Y337D02*
X443Y337D01*
X451Y337D02*
X456Y337D01*
X480Y337D02*
X486Y337D01*
X494Y337D02*
X501Y337D01*
X529Y337D02*
X536Y337D01*
X544Y337D02*
X551Y337D01*
X573Y337D02*
X579Y337D01*
X601Y337D02*
X607Y337D01*
X624Y337D02*
X637Y337D01*
X651Y337D02*
X657Y337D01*
X1639Y337D02*
X1639Y337D01*
X47Y336D02*
X47Y336D01*
X274Y336D02*
X281Y336D01*
X301Y336D02*
X304Y336D01*
X322Y336D02*
X328Y336D01*
X350Y336D02*
X356Y336D01*
X373Y336D02*
X379Y336D01*
X400Y336D02*
X406Y336D01*
X424Y336D02*
X427Y336D01*
X437Y336D02*
X443Y336D01*
X452Y336D02*
X455Y336D01*
X480Y336D02*
X486Y336D01*
X494Y336D02*
X501Y336D01*
X529Y336D02*
X536Y336D01*
X544Y336D02*
X551Y336D01*
X573Y336D02*
X579Y336D01*
X601Y336D02*
X607Y336D01*
X624Y336D02*
X637Y336D01*
X651Y336D02*
X657Y336D01*
X1639Y336D02*
X1639Y336D01*
X47Y335D02*
X47Y335D01*
X274Y335D02*
X282Y335D01*
X322Y335D02*
X328Y335D01*
X350Y335D02*
X356Y335D01*
X373Y335D02*
X379Y335D01*
X400Y335D02*
X406Y335D01*
X437Y335D02*
X443Y335D01*
X480Y335D02*
X486Y335D01*
X495Y335D02*
X502Y335D01*
X528Y335D02*
X535Y335D01*
X545Y335D02*
X552Y335D01*
X573Y335D02*
X579Y335D01*
X601Y335D02*
X607Y335D01*
X624Y335D02*
X638Y335D01*
X651Y335D02*
X657Y335D01*
X1639Y335D02*
X1639Y335D01*
X47Y334D02*
X47Y334D01*
X275Y334D02*
X283Y334D01*
X322Y334D02*
X328Y334D01*
X350Y334D02*
X356Y334D01*
X373Y334D02*
X379Y334D01*
X400Y334D02*
X406Y334D01*
X437Y334D02*
X443Y334D01*
X480Y334D02*
X486Y334D01*
X495Y334D02*
X502Y334D01*
X528Y334D02*
X535Y334D01*
X545Y334D02*
X552Y334D01*
X573Y334D02*
X579Y334D01*
X601Y334D02*
X607Y334D01*
X624Y334D02*
X638Y334D01*
X651Y334D02*
X657Y334D01*
X1639Y334D02*
X1639Y334D01*
X47Y333D02*
X47Y333D01*
X276Y333D02*
X284Y333D01*
X322Y333D02*
X328Y333D01*
X350Y333D02*
X356Y333D01*
X373Y333D02*
X379Y333D01*
X400Y333D02*
X406Y333D01*
X437Y333D02*
X443Y333D01*
X480Y333D02*
X486Y333D01*
X496Y333D02*
X503Y333D01*
X527Y333D02*
X534Y333D01*
X546Y333D02*
X553Y333D01*
X573Y333D02*
X579Y333D01*
X601Y333D02*
X607Y333D01*
X624Y333D02*
X630Y333D01*
X632Y333D02*
X639Y333D01*
X651Y333D02*
X657Y333D01*
X1639Y333D02*
X1639Y333D01*
X47Y332D02*
X47Y332D01*
X277Y332D02*
X285Y332D01*
X322Y332D02*
X328Y332D01*
X350Y332D02*
X356Y332D01*
X373Y332D02*
X379Y332D01*
X400Y332D02*
X406Y332D01*
X437Y332D02*
X443Y332D01*
X480Y332D02*
X486Y332D01*
X496Y332D02*
X503Y332D01*
X527Y332D02*
X534Y332D01*
X546Y332D02*
X553Y332D01*
X573Y332D02*
X579Y332D01*
X601Y332D02*
X607Y332D01*
X624Y332D02*
X630Y332D01*
X632Y332D02*
X639Y332D01*
X651Y332D02*
X657Y332D01*
X1639Y332D02*
X1639Y332D01*
X47Y331D02*
X47Y331D01*
X277Y331D02*
X285Y331D01*
X322Y331D02*
X328Y331D01*
X350Y331D02*
X356Y331D01*
X373Y331D02*
X379Y331D01*
X400Y331D02*
X406Y331D01*
X437Y331D02*
X443Y331D01*
X480Y331D02*
X486Y331D01*
X497Y331D02*
X504Y331D01*
X526Y331D02*
X533Y331D01*
X547Y331D02*
X554Y331D01*
X573Y331D02*
X579Y331D01*
X601Y331D02*
X607Y331D01*
X624Y331D02*
X630Y331D01*
X633Y331D02*
X639Y331D01*
X651Y331D02*
X657Y331D01*
X1639Y331D02*
X1639Y331D01*
X47Y330D02*
X47Y330D01*
X278Y330D02*
X286Y330D01*
X322Y330D02*
X328Y330D01*
X350Y330D02*
X356Y330D01*
X373Y330D02*
X379Y330D01*
X400Y330D02*
X406Y330D01*
X437Y330D02*
X443Y330D01*
X480Y330D02*
X486Y330D01*
X497Y330D02*
X504Y330D01*
X526Y330D02*
X533Y330D01*
X547Y330D02*
X554Y330D01*
X573Y330D02*
X579Y330D01*
X589Y330D02*
X591Y330D01*
X601Y330D02*
X607Y330D01*
X624Y330D02*
X630Y330D01*
X633Y330D02*
X640Y330D01*
X651Y330D02*
X657Y330D01*
X1639Y330D02*
X1639Y330D01*
X47Y329D02*
X47Y329D01*
X279Y329D02*
X287Y329D01*
X322Y329D02*
X328Y329D01*
X350Y329D02*
X356Y329D01*
X373Y329D02*
X379Y329D01*
X400Y329D02*
X406Y329D01*
X437Y329D02*
X443Y329D01*
X480Y329D02*
X486Y329D01*
X498Y329D02*
X505Y329D01*
X525Y329D02*
X532Y329D01*
X548Y329D02*
X555Y329D01*
X573Y329D02*
X579Y329D01*
X588Y329D02*
X593Y329D01*
X601Y329D02*
X607Y329D01*
X624Y329D02*
X630Y329D01*
X634Y329D02*
X640Y329D01*
X651Y329D02*
X657Y329D01*
X1639Y329D02*
X1639Y329D01*
X47Y328D02*
X47Y328D01*
X280Y328D02*
X288Y328D01*
X322Y328D02*
X328Y328D01*
X350Y328D02*
X356Y328D01*
X373Y328D02*
X379Y328D01*
X400Y328D02*
X406Y328D01*
X437Y328D02*
X443Y328D01*
X480Y328D02*
X486Y328D01*
X498Y328D02*
X505Y328D01*
X525Y328D02*
X532Y328D01*
X548Y328D02*
X555Y328D01*
X573Y328D02*
X579Y328D01*
X587Y328D02*
X593Y328D01*
X601Y328D02*
X607Y328D01*
X624Y328D02*
X630Y328D01*
X634Y328D02*
X641Y328D01*
X651Y328D02*
X657Y328D01*
X1639Y328D02*
X1639Y328D01*
X47Y327D02*
X47Y327D01*
X280Y327D02*
X288Y327D01*
X322Y327D02*
X328Y327D01*
X350Y327D02*
X356Y327D01*
X373Y327D02*
X379Y327D01*
X400Y327D02*
X406Y327D01*
X437Y327D02*
X443Y327D01*
X480Y327D02*
X486Y327D01*
X499Y327D02*
X505Y327D01*
X524Y327D02*
X531Y327D01*
X549Y327D02*
X556Y327D01*
X573Y327D02*
X579Y327D01*
X587Y327D02*
X593Y327D01*
X601Y327D02*
X607Y327D01*
X624Y327D02*
X630Y327D01*
X634Y327D02*
X641Y327D01*
X651Y327D02*
X657Y327D01*
X1639Y327D02*
X1639Y327D01*
X47Y326D02*
X47Y326D01*
X281Y326D02*
X289Y326D01*
X322Y326D02*
X328Y326D01*
X350Y326D02*
X356Y326D01*
X373Y326D02*
X379Y326D01*
X400Y326D02*
X406Y326D01*
X437Y326D02*
X443Y326D01*
X480Y326D02*
X486Y326D01*
X499Y326D02*
X506Y326D01*
X524Y326D02*
X531Y326D01*
X549Y326D02*
X556Y326D01*
X573Y326D02*
X579Y326D01*
X587Y326D02*
X593Y326D01*
X601Y326D02*
X607Y326D01*
X624Y326D02*
X630Y326D01*
X635Y326D02*
X642Y326D01*
X651Y326D02*
X657Y326D01*
X1639Y326D02*
X1639Y326D01*
X47Y325D02*
X47Y325D01*
X282Y325D02*
X290Y325D01*
X322Y325D02*
X329Y325D01*
X350Y325D02*
X356Y325D01*
X373Y325D02*
X379Y325D01*
X400Y325D02*
X406Y325D01*
X437Y325D02*
X443Y325D01*
X480Y325D02*
X486Y325D01*
X500Y325D02*
X506Y325D01*
X524Y325D02*
X530Y325D01*
X550Y325D02*
X556Y325D01*
X573Y325D02*
X579Y325D01*
X587Y325D02*
X593Y325D01*
X601Y325D02*
X607Y325D01*
X624Y325D02*
X630Y325D01*
X635Y325D02*
X642Y325D01*
X651Y325D02*
X657Y325D01*
X1639Y325D02*
X1639Y325D01*
X47Y324D02*
X47Y324D01*
X283Y324D02*
X291Y324D01*
X322Y324D02*
X356Y324D01*
X373Y324D02*
X379Y324D01*
X400Y324D02*
X406Y324D01*
X437Y324D02*
X443Y324D01*
X480Y324D02*
X486Y324D01*
X500Y324D02*
X506Y324D01*
X523Y324D02*
X530Y324D01*
X550Y324D02*
X556Y324D01*
X573Y324D02*
X579Y324D01*
X587Y324D02*
X593Y324D01*
X601Y324D02*
X607Y324D01*
X624Y324D02*
X630Y324D01*
X636Y324D02*
X642Y324D01*
X651Y324D02*
X657Y324D01*
X1639Y324D02*
X1639Y324D01*
X47Y323D02*
X47Y323D01*
X283Y323D02*
X292Y323D01*
X322Y323D02*
X356Y323D01*
X373Y323D02*
X379Y323D01*
X400Y323D02*
X406Y323D01*
X437Y323D02*
X443Y323D01*
X480Y323D02*
X486Y323D01*
X500Y323D02*
X506Y323D01*
X523Y323D02*
X529Y323D01*
X551Y323D02*
X557Y323D01*
X573Y323D02*
X579Y323D01*
X587Y323D02*
X593Y323D01*
X601Y323D02*
X607Y323D01*
X624Y323D02*
X630Y323D01*
X636Y323D02*
X643Y323D01*
X651Y323D02*
X657Y323D01*
X1639Y323D02*
X1639Y323D01*
X47Y322D02*
X47Y322D01*
X284Y322D02*
X292Y322D01*
X322Y322D02*
X356Y322D01*
X373Y322D02*
X379Y322D01*
X400Y322D02*
X406Y322D01*
X437Y322D02*
X443Y322D01*
X480Y322D02*
X486Y322D01*
X500Y322D02*
X507Y322D01*
X523Y322D02*
X529Y322D01*
X551Y322D02*
X557Y322D01*
X573Y322D02*
X579Y322D01*
X587Y322D02*
X593Y322D01*
X601Y322D02*
X607Y322D01*
X624Y322D02*
X630Y322D01*
X637Y322D02*
X643Y322D01*
X651Y322D02*
X657Y322D01*
X1639Y322D02*
X1639Y322D01*
X47Y321D02*
X47Y321D01*
X285Y321D02*
X293Y321D01*
X322Y321D02*
X356Y321D01*
X373Y321D02*
X379Y321D01*
X400Y321D02*
X406Y321D01*
X437Y321D02*
X443Y321D01*
X480Y321D02*
X486Y321D01*
X501Y321D02*
X507Y321D01*
X523Y321D02*
X529Y321D01*
X551Y321D02*
X557Y321D01*
X573Y321D02*
X579Y321D01*
X587Y321D02*
X593Y321D01*
X601Y321D02*
X607Y321D01*
X624Y321D02*
X630Y321D01*
X637Y321D02*
X644Y321D01*
X651Y321D02*
X657Y321D01*
X1639Y321D02*
X1639Y321D01*
X47Y320D02*
X47Y320D01*
X286Y320D02*
X294Y320D01*
X322Y320D02*
X356Y320D01*
X373Y320D02*
X379Y320D01*
X400Y320D02*
X406Y320D01*
X437Y320D02*
X443Y320D01*
X480Y320D02*
X486Y320D01*
X500Y320D02*
X507Y320D01*
X523Y320D02*
X529Y320D01*
X551Y320D02*
X557Y320D01*
X573Y320D02*
X579Y320D01*
X587Y320D02*
X593Y320D01*
X601Y320D02*
X607Y320D01*
X624Y320D02*
X630Y320D01*
X638Y320D02*
X644Y320D01*
X651Y320D02*
X657Y320D01*
X1639Y320D02*
X1639Y320D01*
X47Y319D02*
X47Y319D01*
X287Y319D02*
X295Y319D01*
X322Y319D02*
X356Y319D01*
X373Y319D02*
X379Y319D01*
X400Y319D02*
X406Y319D01*
X437Y319D02*
X443Y319D01*
X480Y319D02*
X486Y319D01*
X500Y319D02*
X506Y319D01*
X523Y319D02*
X530Y319D01*
X550Y319D02*
X557Y319D01*
X573Y319D02*
X579Y319D01*
X587Y319D02*
X593Y319D01*
X601Y319D02*
X607Y319D01*
X624Y319D02*
X630Y319D01*
X638Y319D02*
X645Y319D01*
X651Y319D02*
X657Y319D01*
X1639Y319D02*
X1639Y319D01*
X47Y318D02*
X47Y318D01*
X287Y318D02*
X295Y318D01*
X322Y318D02*
X356Y318D01*
X373Y318D02*
X379Y318D01*
X400Y318D02*
X406Y318D01*
X437Y318D02*
X443Y318D01*
X480Y318D02*
X486Y318D01*
X500Y318D02*
X506Y318D01*
X524Y318D02*
X530Y318D01*
X550Y318D02*
X556Y318D01*
X573Y318D02*
X579Y318D01*
X587Y318D02*
X593Y318D01*
X601Y318D02*
X607Y318D01*
X624Y318D02*
X630Y318D01*
X638Y318D02*
X645Y318D01*
X651Y318D02*
X657Y318D01*
X1639Y318D02*
X1639Y318D01*
X47Y317D02*
X47Y317D01*
X288Y317D02*
X296Y317D01*
X322Y317D02*
X328Y317D01*
X350Y317D02*
X356Y317D01*
X373Y317D02*
X379Y317D01*
X400Y317D02*
X406Y317D01*
X437Y317D02*
X443Y317D01*
X480Y317D02*
X486Y317D01*
X500Y317D02*
X506Y317D01*
X524Y317D02*
X530Y317D01*
X550Y317D02*
X556Y317D01*
X573Y317D02*
X579Y317D01*
X587Y317D02*
X593Y317D01*
X601Y317D02*
X607Y317D01*
X624Y317D02*
X630Y317D01*
X639Y317D02*
X646Y317D01*
X651Y317D02*
X657Y317D01*
X1639Y317D02*
X1639Y317D01*
X47Y316D02*
X47Y316D01*
X289Y316D02*
X297Y316D01*
X322Y316D02*
X328Y316D01*
X350Y316D02*
X356Y316D01*
X373Y316D02*
X379Y316D01*
X400Y316D02*
X406Y316D01*
X437Y316D02*
X443Y316D01*
X480Y316D02*
X486Y316D01*
X499Y316D02*
X506Y316D01*
X524Y316D02*
X531Y316D01*
X549Y316D02*
X556Y316D01*
X573Y316D02*
X579Y316D01*
X587Y316D02*
X593Y316D01*
X601Y316D02*
X607Y316D01*
X624Y316D02*
X630Y316D01*
X639Y316D02*
X646Y316D01*
X651Y316D02*
X657Y316D01*
X1639Y316D02*
X1639Y316D01*
X47Y315D02*
X47Y315D01*
X290Y315D02*
X298Y315D01*
X322Y315D02*
X328Y315D01*
X350Y315D02*
X356Y315D01*
X373Y315D02*
X379Y315D01*
X400Y315D02*
X406Y315D01*
X437Y315D02*
X443Y315D01*
X480Y315D02*
X486Y315D01*
X499Y315D02*
X505Y315D01*
X525Y315D02*
X531Y315D01*
X549Y315D02*
X555Y315D01*
X573Y315D02*
X579Y315D01*
X587Y315D02*
X593Y315D01*
X601Y315D02*
X607Y315D01*
X624Y315D02*
X630Y315D01*
X640Y315D02*
X646Y315D01*
X651Y315D02*
X657Y315D01*
X1639Y315D02*
X1639Y315D01*
X47Y314D02*
X47Y314D01*
X290Y314D02*
X299Y314D01*
X322Y314D02*
X328Y314D01*
X350Y314D02*
X356Y314D01*
X373Y314D02*
X379Y314D01*
X400Y314D02*
X406Y314D01*
X437Y314D02*
X443Y314D01*
X480Y314D02*
X486Y314D01*
X498Y314D02*
X505Y314D01*
X525Y314D02*
X532Y314D01*
X548Y314D02*
X555Y314D01*
X573Y314D02*
X579Y314D01*
X587Y314D02*
X593Y314D01*
X601Y314D02*
X607Y314D01*
X624Y314D02*
X630Y314D01*
X640Y314D02*
X647Y314D01*
X651Y314D02*
X657Y314D01*
X1639Y314D02*
X1639Y314D01*
X47Y313D02*
X47Y313D01*
X291Y313D02*
X299Y313D01*
X322Y313D02*
X328Y313D01*
X350Y313D02*
X356Y313D01*
X373Y313D02*
X379Y313D01*
X400Y313D02*
X406Y313D01*
X437Y313D02*
X443Y313D01*
X480Y313D02*
X486Y313D01*
X497Y313D02*
X504Y313D01*
X525Y313D02*
X532Y313D01*
X548Y313D02*
X555Y313D01*
X573Y313D02*
X579Y313D01*
X587Y313D02*
X593Y313D01*
X601Y313D02*
X607Y313D01*
X624Y313D02*
X630Y313D01*
X641Y313D02*
X647Y313D01*
X651Y313D02*
X657Y313D01*
X1639Y313D02*
X1639Y313D01*
X47Y312D02*
X47Y312D01*
X292Y312D02*
X300Y312D01*
X322Y312D02*
X328Y312D01*
X350Y312D02*
X356Y312D01*
X373Y312D02*
X379Y312D01*
X400Y312D02*
X406Y312D01*
X437Y312D02*
X443Y312D01*
X480Y312D02*
X486Y312D01*
X497Y312D02*
X504Y312D01*
X526Y312D02*
X533Y312D01*
X547Y312D02*
X554Y312D01*
X573Y312D02*
X579Y312D01*
X587Y312D02*
X593Y312D01*
X601Y312D02*
X607Y312D01*
X624Y312D02*
X630Y312D01*
X641Y312D02*
X648Y312D01*
X651Y312D02*
X657Y312D01*
X1639Y312D02*
X1639Y312D01*
X47Y311D02*
X47Y311D01*
X293Y311D02*
X301Y311D01*
X322Y311D02*
X328Y311D01*
X350Y311D02*
X356Y311D01*
X373Y311D02*
X379Y311D01*
X400Y311D02*
X406Y311D01*
X437Y311D02*
X443Y311D01*
X480Y311D02*
X486Y311D01*
X496Y311D02*
X503Y311D01*
X526Y311D02*
X533Y311D01*
X547Y311D02*
X554Y311D01*
X573Y311D02*
X579Y311D01*
X587Y311D02*
X593Y311D01*
X601Y311D02*
X607Y311D01*
X624Y311D02*
X630Y311D01*
X641Y311D02*
X648Y311D01*
X651Y311D02*
X657Y311D01*
X1639Y311D02*
X1639Y311D01*
X47Y310D02*
X47Y310D01*
X294Y310D02*
X302Y310D01*
X322Y310D02*
X328Y310D01*
X350Y310D02*
X356Y310D01*
X373Y310D02*
X379Y310D01*
X400Y310D02*
X406Y310D01*
X437Y310D02*
X443Y310D01*
X480Y310D02*
X486Y310D01*
X496Y310D02*
X503Y310D01*
X527Y310D02*
X534Y310D01*
X546Y310D02*
X553Y310D01*
X573Y310D02*
X579Y310D01*
X587Y310D02*
X593Y310D01*
X601Y310D02*
X607Y310D01*
X624Y310D02*
X630Y310D01*
X642Y310D02*
X649Y310D01*
X651Y310D02*
X657Y310D01*
X1639Y310D02*
X1639Y310D01*
X47Y309D02*
X47Y309D01*
X294Y309D02*
X302Y309D01*
X322Y309D02*
X328Y309D01*
X350Y309D02*
X356Y309D01*
X373Y309D02*
X379Y309D01*
X400Y309D02*
X406Y309D01*
X437Y309D02*
X443Y309D01*
X480Y309D02*
X486Y309D01*
X495Y309D02*
X502Y309D01*
X527Y309D02*
X534Y309D01*
X546Y309D02*
X553Y309D01*
X573Y309D02*
X579Y309D01*
X587Y309D02*
X593Y309D01*
X601Y309D02*
X607Y309D01*
X624Y309D02*
X630Y309D01*
X642Y309D02*
X649Y309D01*
X651Y309D02*
X657Y309D01*
X1639Y309D02*
X1639Y309D01*
X47Y308D02*
X47Y308D01*
X295Y308D02*
X303Y308D01*
X322Y308D02*
X328Y308D01*
X350Y308D02*
X356Y308D01*
X373Y308D02*
X379Y308D01*
X400Y308D02*
X406Y308D01*
X437Y308D02*
X443Y308D01*
X480Y308D02*
X486Y308D01*
X495Y308D02*
X502Y308D01*
X528Y308D02*
X535Y308D01*
X545Y308D02*
X552Y308D01*
X573Y308D02*
X579Y308D01*
X587Y308D02*
X593Y308D01*
X601Y308D02*
X607Y308D01*
X624Y308D02*
X630Y308D01*
X643Y308D02*
X657Y308D01*
X1639Y308D02*
X1639Y308D01*
X47Y307D02*
X47Y307D01*
X296Y307D02*
X304Y307D01*
X322Y307D02*
X328Y307D01*
X350Y307D02*
X356Y307D01*
X373Y307D02*
X379Y307D01*
X400Y307D02*
X406Y307D01*
X437Y307D02*
X443Y307D01*
X480Y307D02*
X486Y307D01*
X494Y307D02*
X501Y307D01*
X528Y307D02*
X535Y307D01*
X545Y307D02*
X552Y307D01*
X573Y307D02*
X579Y307D01*
X587Y307D02*
X593Y307D01*
X601Y307D02*
X607Y307D01*
X624Y307D02*
X630Y307D01*
X643Y307D02*
X657Y307D01*
X1639Y307D02*
X1639Y307D01*
X47Y306D02*
X47Y306D01*
X273Y306D02*
X277Y306D01*
X297Y306D02*
X305Y306D01*
X322Y306D02*
X328Y306D01*
X350Y306D02*
X356Y306D01*
X373Y306D02*
X379Y306D01*
X400Y306D02*
X406Y306D01*
X437Y306D02*
X443Y306D01*
X480Y306D02*
X486Y306D01*
X494Y306D02*
X501Y306D01*
X529Y306D02*
X536Y306D01*
X544Y306D02*
X551Y306D01*
X573Y306D02*
X579Y306D01*
X587Y306D02*
X593Y306D01*
X601Y306D02*
X607Y306D01*
X624Y306D02*
X630Y306D01*
X644Y306D02*
X657Y306D01*
X1639Y306D02*
X1639Y306D01*
X47Y305D02*
X47Y305D01*
X273Y305D02*
X278Y305D01*
X297Y305D02*
X305Y305D01*
X322Y305D02*
X328Y305D01*
X350Y305D02*
X356Y305D01*
X373Y305D02*
X379Y305D01*
X400Y305D02*
X406Y305D01*
X437Y305D02*
X443Y305D01*
X480Y305D02*
X486Y305D01*
X493Y305D02*
X500Y305D01*
X529Y305D02*
X536Y305D01*
X544Y305D02*
X551Y305D01*
X573Y305D02*
X579Y305D01*
X587Y305D02*
X593Y305D01*
X601Y305D02*
X607Y305D01*
X624Y305D02*
X630Y305D01*
X644Y305D02*
X657Y305D01*
X1639Y305D02*
X1639Y305D01*
X47Y304D02*
X47Y304D01*
X272Y304D02*
X278Y304D01*
X298Y304D02*
X306Y304D01*
X322Y304D02*
X328Y304D01*
X350Y304D02*
X356Y304D01*
X373Y304D02*
X379Y304D01*
X400Y304D02*
X406Y304D01*
X437Y304D02*
X443Y304D01*
X480Y304D02*
X486Y304D01*
X493Y304D02*
X500Y304D01*
X530Y304D02*
X537Y304D01*
X543Y304D02*
X550Y304D01*
X573Y304D02*
X580Y304D01*
X587Y304D02*
X594Y304D01*
X601Y304D02*
X607Y304D01*
X624Y304D02*
X630Y304D01*
X645Y304D02*
X657Y304D01*
X1639Y304D02*
X1639Y304D01*
X47Y303D02*
X47Y303D01*
X272Y303D02*
X278Y303D01*
X299Y303D02*
X306Y303D01*
X322Y303D02*
X328Y303D01*
X350Y303D02*
X356Y303D01*
X373Y303D02*
X379Y303D01*
X400Y303D02*
X406Y303D01*
X437Y303D02*
X443Y303D01*
X480Y303D02*
X486Y303D01*
X492Y303D02*
X499Y303D01*
X530Y303D02*
X537Y303D01*
X543Y303D02*
X550Y303D01*
X573Y303D02*
X580Y303D01*
X586Y303D02*
X594Y303D01*
X600Y303D02*
X607Y303D01*
X624Y303D02*
X630Y303D01*
X645Y303D02*
X657Y303D01*
X1639Y303D02*
X1639Y303D01*
X47Y302D02*
X47Y302D01*
X272Y302D02*
X279Y302D01*
X300Y302D02*
X306Y302D01*
X322Y302D02*
X328Y302D01*
X350Y302D02*
X356Y302D01*
X373Y302D02*
X380Y302D01*
X399Y302D02*
X406Y302D01*
X437Y302D02*
X443Y302D01*
X480Y302D02*
X486Y302D01*
X492Y302D02*
X499Y302D01*
X531Y302D02*
X538Y302D01*
X542Y302D02*
X549Y302D01*
X574Y302D02*
X581Y302D01*
X586Y302D02*
X595Y302D01*
X599Y302D02*
X607Y302D01*
X624Y302D02*
X630Y302D01*
X645Y302D02*
X657Y302D01*
X1639Y302D02*
X1639Y302D01*
X47Y301D02*
X47Y301D01*
X273Y301D02*
X306Y301D01*
X322Y301D02*
X328Y301D01*
X350Y301D02*
X356Y301D01*
X373Y301D02*
X406Y301D01*
X437Y301D02*
X443Y301D01*
X476Y301D02*
X498Y301D01*
X531Y301D02*
X549Y301D01*
X574Y301D02*
X606Y301D01*
X624Y301D02*
X630Y301D01*
X646Y301D02*
X657Y301D01*
X1639Y301D02*
X1639Y301D01*
X47Y300D02*
X47Y300D01*
X273Y300D02*
X305Y300D01*
X322Y300D02*
X328Y300D01*
X350Y300D02*
X356Y300D01*
X374Y300D02*
X405Y300D01*
X437Y300D02*
X443Y300D01*
X474Y300D02*
X498Y300D01*
X532Y300D02*
X548Y300D01*
X575Y300D02*
X605Y300D01*
X624Y300D02*
X630Y300D01*
X646Y300D02*
X657Y300D01*
X1639Y300D02*
X1639Y300D01*
X47Y299D02*
X47Y299D01*
X273Y299D02*
X305Y299D01*
X322Y299D02*
X328Y299D01*
X350Y299D02*
X356Y299D01*
X374Y299D02*
X405Y299D01*
X437Y299D02*
X443Y299D01*
X473Y299D02*
X497Y299D01*
X532Y299D02*
X548Y299D01*
X575Y299D02*
X605Y299D01*
X624Y299D02*
X630Y299D01*
X647Y299D02*
X657Y299D01*
X1639Y299D02*
X1639Y299D01*
X47Y298D02*
X47Y298D01*
X274Y298D02*
X305Y298D01*
X322Y298D02*
X328Y298D01*
X350Y298D02*
X356Y298D01*
X375Y298D02*
X404Y298D01*
X437Y298D02*
X443Y298D01*
X473Y298D02*
X497Y298D01*
X533Y298D02*
X547Y298D01*
X576Y298D02*
X604Y298D01*
X624Y298D02*
X630Y298D01*
X647Y298D02*
X657Y298D01*
X1639Y298D02*
X1639Y298D01*
X47Y297D02*
X47Y297D01*
X275Y297D02*
X304Y297D01*
X323Y297D02*
X328Y297D01*
X350Y297D02*
X356Y297D01*
X376Y297D02*
X403Y297D01*
X437Y297D02*
X442Y297D01*
X473Y297D02*
X496Y297D01*
X534Y297D02*
X546Y297D01*
X577Y297D02*
X604Y297D01*
X624Y297D02*
X630Y297D01*
X648Y297D02*
X657Y297D01*
X1639Y297D02*
X1639Y297D01*
X47Y296D02*
X47Y296D01*
X276Y296D02*
X303Y296D01*
X323Y296D02*
X328Y296D01*
X350Y296D02*
X356Y296D01*
X377Y296D02*
X402Y296D01*
X437Y296D02*
X442Y296D01*
X473Y296D02*
X494Y296D01*
X535Y296D02*
X545Y296D01*
X577Y296D02*
X589Y296D01*
X591Y296D02*
X603Y296D01*
X624Y296D02*
X629Y296D01*
X648Y296D02*
X657Y296D01*
X1639Y296D02*
X1639Y296D01*
X47Y295D02*
X47Y295D01*
X278Y295D02*
X301Y295D01*
X324Y295D02*
X327Y295D01*
X351Y295D02*
X355Y295D01*
X379Y295D02*
X400Y295D01*
X438Y295D02*
X441Y295D01*
X474Y295D02*
X492Y295D01*
X537Y295D02*
X543Y295D01*
X578Y295D02*
X588Y295D01*
X592Y295D02*
X602Y295D01*
X625Y295D02*
X628Y295D01*
X648Y295D02*
X657Y295D01*
X1639Y295D02*
X1639Y295D01*
X47Y294D02*
X47Y294D01*
X1639Y294D02*
X1639Y294D01*
X47Y293D02*
X47Y293D01*
X1639Y293D02*
X1639Y293D01*
X47Y292D02*
X47Y292D01*
X1639Y292D02*
X1639Y292D01*
X47Y291D02*
X47Y291D01*
X1639Y291D02*
X1639Y291D01*
X47Y290D02*
X47Y290D01*
X1639Y290D02*
X1639Y290D01*
X47Y289D02*
X47Y289D01*
X1639Y289D02*
X1639Y289D01*
X47Y288D02*
X47Y288D01*
X1639Y288D02*
X1639Y288D01*
X47Y287D02*
X47Y287D01*
X1639Y287D02*
X1639Y287D01*
X47Y286D02*
X47Y286D01*
X1639Y286D02*
X1639Y286D01*
X47Y285D02*
X47Y285D01*
X1639Y285D02*
X1639Y285D01*
X47Y284D02*
X47Y284D01*
X1639Y284D02*
X1639Y284D01*
X47Y283D02*
X47Y283D01*
X1639Y283D02*
X1639Y283D01*
X47Y282D02*
X47Y282D01*
X1639Y282D02*
X1639Y282D01*
X47Y281D02*
X47Y281D01*
X1639Y281D02*
X1639Y281D01*
X47Y280D02*
X47Y280D01*
X1639Y280D02*
X1639Y280D01*
X47Y279D02*
X47Y279D01*
X1639Y279D02*
X1639Y279D01*
X47Y278D02*
X47Y278D01*
X1639Y278D02*
X1639Y278D01*
X47Y277D02*
X47Y277D01*
X1639Y277D02*
X1639Y277D01*
X47Y276D02*
X47Y276D01*
X1639Y276D02*
X1639Y276D01*
X47Y275D02*
X47Y275D01*
X1639Y275D02*
X1639Y275D01*
X47Y274D02*
X47Y274D01*
X1639Y274D02*
X1639Y274D01*
X47Y273D02*
X47Y273D01*
X1639Y273D02*
X1639Y273D01*
X47Y272D02*
X47Y272D01*
X1639Y272D02*
X1639Y272D01*
X47Y271D02*
X47Y271D01*
X1639Y271D02*
X1639Y271D01*
X47Y270D02*
X47Y270D01*
X1639Y270D02*
X1639Y270D01*
X47Y269D02*
X47Y269D01*
X1639Y269D02*
X1639Y269D01*
X47Y268D02*
X47Y268D01*
X1639Y268D02*
X1639Y268D01*
X47Y267D02*
X47Y267D01*
X1639Y267D02*
X1639Y267D01*
X47Y266D02*
X47Y266D01*
X1639Y266D02*
X1639Y266D01*
X47Y265D02*
X47Y265D01*
X1639Y265D02*
X1639Y265D01*
X47Y264D02*
X47Y264D01*
X1639Y264D02*
X1639Y264D01*
X47Y263D02*
X47Y263D01*
X1639Y263D02*
X1639Y263D01*
X47Y262D02*
X47Y262D01*
X1639Y262D02*
X1639Y262D01*
X47Y261D02*
X47Y261D01*
X1639Y261D02*
X1639Y261D01*
X47Y260D02*
X47Y260D01*
X1639Y260D02*
X1639Y260D01*
X47Y259D02*
X47Y259D01*
X1639Y259D02*
X1639Y259D01*
X47Y258D02*
X47Y258D01*
X1639Y258D02*
X1639Y258D01*
X47Y257D02*
X47Y257D01*
X1639Y257D02*
X1639Y257D01*
X47Y256D02*
X47Y256D01*
X1639Y256D02*
X1639Y256D01*
X47Y255D02*
X47Y255D01*
X1639Y255D02*
X1639Y255D01*
X47Y254D02*
X47Y254D01*
X1639Y254D02*
X1639Y254D01*
X47Y253D02*
X47Y253D01*
X1639Y253D02*
X1639Y253D01*
X47Y252D02*
X47Y252D01*
X1639Y252D02*
X1639Y252D01*
X47Y251D02*
X47Y251D01*
X1639Y251D02*
X1639Y251D01*
X47Y250D02*
X47Y250D01*
X1639Y250D02*
X1639Y250D01*
X47Y249D02*
X47Y249D01*
X1639Y249D02*
X1639Y249D01*
X47Y248D02*
X47Y248D01*
X1639Y248D02*
X1639Y248D01*
X47Y247D02*
X47Y247D01*
X1639Y247D02*
X1639Y247D01*
X47Y246D02*
X47Y246D01*
X1639Y246D02*
X1639Y246D01*
X47Y245D02*
X47Y245D01*
X1639Y245D02*
X1639Y245D01*
X47Y244D02*
X47Y244D01*
X1639Y244D02*
X1639Y244D01*
X47Y243D02*
X47Y243D01*
X1639Y243D02*
X1639Y243D01*
X47Y242D02*
X47Y242D01*
X1639Y242D02*
X1639Y242D01*
X47Y241D02*
X47Y241D01*
X1639Y241D02*
X1639Y241D01*
X47Y240D02*
X47Y240D01*
X1639Y240D02*
X1639Y240D01*
X47Y239D02*
X47Y239D01*
X1639Y239D02*
X1639Y239D01*
X47Y238D02*
X47Y238D01*
X1639Y238D02*
X1639Y238D01*
X47Y237D02*
X47Y237D01*
X1639Y237D02*
X1639Y237D01*
X47Y236D02*
X47Y236D01*
X1639Y236D02*
X1639Y236D01*
X47Y235D02*
X47Y235D01*
X1639Y235D02*
X1639Y235D01*
X47Y234D02*
X47Y234D01*
X1639Y234D02*
X1639Y234D01*
X47Y233D02*
X47Y233D01*
X1639Y233D02*
X1639Y233D01*
X47Y232D02*
X47Y232D01*
X1639Y232D02*
X1639Y232D01*
X47Y231D02*
X47Y231D01*
X1639Y231D02*
X1639Y231D01*
X47Y230D02*
X47Y230D01*
X1639Y230D02*
X1639Y230D01*
X47Y229D02*
X47Y229D01*
X1639Y229D02*
X1639Y229D01*
X47Y228D02*
X47Y228D01*
X1639Y228D02*
X1639Y228D01*
X47Y227D02*
X47Y227D01*
X1639Y227D02*
X1639Y227D01*
X47Y226D02*
X47Y226D01*
X1639Y226D02*
X1639Y226D01*
X47Y225D02*
X47Y225D01*
X1639Y225D02*
X1639Y225D01*
X47Y224D02*
X47Y224D01*
X1639Y224D02*
X1639Y224D01*
X47Y223D02*
X47Y223D01*
X1639Y223D02*
X1639Y223D01*
X47Y222D02*
X47Y222D01*
X1639Y222D02*
X1639Y222D01*
X47Y221D02*
X47Y221D01*
X1639Y221D02*
X1639Y221D01*
X47Y220D02*
X47Y220D01*
X1639Y220D02*
X1639Y220D01*
X47Y219D02*
X47Y219D01*
X1639Y219D02*
X1639Y219D01*
X47Y218D02*
X47Y218D01*
X1639Y218D02*
X1639Y218D01*
X47Y217D02*
X47Y217D01*
X1639Y217D02*
X1639Y217D01*
X47Y216D02*
X47Y216D01*
X1639Y216D02*
X1639Y216D01*
X47Y215D02*
X47Y215D01*
X1639Y215D02*
X1639Y215D01*
X47Y214D02*
X47Y214D01*
X1639Y214D02*
X1639Y214D01*
X47Y213D02*
X47Y213D01*
X1639Y213D02*
X1639Y213D01*
X47Y212D02*
X47Y212D01*
X1639Y212D02*
X1639Y212D01*
X47Y211D02*
X47Y211D01*
X1639Y211D02*
X1639Y211D01*
X47Y210D02*
X47Y210D01*
X1639Y210D02*
X1639Y210D01*
X47Y209D02*
X47Y209D01*
X1639Y209D02*
X1639Y209D01*
X47Y208D02*
X47Y208D01*
X1639Y208D02*
X1639Y208D01*
X47Y207D02*
X47Y207D01*
X1639Y207D02*
X1639Y207D01*
X47Y206D02*
X47Y206D01*
X1639Y206D02*
X1639Y206D01*
X47Y205D02*
X47Y205D01*
X1639Y205D02*
X1639Y205D01*
X47Y204D02*
X47Y204D01*
X1639Y204D02*
X1639Y204D01*
X47Y203D02*
X47Y203D01*
X1639Y203D02*
X1639Y203D01*
X47Y202D02*
X47Y202D01*
X1639Y202D02*
X1639Y202D01*
X47Y201D02*
X47Y201D01*
X1639Y201D02*
X1639Y201D01*
X47Y200D02*
X47Y200D01*
X1639Y200D02*
X1639Y200D01*
X47Y199D02*
X47Y199D01*
X1639Y199D02*
X1639Y199D01*
X47Y198D02*
X47Y198D01*
X1639Y198D02*
X1639Y198D01*
X47Y197D02*
X47Y197D01*
X1639Y197D02*
X1639Y197D01*
X47Y196D02*
X47Y196D01*
X1639Y196D02*
X1639Y196D01*
X47Y195D02*
X47Y195D01*
X1639Y195D02*
X1639Y195D01*
X47Y194D02*
X47Y194D01*
X1639Y194D02*
X1639Y194D01*
X47Y193D02*
X47Y193D01*
X1639Y193D02*
X1639Y193D01*
X47Y192D02*
X47Y192D01*
X1639Y192D02*
X1639Y192D01*
X47Y191D02*
X47Y191D01*
X1639Y191D02*
X1639Y191D01*
X47Y190D02*
X47Y190D01*
X1639Y190D02*
X1639Y190D01*
X47Y189D02*
X47Y189D01*
X901Y189D02*
X918Y189D01*
X964Y189D02*
X969Y189D01*
X1001Y189D02*
X1004Y189D01*
X1029Y189D02*
X1032Y189D01*
X1050Y189D02*
X1059Y189D01*
X1079Y189D02*
X1082Y189D01*
X1639Y189D02*
X1639Y189D01*
X47Y188D02*
X47Y188D01*
X900Y188D02*
X920Y188D01*
X962Y188D02*
X971Y188D01*
X1000Y188D02*
X1005Y188D01*
X1028Y188D02*
X1033Y188D01*
X1050Y188D02*
X1059Y188D01*
X1078Y188D02*
X1083Y188D01*
X1639Y188D02*
X1639Y188D01*
X47Y187D02*
X47Y187D01*
X900Y187D02*
X922Y187D01*
X961Y187D02*
X972Y187D01*
X1000Y187D02*
X1006Y187D01*
X1028Y187D02*
X1033Y187D01*
X1050Y187D02*
X1059Y187D01*
X1078Y187D02*
X1083Y187D01*
X1639Y187D02*
X1639Y187D01*
X47Y186D02*
X47Y186D01*
X899Y186D02*
X923Y186D01*
X960Y186D02*
X973Y186D01*
X1000Y186D02*
X1006Y186D01*
X1027Y186D02*
X1033Y186D01*
X1050Y186D02*
X1060Y186D01*
X1078Y186D02*
X1084Y186D01*
X1639Y186D02*
X1639Y186D01*
X47Y185D02*
X47Y185D01*
X900Y185D02*
X923Y185D01*
X959Y185D02*
X974Y185D01*
X1000Y185D02*
X1006Y185D01*
X1027Y185D02*
X1033Y185D01*
X1050Y185D02*
X1060Y185D01*
X1078Y185D02*
X1084Y185D01*
X1639Y185D02*
X1639Y185D01*
X47Y184D02*
X47Y184D01*
X900Y184D02*
X924Y184D01*
X958Y184D02*
X974Y184D01*
X1000Y184D02*
X1006Y184D01*
X1027Y184D02*
X1033Y184D01*
X1050Y184D02*
X1061Y184D01*
X1078Y184D02*
X1084Y184D01*
X1639Y184D02*
X1639Y184D01*
X47Y183D02*
X47Y183D01*
X901Y183D02*
X925Y183D01*
X958Y183D02*
X975Y183D01*
X1000Y183D02*
X1006Y183D01*
X1027Y183D02*
X1033Y183D01*
X1050Y183D02*
X1061Y183D01*
X1078Y183D02*
X1084Y183D01*
X1639Y183D02*
X1639Y183D01*
X47Y182D02*
X47Y182D01*
X906Y182D02*
X912Y182D01*
X918Y182D02*
X925Y182D01*
X957Y182D02*
X965Y182D01*
X968Y182D02*
X975Y182D01*
X1000Y182D02*
X1006Y182D01*
X1027Y182D02*
X1033Y182D01*
X1050Y182D02*
X1062Y182D01*
X1078Y182D02*
X1084Y182D01*
X1639Y182D02*
X1639Y182D01*
X47Y181D02*
X47Y181D01*
X906Y181D02*
X912Y181D01*
X919Y181D02*
X926Y181D01*
X957Y181D02*
X964Y181D01*
X969Y181D02*
X976Y181D01*
X1000Y181D02*
X1006Y181D01*
X1027Y181D02*
X1033Y181D01*
X1050Y181D02*
X1062Y181D01*
X1078Y181D02*
X1084Y181D01*
X1639Y181D02*
X1639Y181D01*
X47Y180D02*
X47Y180D01*
X906Y180D02*
X912Y180D01*
X919Y180D02*
X926Y180D01*
X956Y180D02*
X963Y180D01*
X969Y180D02*
X976Y180D01*
X1000Y180D02*
X1006Y180D01*
X1027Y180D02*
X1033Y180D01*
X1050Y180D02*
X1062Y180D01*
X1078Y180D02*
X1084Y180D01*
X1639Y180D02*
X1639Y180D01*
X47Y179D02*
X47Y179D01*
X906Y179D02*
X912Y179D01*
X920Y179D02*
X927Y179D01*
X956Y179D02*
X963Y179D01*
X970Y179D02*
X977Y179D01*
X1000Y179D02*
X1006Y179D01*
X1027Y179D02*
X1033Y179D01*
X1050Y179D02*
X1063Y179D01*
X1078Y179D02*
X1084Y179D01*
X1639Y179D02*
X1639Y179D01*
X47Y178D02*
X47Y178D01*
X906Y178D02*
X912Y178D01*
X920Y178D02*
X927Y178D01*
X955Y178D02*
X962Y178D01*
X970Y178D02*
X977Y178D01*
X1000Y178D02*
X1006Y178D01*
X1027Y178D02*
X1033Y178D01*
X1050Y178D02*
X1063Y178D01*
X1078Y178D02*
X1084Y178D01*
X1639Y178D02*
X1639Y178D01*
X47Y177D02*
X47Y177D01*
X906Y177D02*
X912Y177D01*
X921Y177D02*
X928Y177D01*
X955Y177D02*
X962Y177D01*
X971Y177D02*
X978Y177D01*
X1000Y177D02*
X1006Y177D01*
X1027Y177D02*
X1033Y177D01*
X1050Y177D02*
X1064Y177D01*
X1078Y177D02*
X1084Y177D01*
X1639Y177D02*
X1639Y177D01*
X47Y176D02*
X47Y176D01*
X906Y176D02*
X912Y176D01*
X921Y176D02*
X928Y176D01*
X954Y176D02*
X961Y176D01*
X971Y176D02*
X978Y176D01*
X1000Y176D02*
X1006Y176D01*
X1027Y176D02*
X1033Y176D01*
X1050Y176D02*
X1064Y176D01*
X1078Y176D02*
X1084Y176D01*
X1639Y176D02*
X1639Y176D01*
X47Y175D02*
X47Y175D01*
X906Y175D02*
X912Y175D01*
X922Y175D02*
X929Y175D01*
X954Y175D02*
X961Y175D01*
X972Y175D02*
X979Y175D01*
X1000Y175D02*
X1006Y175D01*
X1027Y175D02*
X1033Y175D01*
X1050Y175D02*
X1056Y175D01*
X1058Y175D02*
X1065Y175D01*
X1078Y175D02*
X1084Y175D01*
X1639Y175D02*
X1639Y175D01*
X47Y174D02*
X47Y174D01*
X906Y174D02*
X912Y174D01*
X922Y174D02*
X929Y174D01*
X953Y174D02*
X960Y174D01*
X972Y174D02*
X979Y174D01*
X1000Y174D02*
X1006Y174D01*
X1027Y174D02*
X1033Y174D01*
X1050Y174D02*
X1056Y174D01*
X1058Y174D02*
X1065Y174D01*
X1078Y174D02*
X1084Y174D01*
X1639Y174D02*
X1639Y174D01*
X47Y173D02*
X47Y173D01*
X906Y173D02*
X912Y173D01*
X923Y173D02*
X930Y173D01*
X953Y173D02*
X960Y173D01*
X973Y173D02*
X980Y173D01*
X1000Y173D02*
X1006Y173D01*
X1027Y173D02*
X1033Y173D01*
X1050Y173D02*
X1056Y173D01*
X1059Y173D02*
X1066Y173D01*
X1078Y173D02*
X1084Y173D01*
X1639Y173D02*
X1639Y173D01*
X47Y172D02*
X47Y172D01*
X906Y172D02*
X912Y172D01*
X923Y172D02*
X930Y172D01*
X952Y172D02*
X959Y172D01*
X973Y172D02*
X980Y172D01*
X1000Y172D02*
X1006Y172D01*
X1027Y172D02*
X1033Y172D01*
X1050Y172D02*
X1056Y172D01*
X1059Y172D02*
X1066Y172D01*
X1078Y172D02*
X1084Y172D01*
X1639Y172D02*
X1639Y172D01*
X47Y171D02*
X47Y171D01*
X906Y171D02*
X912Y171D01*
X924Y171D02*
X931Y171D01*
X952Y171D02*
X959Y171D01*
X974Y171D02*
X981Y171D01*
X1000Y171D02*
X1006Y171D01*
X1015Y171D02*
X1018Y171D01*
X1027Y171D02*
X1033Y171D01*
X1050Y171D02*
X1056Y171D01*
X1060Y171D02*
X1066Y171D01*
X1078Y171D02*
X1084Y171D01*
X1639Y171D02*
X1639Y171D01*
X47Y170D02*
X47Y170D01*
X906Y170D02*
X912Y170D01*
X924Y170D02*
X931Y170D01*
X951Y170D02*
X958Y170D01*
X974Y170D02*
X981Y170D01*
X1000Y170D02*
X1006Y170D01*
X1014Y170D02*
X1019Y170D01*
X1027Y170D02*
X1033Y170D01*
X1050Y170D02*
X1056Y170D01*
X1060Y170D02*
X1067Y170D01*
X1078Y170D02*
X1084Y170D01*
X1639Y170D02*
X1639Y170D01*
X47Y169D02*
X47Y169D01*
X906Y169D02*
X912Y169D01*
X925Y169D02*
X931Y169D01*
X951Y169D02*
X958Y169D01*
X975Y169D02*
X982Y169D01*
X1000Y169D02*
X1006Y169D01*
X1014Y169D02*
X1019Y169D01*
X1027Y169D02*
X1033Y169D01*
X1050Y169D02*
X1056Y169D01*
X1061Y169D02*
X1067Y169D01*
X1078Y169D02*
X1084Y169D01*
X1639Y169D02*
X1639Y169D01*
X47Y168D02*
X47Y168D01*
X906Y168D02*
X912Y168D01*
X925Y168D02*
X932Y168D01*
X951Y168D02*
X957Y168D01*
X975Y168D02*
X982Y168D01*
X1000Y168D02*
X1006Y168D01*
X1014Y168D02*
X1020Y168D01*
X1027Y168D02*
X1033Y168D01*
X1050Y168D02*
X1056Y168D01*
X1061Y168D02*
X1068Y168D01*
X1078Y168D02*
X1084Y168D01*
X1639Y168D02*
X1639Y168D01*
X47Y167D02*
X47Y167D01*
X906Y167D02*
X912Y167D01*
X926Y167D02*
X932Y167D01*
X950Y167D02*
X957Y167D01*
X976Y167D02*
X982Y167D01*
X1000Y167D02*
X1006Y167D01*
X1014Y167D02*
X1020Y167D01*
X1027Y167D02*
X1033Y167D01*
X1050Y167D02*
X1056Y167D01*
X1061Y167D02*
X1068Y167D01*
X1078Y167D02*
X1084Y167D01*
X1639Y167D02*
X1639Y167D01*
X47Y166D02*
X47Y166D01*
X906Y166D02*
X912Y166D01*
X926Y166D02*
X933Y166D01*
X950Y166D02*
X956Y166D01*
X976Y166D02*
X983Y166D01*
X1000Y166D02*
X1006Y166D01*
X1014Y166D02*
X1020Y166D01*
X1027Y166D02*
X1033Y166D01*
X1050Y166D02*
X1056Y166D01*
X1062Y166D02*
X1069Y166D01*
X1078Y166D02*
X1084Y166D01*
X1639Y166D02*
X1639Y166D01*
X47Y165D02*
X47Y165D01*
X906Y165D02*
X912Y165D01*
X927Y165D02*
X933Y165D01*
X950Y165D02*
X956Y165D01*
X977Y165D02*
X983Y165D01*
X1000Y165D02*
X1006Y165D01*
X1014Y165D02*
X1020Y165D01*
X1027Y165D02*
X1033Y165D01*
X1050Y165D02*
X1056Y165D01*
X1062Y165D02*
X1069Y165D01*
X1078Y165D02*
X1084Y165D01*
X1639Y165D02*
X1639Y165D01*
X47Y164D02*
X47Y164D01*
X906Y164D02*
X912Y164D01*
X927Y164D02*
X933Y164D01*
X950Y164D02*
X956Y164D01*
X977Y164D02*
X983Y164D01*
X1000Y164D02*
X1006Y164D01*
X1014Y164D02*
X1020Y164D01*
X1027Y164D02*
X1033Y164D01*
X1050Y164D02*
X1056Y164D01*
X1063Y164D02*
X1069Y164D01*
X1078Y164D02*
X1084Y164D01*
X1639Y164D02*
X1639Y164D01*
X47Y163D02*
X47Y163D01*
X906Y163D02*
X912Y163D01*
X927Y163D02*
X933Y163D01*
X950Y163D02*
X956Y163D01*
X977Y163D02*
X983Y163D01*
X1000Y163D02*
X1006Y163D01*
X1014Y163D02*
X1020Y163D01*
X1027Y163D02*
X1033Y163D01*
X1050Y163D02*
X1056Y163D01*
X1063Y163D02*
X1070Y163D01*
X1078Y163D02*
X1084Y163D01*
X1639Y163D02*
X1639Y163D01*
X47Y162D02*
X47Y162D01*
X906Y162D02*
X912Y162D01*
X927Y162D02*
X933Y162D01*
X950Y162D02*
X956Y162D01*
X977Y162D02*
X983Y162D01*
X1000Y162D02*
X1006Y162D01*
X1014Y162D02*
X1020Y162D01*
X1027Y162D02*
X1033Y162D01*
X1050Y162D02*
X1056Y162D01*
X1064Y162D02*
X1070Y162D01*
X1078Y162D02*
X1084Y162D01*
X1639Y162D02*
X1639Y162D01*
X47Y161D02*
X47Y161D01*
X906Y161D02*
X912Y161D01*
X927Y161D02*
X933Y161D01*
X950Y161D02*
X956Y161D01*
X977Y161D02*
X983Y161D01*
X1000Y161D02*
X1006Y161D01*
X1014Y161D02*
X1020Y161D01*
X1027Y161D02*
X1033Y161D01*
X1050Y161D02*
X1056Y161D01*
X1064Y161D02*
X1071Y161D01*
X1078Y161D02*
X1084Y161D01*
X1639Y161D02*
X1639Y161D01*
X47Y160D02*
X47Y160D01*
X906Y160D02*
X912Y160D01*
X926Y160D02*
X933Y160D01*
X950Y160D02*
X956Y160D01*
X977Y160D02*
X983Y160D01*
X1000Y160D02*
X1006Y160D01*
X1014Y160D02*
X1020Y160D01*
X1027Y160D02*
X1033Y160D01*
X1050Y160D02*
X1056Y160D01*
X1065Y160D02*
X1071Y160D01*
X1078Y160D02*
X1084Y160D01*
X1639Y160D02*
X1639Y160D01*
X47Y159D02*
X47Y159D01*
X906Y159D02*
X912Y159D01*
X926Y159D02*
X933Y159D01*
X950Y159D02*
X956Y159D01*
X976Y159D02*
X983Y159D01*
X1000Y159D02*
X1006Y159D01*
X1014Y159D02*
X1020Y159D01*
X1027Y159D02*
X1033Y159D01*
X1050Y159D02*
X1056Y159D01*
X1065Y159D02*
X1072Y159D01*
X1078Y159D02*
X1084Y159D01*
X1639Y159D02*
X1639Y159D01*
X47Y158D02*
X47Y158D01*
X906Y158D02*
X912Y158D01*
X926Y158D02*
X932Y158D01*
X950Y158D02*
X957Y158D01*
X976Y158D02*
X982Y158D01*
X1000Y158D02*
X1006Y158D01*
X1014Y158D02*
X1020Y158D01*
X1027Y158D02*
X1033Y158D01*
X1050Y158D02*
X1056Y158D01*
X1065Y158D02*
X1072Y158D01*
X1078Y158D02*
X1084Y158D01*
X1639Y158D02*
X1639Y158D01*
X47Y157D02*
X47Y157D01*
X906Y157D02*
X912Y157D01*
X925Y157D02*
X932Y157D01*
X951Y157D02*
X957Y157D01*
X975Y157D02*
X982Y157D01*
X1000Y157D02*
X1006Y157D01*
X1014Y157D02*
X1020Y157D01*
X1027Y157D02*
X1033Y157D01*
X1050Y157D02*
X1056Y157D01*
X1066Y157D02*
X1073Y157D01*
X1078Y157D02*
X1084Y157D01*
X1639Y157D02*
X1639Y157D01*
X47Y156D02*
X47Y156D01*
X906Y156D02*
X912Y156D01*
X925Y156D02*
X931Y156D01*
X951Y156D02*
X958Y156D01*
X975Y156D02*
X982Y156D01*
X1000Y156D02*
X1006Y156D01*
X1014Y156D02*
X1020Y156D01*
X1027Y156D02*
X1033Y156D01*
X1050Y156D02*
X1056Y156D01*
X1066Y156D02*
X1073Y156D01*
X1078Y156D02*
X1084Y156D01*
X1639Y156D02*
X1639Y156D01*
X47Y155D02*
X47Y155D01*
X906Y155D02*
X912Y155D01*
X924Y155D02*
X931Y155D01*
X951Y155D02*
X958Y155D01*
X974Y155D02*
X981Y155D01*
X1000Y155D02*
X1006Y155D01*
X1014Y155D02*
X1020Y155D01*
X1027Y155D02*
X1033Y155D01*
X1050Y155D02*
X1056Y155D01*
X1067Y155D02*
X1073Y155D01*
X1078Y155D02*
X1084Y155D01*
X1639Y155D02*
X1639Y155D01*
X47Y154D02*
X47Y154D01*
X906Y154D02*
X912Y154D01*
X924Y154D02*
X931Y154D01*
X952Y154D02*
X959Y154D01*
X974Y154D02*
X981Y154D01*
X1000Y154D02*
X1006Y154D01*
X1014Y154D02*
X1020Y154D01*
X1027Y154D02*
X1033Y154D01*
X1050Y154D02*
X1056Y154D01*
X1067Y154D02*
X1074Y154D01*
X1078Y154D02*
X1084Y154D01*
X1639Y154D02*
X1639Y154D01*
X47Y153D02*
X47Y153D01*
X906Y153D02*
X912Y153D01*
X923Y153D02*
X930Y153D01*
X952Y153D02*
X959Y153D01*
X973Y153D02*
X980Y153D01*
X1000Y153D02*
X1006Y153D01*
X1014Y153D02*
X1020Y153D01*
X1027Y153D02*
X1033Y153D01*
X1050Y153D02*
X1056Y153D01*
X1068Y153D02*
X1074Y153D01*
X1078Y153D02*
X1084Y153D01*
X1639Y153D02*
X1639Y153D01*
X47Y152D02*
X47Y152D01*
X906Y152D02*
X912Y152D01*
X923Y152D02*
X930Y152D01*
X953Y152D02*
X960Y152D01*
X973Y152D02*
X980Y152D01*
X1000Y152D02*
X1006Y152D01*
X1014Y152D02*
X1020Y152D01*
X1027Y152D02*
X1033Y152D01*
X1050Y152D02*
X1056Y152D01*
X1068Y152D02*
X1075Y152D01*
X1078Y152D02*
X1084Y152D01*
X1639Y152D02*
X1639Y152D01*
X47Y151D02*
X47Y151D01*
X906Y151D02*
X912Y151D01*
X922Y151D02*
X929Y151D01*
X953Y151D02*
X960Y151D01*
X972Y151D02*
X979Y151D01*
X1000Y151D02*
X1006Y151D01*
X1014Y151D02*
X1020Y151D01*
X1027Y151D02*
X1033Y151D01*
X1050Y151D02*
X1056Y151D01*
X1068Y151D02*
X1075Y151D01*
X1078Y151D02*
X1084Y151D01*
X1639Y151D02*
X1639Y151D01*
X47Y150D02*
X47Y150D01*
X906Y150D02*
X912Y150D01*
X922Y150D02*
X929Y150D01*
X954Y150D02*
X961Y150D01*
X972Y150D02*
X979Y150D01*
X1000Y150D02*
X1006Y150D01*
X1014Y150D02*
X1020Y150D01*
X1027Y150D02*
X1033Y150D01*
X1050Y150D02*
X1056Y150D01*
X1069Y150D02*
X1076Y150D01*
X1078Y150D02*
X1084Y150D01*
X1639Y150D02*
X1639Y150D01*
X47Y149D02*
X47Y149D01*
X906Y149D02*
X912Y149D01*
X921Y149D02*
X928Y149D01*
X954Y149D02*
X961Y149D01*
X971Y149D02*
X978Y149D01*
X1000Y149D02*
X1006Y149D01*
X1014Y149D02*
X1020Y149D01*
X1027Y149D02*
X1033Y149D01*
X1050Y149D02*
X1056Y149D01*
X1069Y149D02*
X1084Y149D01*
X1639Y149D02*
X1639Y149D01*
X47Y148D02*
X47Y148D01*
X906Y148D02*
X912Y148D01*
X921Y148D02*
X928Y148D01*
X955Y148D02*
X962Y148D01*
X971Y148D02*
X978Y148D01*
X1000Y148D02*
X1006Y148D01*
X1014Y148D02*
X1020Y148D01*
X1027Y148D02*
X1033Y148D01*
X1050Y148D02*
X1056Y148D01*
X1070Y148D02*
X1084Y148D01*
X1639Y148D02*
X1639Y148D01*
X47Y147D02*
X47Y147D01*
X906Y147D02*
X912Y147D01*
X920Y147D02*
X927Y147D01*
X955Y147D02*
X962Y147D01*
X970Y147D02*
X977Y147D01*
X1000Y147D02*
X1006Y147D01*
X1014Y147D02*
X1020Y147D01*
X1027Y147D02*
X1033Y147D01*
X1050Y147D02*
X1056Y147D01*
X1070Y147D02*
X1084Y147D01*
X1639Y147D02*
X1639Y147D01*
X47Y146D02*
X47Y146D01*
X906Y146D02*
X912Y146D01*
X920Y146D02*
X927Y146D01*
X956Y146D02*
X963Y146D01*
X970Y146D02*
X977Y146D01*
X1000Y146D02*
X1006Y146D01*
X1013Y146D02*
X1020Y146D01*
X1027Y146D02*
X1033Y146D01*
X1050Y146D02*
X1056Y146D01*
X1071Y146D02*
X1084Y146D01*
X1639Y146D02*
X1639Y146D01*
X47Y145D02*
X47Y145D01*
X906Y145D02*
X912Y145D01*
X919Y145D02*
X926Y145D01*
X956Y145D02*
X963Y145D01*
X969Y145D02*
X976Y145D01*
X1000Y145D02*
X1006Y145D01*
X1013Y145D02*
X1020Y145D01*
X1027Y145D02*
X1033Y145D01*
X1050Y145D02*
X1056Y145D01*
X1071Y145D02*
X1084Y145D01*
X1639Y145D02*
X1639Y145D01*
X47Y144D02*
X47Y144D01*
X906Y144D02*
X912Y144D01*
X919Y144D02*
X926Y144D01*
X957Y144D02*
X964Y144D01*
X969Y144D02*
X976Y144D01*
X1000Y144D02*
X1007Y144D01*
X1012Y144D02*
X1021Y144D01*
X1026Y144D02*
X1033Y144D01*
X1050Y144D02*
X1056Y144D01*
X1072Y144D02*
X1084Y144D01*
X1639Y144D02*
X1639Y144D01*
X47Y143D02*
X47Y143D01*
X906Y143D02*
X912Y143D01*
X918Y143D02*
X925Y143D01*
X957Y143D02*
X965Y143D01*
X968Y143D02*
X975Y143D01*
X1000Y143D02*
X1007Y143D01*
X1012Y143D02*
X1021Y143D01*
X1026Y143D02*
X1033Y143D01*
X1050Y143D02*
X1056Y143D01*
X1072Y143D02*
X1084Y143D01*
X1639Y143D02*
X1639Y143D01*
X47Y142D02*
X47Y142D01*
X901Y142D02*
X925Y142D01*
X958Y142D02*
X975Y142D01*
X1001Y142D02*
X1032Y142D01*
X1050Y142D02*
X1056Y142D01*
X1072Y142D02*
X1084Y142D01*
X1639Y142D02*
X1639Y142D01*
X47Y141D02*
X47Y141D01*
X900Y141D02*
X924Y141D01*
X958Y141D02*
X974Y141D01*
X1001Y141D02*
X1032Y141D01*
X1050Y141D02*
X1056Y141D01*
X1073Y141D02*
X1084Y141D01*
X1639Y141D02*
X1639Y141D01*
X47Y140D02*
X47Y140D01*
X900Y140D02*
X923Y140D01*
X959Y140D02*
X974Y140D01*
X1002Y140D02*
X1031Y140D01*
X1050Y140D02*
X1056Y140D01*
X1073Y140D02*
X1084Y140D01*
X1639Y140D02*
X1639Y140D01*
X47Y139D02*
X47Y139D01*
X899Y139D02*
X923Y139D01*
X960Y139D02*
X973Y139D01*
X1003Y139D02*
X1030Y139D01*
X1050Y139D02*
X1056Y139D01*
X1074Y139D02*
X1084Y139D01*
X1639Y139D02*
X1639Y139D01*
X47Y138D02*
X47Y138D01*
X900Y138D02*
X922Y138D01*
X961Y138D02*
X972Y138D01*
X1003Y138D02*
X1030Y138D01*
X1050Y138D02*
X1056Y138D01*
X1074Y138D02*
X1084Y138D01*
X1639Y138D02*
X1639Y138D01*
X47Y137D02*
X47Y137D01*
X900Y137D02*
X920Y137D01*
X962Y137D02*
X971Y137D01*
X1004Y137D02*
X1015Y137D01*
X1018Y137D02*
X1029Y137D01*
X1051Y137D02*
X1055Y137D01*
X1075Y137D02*
X1084Y137D01*
X1639Y137D02*
X1639Y137D01*
X47Y136D02*
X47Y136D01*
X901Y136D02*
X918Y136D01*
X964Y136D02*
X969Y136D01*
X1005Y136D02*
X1014Y136D01*
X1019Y136D02*
X1028Y136D01*
X1052Y136D02*
X1054Y136D01*
X1075Y136D02*
X1084Y136D01*
X1639Y136D02*
X1639Y136D01*
X47Y135D02*
X47Y135D01*
X1639Y135D02*
X1639Y135D01*
X47Y134D02*
X47Y134D01*
X1639Y134D02*
X1639Y134D01*
X47Y133D02*
X47Y133D01*
X1639Y133D02*
X1639Y133D01*
X47Y132D02*
X47Y132D01*
X1639Y132D02*
X1639Y132D01*
X47Y131D02*
X47Y131D01*
X594Y131D02*
X619Y131D01*
X647Y131D02*
X652Y131D01*
X687Y131D02*
X692Y131D01*
X720Y131D02*
X764Y131D01*
X790Y131D02*
X829Y131D01*
X954Y131D02*
X963Y131D01*
X1009Y131D02*
X1013Y131D01*
X1079Y131D02*
X1125Y131D01*
X1153Y131D02*
X1179Y131D01*
X1639Y131D02*
X1639Y131D01*
X47Y130D02*
X47Y130D01*
X591Y130D02*
X621Y130D01*
X646Y130D02*
X653Y130D01*
X686Y130D02*
X693Y130D01*
X719Y130D02*
X765Y130D01*
X790Y130D02*
X831Y130D01*
X952Y130D02*
X965Y130D01*
X1008Y130D02*
X1015Y130D01*
X1079Y130D02*
X1127Y130D01*
X1152Y130D02*
X1181Y130D01*
X1639Y130D02*
X1639Y130D01*
X47Y129D02*
X47Y129D01*
X590Y129D02*
X621Y129D01*
X646Y129D02*
X654Y129D01*
X685Y129D02*
X694Y129D01*
X718Y129D02*
X766Y129D01*
X790Y129D02*
X832Y129D01*
X951Y129D02*
X966Y129D01*
X1007Y129D02*
X1015Y129D01*
X1079Y129D02*
X1127Y129D01*
X1152Y129D02*
X1183Y129D01*
X1639Y129D02*
X1639Y129D01*
X47Y128D02*
X47Y128D01*
X589Y128D02*
X622Y128D01*
X645Y128D02*
X654Y128D01*
X685Y128D02*
X694Y128D01*
X718Y128D02*
X766Y128D01*
X790Y128D02*
X834Y128D01*
X950Y128D02*
X968Y128D01*
X1007Y128D02*
X1016Y128D01*
X1079Y128D02*
X1128Y128D01*
X1151Y128D02*
X1184Y128D01*
X1639Y128D02*
X1639Y128D01*
X47Y127D02*
X47Y127D01*
X588Y127D02*
X622Y127D01*
X645Y127D02*
X654Y127D01*
X685Y127D02*
X694Y127D01*
X718Y127D02*
X766Y127D01*
X790Y127D02*
X835Y127D01*
X949Y127D02*
X968Y127D01*
X1007Y127D02*
X1016Y127D01*
X1079Y127D02*
X1128Y127D01*
X1151Y127D02*
X1185Y127D01*
X1639Y127D02*
X1639Y127D01*
X47Y126D02*
X47Y126D01*
X587Y126D02*
X622Y126D01*
X645Y126D02*
X654Y126D01*
X685Y126D02*
X694Y126D01*
X718Y126D02*
X766Y126D01*
X790Y126D02*
X835Y126D01*
X948Y126D02*
X969Y126D01*
X1007Y126D02*
X1016Y126D01*
X1079Y126D02*
X1128Y126D01*
X1151Y126D02*
X1186Y126D01*
X1639Y126D02*
X1639Y126D01*
X47Y125D02*
X47Y125D01*
X586Y125D02*
X621Y125D01*
X645Y125D02*
X654Y125D01*
X685Y125D02*
X694Y125D01*
X718Y125D02*
X766Y125D01*
X790Y125D02*
X836Y125D01*
X948Y125D02*
X970Y125D01*
X1007Y125D02*
X1016Y125D01*
X1079Y125D02*
X1127Y125D01*
X1152Y125D02*
X1187Y125D01*
X1639Y125D02*
X1639Y125D01*
X47Y124D02*
X47Y124D01*
X586Y124D02*
X621Y124D01*
X645Y124D02*
X654Y124D01*
X685Y124D02*
X694Y124D01*
X719Y124D02*
X765Y124D01*
X790Y124D02*
X837Y124D01*
X947Y124D02*
X970Y124D01*
X1007Y124D02*
X1016Y124D01*
X1079Y124D02*
X1127Y124D01*
X1152Y124D02*
X1187Y124D01*
X1639Y124D02*
X1639Y124D01*
X47Y123D02*
X47Y123D01*
X585Y123D02*
X620Y123D01*
X645Y123D02*
X654Y123D01*
X685Y123D02*
X694Y123D01*
X720Y123D02*
X764Y123D01*
X790Y123D02*
X837Y123D01*
X947Y123D02*
X971Y123D01*
X1007Y123D02*
X1016Y123D01*
X1079Y123D02*
X1126Y123D01*
X1153Y123D02*
X1188Y123D01*
X1639Y123D02*
X1639Y123D01*
X47Y122D02*
X47Y122D01*
X585Y122D02*
X617Y122D01*
X645Y122D02*
X654Y122D01*
X685Y122D02*
X694Y122D01*
X722Y122D02*
X762Y122D01*
X790Y122D02*
X838Y122D01*
X946Y122D02*
X971Y122D01*
X1007Y122D02*
X1016Y122D01*
X1079Y122D02*
X1123Y122D01*
X1156Y122D02*
X1188Y122D01*
X1639Y122D02*
X1639Y122D01*
X47Y121D02*
X47Y121D01*
X584Y121D02*
X595Y121D01*
X645Y121D02*
X654Y121D01*
X685Y121D02*
X694Y121D01*
X737Y121D02*
X746Y121D01*
X790Y121D02*
X799Y121D01*
X827Y121D02*
X838Y121D01*
X946Y121D02*
X956Y121D01*
X961Y121D02*
X972Y121D01*
X1007Y121D02*
X1016Y121D01*
X1079Y121D02*
X1088Y121D01*
X1161Y121D02*
X1170Y121D01*
X1178Y121D02*
X1189Y121D01*
X1639Y121D02*
X1639Y121D01*
X47Y120D02*
X47Y120D01*
X584Y120D02*
X594Y120D01*
X645Y120D02*
X654Y120D01*
X685Y120D02*
X694Y120D01*
X737Y120D02*
X746Y120D01*
X790Y120D02*
X799Y120D01*
X828Y120D02*
X838Y120D01*
X945Y120D02*
X956Y120D01*
X962Y120D02*
X972Y120D01*
X1007Y120D02*
X1016Y120D01*
X1079Y120D02*
X1088Y120D01*
X1161Y120D02*
X1170Y120D01*
X1179Y120D02*
X1189Y120D01*
X1639Y120D02*
X1639Y120D01*
X47Y119D02*
X47Y119D01*
X583Y119D02*
X594Y119D01*
X645Y119D02*
X654Y119D01*
X685Y119D02*
X694Y119D01*
X737Y119D02*
X746Y119D01*
X790Y119D02*
X799Y119D01*
X829Y119D02*
X838Y119D01*
X945Y119D02*
X955Y119D01*
X962Y119D02*
X973Y119D01*
X1007Y119D02*
X1016Y119D01*
X1079Y119D02*
X1088Y119D01*
X1161Y119D02*
X1170Y119D01*
X1179Y119D02*
X1190Y119D01*
X1639Y119D02*
X1639Y119D01*
X47Y118D02*
X47Y118D01*
X583Y118D02*
X593Y118D01*
X645Y118D02*
X654Y118D01*
X685Y118D02*
X694Y118D01*
X737Y118D02*
X746Y118D01*
X790Y118D02*
X799Y118D01*
X829Y118D02*
X838Y118D01*
X944Y118D02*
X955Y118D01*
X963Y118D02*
X973Y118D01*
X1007Y118D02*
X1016Y118D01*
X1079Y118D02*
X1088Y118D01*
X1161Y118D02*
X1170Y118D01*
X1180Y118D02*
X1190Y118D01*
X1639Y118D02*
X1639Y118D01*
X47Y117D02*
X47Y117D01*
X582Y117D02*
X593Y117D01*
X645Y117D02*
X654Y117D01*
X685Y117D02*
X694Y117D01*
X737Y117D02*
X746Y117D01*
X790Y117D02*
X799Y117D01*
X829Y117D02*
X839Y117D01*
X944Y117D02*
X954Y117D01*
X963Y117D02*
X974Y117D01*
X1007Y117D02*
X1016Y117D01*
X1079Y117D02*
X1088Y117D01*
X1161Y117D02*
X1170Y117D01*
X1180Y117D02*
X1191Y117D01*
X1639Y117D02*
X1639Y117D01*
X47Y116D02*
X47Y116D01*
X582Y116D02*
X592Y116D01*
X645Y116D02*
X654Y116D01*
X685Y116D02*
X694Y116D01*
X737Y116D02*
X746Y116D01*
X790Y116D02*
X799Y116D01*
X829Y116D02*
X839Y116D01*
X943Y116D02*
X954Y116D01*
X964Y116D02*
X974Y116D01*
X1007Y116D02*
X1016Y116D01*
X1079Y116D02*
X1088Y116D01*
X1161Y116D02*
X1170Y116D01*
X1181Y116D02*
X1191Y116D01*
X1639Y116D02*
X1639Y116D01*
X47Y115D02*
X47Y115D01*
X581Y115D02*
X592Y115D01*
X645Y115D02*
X654Y115D01*
X685Y115D02*
X694Y115D01*
X737Y115D02*
X746Y115D01*
X790Y115D02*
X799Y115D01*
X829Y115D02*
X839Y115D01*
X943Y115D02*
X953Y115D01*
X964Y115D02*
X975Y115D01*
X1007Y115D02*
X1016Y115D01*
X1079Y115D02*
X1088Y115D01*
X1161Y115D02*
X1170Y115D01*
X1181Y115D02*
X1192Y115D01*
X1639Y115D02*
X1639Y115D01*
X47Y114D02*
X47Y114D01*
X581Y114D02*
X591Y114D01*
X645Y114D02*
X654Y114D01*
X685Y114D02*
X694Y114D01*
X737Y114D02*
X746Y114D01*
X790Y114D02*
X799Y114D01*
X829Y114D02*
X839Y114D01*
X942Y114D02*
X952Y114D01*
X965Y114D02*
X975Y114D01*
X1007Y114D02*
X1016Y114D01*
X1079Y114D02*
X1088Y114D01*
X1161Y114D02*
X1170Y114D01*
X1182Y114D02*
X1192Y114D01*
X1639Y114D02*
X1639Y114D01*
X47Y113D02*
X47Y113D01*
X580Y113D02*
X591Y113D01*
X645Y113D02*
X654Y113D01*
X685Y113D02*
X694Y113D01*
X737Y113D02*
X746Y113D01*
X790Y113D02*
X799Y113D01*
X829Y113D02*
X839Y113D01*
X942Y113D02*
X952Y113D01*
X965Y113D02*
X976Y113D01*
X1007Y113D02*
X1016Y113D01*
X1079Y113D02*
X1088Y113D01*
X1161Y113D02*
X1170Y113D01*
X1182Y113D02*
X1193Y113D01*
X1639Y113D02*
X1639Y113D01*
X47Y112D02*
X47Y112D01*
X580Y112D02*
X590Y112D01*
X645Y112D02*
X654Y112D01*
X685Y112D02*
X694Y112D01*
X737Y112D02*
X746Y112D01*
X790Y112D02*
X799Y112D01*
X829Y112D02*
X839Y112D01*
X941Y112D02*
X951Y112D01*
X966Y112D02*
X976Y112D01*
X1007Y112D02*
X1016Y112D01*
X1079Y112D02*
X1088Y112D01*
X1161Y112D02*
X1170Y112D01*
X1183Y112D02*
X1193Y112D01*
X1639Y112D02*
X1639Y112D01*
X47Y111D02*
X47Y111D01*
X579Y111D02*
X590Y111D01*
X645Y111D02*
X654Y111D01*
X685Y111D02*
X694Y111D01*
X737Y111D02*
X746Y111D01*
X790Y111D02*
X799Y111D01*
X829Y111D02*
X839Y111D01*
X941Y111D02*
X951Y111D01*
X966Y111D02*
X977Y111D01*
X1007Y111D02*
X1016Y111D01*
X1079Y111D02*
X1088Y111D01*
X1161Y111D02*
X1170Y111D01*
X1183Y111D02*
X1194Y111D01*
X1639Y111D02*
X1639Y111D01*
X47Y110D02*
X47Y110D01*
X579Y110D02*
X589Y110D01*
X645Y110D02*
X654Y110D01*
X685Y110D02*
X694Y110D01*
X737Y110D02*
X746Y110D01*
X790Y110D02*
X799Y110D01*
X829Y110D02*
X839Y110D01*
X940Y110D02*
X950Y110D01*
X967Y110D02*
X977Y110D01*
X1007Y110D02*
X1016Y110D01*
X1079Y110D02*
X1088Y110D01*
X1161Y110D02*
X1170Y110D01*
X1184Y110D02*
X1194Y110D01*
X1639Y110D02*
X1639Y110D01*
X47Y109D02*
X47Y109D01*
X578Y109D02*
X589Y109D01*
X645Y109D02*
X654Y109D01*
X685Y109D02*
X694Y109D01*
X737Y109D02*
X746Y109D01*
X790Y109D02*
X799Y109D01*
X829Y109D02*
X839Y109D01*
X940Y109D02*
X950Y109D01*
X967Y109D02*
X978Y109D01*
X1007Y109D02*
X1016Y109D01*
X1079Y109D02*
X1088Y109D01*
X1161Y109D02*
X1170Y109D01*
X1184Y109D02*
X1195Y109D01*
X1639Y109D02*
X1639Y109D01*
X47Y108D02*
X47Y108D01*
X578Y108D02*
X588Y108D01*
X645Y108D02*
X654Y108D01*
X685Y108D02*
X694Y108D01*
X737Y108D02*
X746Y108D01*
X790Y108D02*
X799Y108D01*
X829Y108D02*
X839Y108D01*
X939Y108D02*
X949Y108D01*
X968Y108D02*
X978Y108D01*
X1007Y108D02*
X1016Y108D01*
X1079Y108D02*
X1088Y108D01*
X1161Y108D02*
X1170Y108D01*
X1185Y108D02*
X1195Y108D01*
X1639Y108D02*
X1639Y108D01*
X47Y107D02*
X47Y107D01*
X577Y107D02*
X588Y107D01*
X645Y107D02*
X654Y107D01*
X685Y107D02*
X694Y107D01*
X737Y107D02*
X746Y107D01*
X790Y107D02*
X799Y107D01*
X829Y107D02*
X839Y107D01*
X939Y107D02*
X949Y107D01*
X969Y107D02*
X979Y107D01*
X1007Y107D02*
X1016Y107D01*
X1079Y107D02*
X1088Y107D01*
X1161Y107D02*
X1170Y107D01*
X1185Y107D02*
X1196Y107D01*
X1639Y107D02*
X1639Y107D01*
X47Y106D02*
X47Y106D01*
X577Y106D02*
X587Y106D01*
X645Y106D02*
X654Y106D01*
X685Y106D02*
X694Y106D01*
X737Y106D02*
X746Y106D01*
X790Y106D02*
X799Y106D01*
X829Y106D02*
X839Y106D01*
X938Y106D02*
X948Y106D01*
X969Y106D02*
X979Y106D01*
X1007Y106D02*
X1016Y106D01*
X1079Y106D02*
X1088Y106D01*
X1161Y106D02*
X1170Y106D01*
X1186Y106D02*
X1196Y106D01*
X1639Y106D02*
X1639Y106D01*
X47Y105D02*
X47Y105D01*
X576Y105D02*
X586Y105D01*
X645Y105D02*
X654Y105D01*
X685Y105D02*
X694Y105D01*
X737Y105D02*
X746Y105D01*
X790Y105D02*
X799Y105D01*
X829Y105D02*
X839Y105D01*
X938Y105D02*
X948Y105D01*
X970Y105D02*
X980Y105D01*
X1007Y105D02*
X1016Y105D01*
X1079Y105D02*
X1088Y105D01*
X1161Y105D02*
X1170Y105D01*
X1186Y105D02*
X1197Y105D01*
X1639Y105D02*
X1639Y105D01*
X47Y104D02*
X47Y104D01*
X576Y104D02*
X586Y104D01*
X645Y104D02*
X654Y104D01*
X685Y104D02*
X694Y104D01*
X737Y104D02*
X746Y104D01*
X790Y104D02*
X799Y104D01*
X829Y104D02*
X839Y104D01*
X937Y104D02*
X947Y104D01*
X970Y104D02*
X980Y104D01*
X1007Y104D02*
X1016Y104D01*
X1079Y104D02*
X1088Y104D01*
X1161Y104D02*
X1170Y104D01*
X1187Y104D02*
X1197Y104D01*
X1639Y104D02*
X1639Y104D01*
X47Y103D02*
X47Y103D01*
X575Y103D02*
X585Y103D01*
X645Y103D02*
X654Y103D01*
X685Y103D02*
X694Y103D01*
X737Y103D02*
X746Y103D01*
X790Y103D02*
X799Y103D01*
X829Y103D02*
X839Y103D01*
X937Y103D02*
X947Y103D01*
X971Y103D02*
X981Y103D01*
X1007Y103D02*
X1016Y103D01*
X1079Y103D02*
X1088Y103D01*
X1161Y103D02*
X1170Y103D01*
X1187Y103D02*
X1198Y103D01*
X1639Y103D02*
X1639Y103D01*
X47Y102D02*
X47Y102D01*
X575Y102D02*
X585Y102D01*
X645Y102D02*
X654Y102D01*
X685Y102D02*
X694Y102D01*
X737Y102D02*
X746Y102D01*
X790Y102D02*
X799Y102D01*
X829Y102D02*
X839Y102D01*
X936Y102D02*
X946Y102D01*
X971Y102D02*
X981Y102D01*
X1007Y102D02*
X1016Y102D01*
X1079Y102D02*
X1088Y102D01*
X1161Y102D02*
X1170Y102D01*
X1188Y102D02*
X1198Y102D01*
X1639Y102D02*
X1639Y102D01*
X47Y101D02*
X47Y101D01*
X574Y101D02*
X584Y101D01*
X645Y101D02*
X654Y101D01*
X685Y101D02*
X694Y101D01*
X737Y101D02*
X746Y101D01*
X790Y101D02*
X799Y101D01*
X829Y101D02*
X839Y101D01*
X936Y101D02*
X946Y101D01*
X972Y101D02*
X982Y101D01*
X1007Y101D02*
X1016Y101D01*
X1079Y101D02*
X1088Y101D01*
X1161Y101D02*
X1170Y101D01*
X1188Y101D02*
X1199Y101D01*
X1639Y101D02*
X1639Y101D01*
X47Y100D02*
X47Y100D01*
X574Y100D02*
X584Y100D01*
X645Y100D02*
X654Y100D01*
X685Y100D02*
X694Y100D01*
X737Y100D02*
X746Y100D01*
X790Y100D02*
X799Y100D01*
X829Y100D02*
X839Y100D01*
X936Y100D02*
X945Y100D01*
X972Y100D02*
X982Y100D01*
X1007Y100D02*
X1016Y100D01*
X1079Y100D02*
X1088Y100D01*
X1161Y100D02*
X1170Y100D01*
X1189Y100D02*
X1199Y100D01*
X1639Y100D02*
X1639Y100D01*
X47Y99D02*
X47Y99D01*
X574Y99D02*
X583Y99D01*
X645Y99D02*
X654Y99D01*
X685Y99D02*
X694Y99D01*
X737Y99D02*
X746Y99D01*
X790Y99D02*
X799Y99D01*
X829Y99D02*
X839Y99D01*
X935Y99D02*
X945Y99D01*
X973Y99D02*
X982Y99D01*
X1007Y99D02*
X1016Y99D01*
X1079Y99D02*
X1088Y99D01*
X1161Y99D02*
X1170Y99D01*
X1189Y99D02*
X1199Y99D01*
X1639Y99D02*
X1639Y99D01*
X47Y98D02*
X47Y98D01*
X574Y98D02*
X583Y98D01*
X645Y98D02*
X694Y98D01*
X737Y98D02*
X746Y98D01*
X790Y98D02*
X799Y98D01*
X829Y98D02*
X839Y98D01*
X935Y98D02*
X945Y98D01*
X973Y98D02*
X983Y98D01*
X1007Y98D02*
X1016Y98D01*
X1079Y98D02*
X1103Y98D01*
X1161Y98D02*
X1170Y98D01*
X1190Y98D02*
X1199Y98D01*
X1639Y98D02*
X1639Y98D01*
X47Y97D02*
X47Y97D01*
X573Y97D02*
X583Y97D01*
X645Y97D02*
X694Y97D01*
X737Y97D02*
X746Y97D01*
X790Y97D02*
X799Y97D01*
X829Y97D02*
X838Y97D01*
X935Y97D02*
X944Y97D01*
X973Y97D02*
X983Y97D01*
X1007Y97D02*
X1016Y97D01*
X1079Y97D02*
X1106Y97D01*
X1161Y97D02*
X1170Y97D01*
X1190Y97D02*
X1200Y97D01*
X1639Y97D02*
X1639Y97D01*
X47Y96D02*
X47Y96D01*
X573Y96D02*
X582Y96D01*
X645Y96D02*
X694Y96D01*
X737Y96D02*
X746Y96D01*
X790Y96D02*
X799Y96D01*
X828Y96D02*
X838Y96D01*
X935Y96D02*
X944Y96D01*
X974Y96D02*
X983Y96D01*
X1007Y96D02*
X1016Y96D01*
X1079Y96D02*
X1107Y96D01*
X1161Y96D02*
X1170Y96D01*
X1191Y96D02*
X1200Y96D01*
X1639Y96D02*
X1639Y96D01*
X47Y95D02*
X47Y95D01*
X573Y95D02*
X582Y95D01*
X645Y95D02*
X694Y95D01*
X737Y95D02*
X746Y95D01*
X790Y95D02*
X799Y95D01*
X828Y95D02*
X838Y95D01*
X934Y95D02*
X944Y95D01*
X974Y95D02*
X983Y95D01*
X1007Y95D02*
X1016Y95D01*
X1079Y95D02*
X1107Y95D01*
X1161Y95D02*
X1170Y95D01*
X1191Y95D02*
X1200Y95D01*
X1639Y95D02*
X1639Y95D01*
X47Y94D02*
X47Y94D01*
X573Y94D02*
X582Y94D01*
X645Y94D02*
X694Y94D01*
X737Y94D02*
X746Y94D01*
X790Y94D02*
X799Y94D01*
X825Y94D02*
X838Y94D01*
X934Y94D02*
X944Y94D01*
X974Y94D02*
X983Y94D01*
X1007Y94D02*
X1016Y94D01*
X1079Y94D02*
X1108Y94D01*
X1161Y94D02*
X1170Y94D01*
X1191Y94D02*
X1200Y94D01*
X1639Y94D02*
X1639Y94D01*
X47Y93D02*
X47Y93D01*
X573Y93D02*
X582Y93D01*
X645Y93D02*
X694Y93D01*
X737Y93D02*
X746Y93D01*
X790Y93D02*
X837Y93D01*
X934Y93D02*
X944Y93D01*
X974Y93D02*
X983Y93D01*
X1007Y93D02*
X1016Y93D01*
X1079Y93D02*
X1108Y93D01*
X1161Y93D02*
X1170Y93D01*
X1191Y93D02*
X1200Y93D01*
X1639Y93D02*
X1639Y93D01*
X47Y92D02*
X47Y92D01*
X573Y92D02*
X582Y92D01*
X645Y92D02*
X694Y92D01*
X737Y92D02*
X746Y92D01*
X790Y92D02*
X837Y92D01*
X934Y92D02*
X944Y92D01*
X974Y92D02*
X983Y92D01*
X1007Y92D02*
X1016Y92D01*
X1079Y92D02*
X1108Y92D01*
X1161Y92D02*
X1170Y92D01*
X1191Y92D02*
X1200Y92D01*
X1639Y92D02*
X1639Y92D01*
X47Y91D02*
X47Y91D01*
X573Y91D02*
X582Y91D01*
X645Y91D02*
X694Y91D01*
X737Y91D02*
X746Y91D01*
X790Y91D02*
X836Y91D01*
X934Y91D02*
X944Y91D01*
X974Y91D02*
X983Y91D01*
X1007Y91D02*
X1016Y91D01*
X1079Y91D02*
X1107Y91D01*
X1161Y91D02*
X1170Y91D01*
X1191Y91D02*
X1200Y91D01*
X1639Y91D02*
X1639Y91D01*
X47Y90D02*
X47Y90D01*
X573Y90D02*
X582Y90D01*
X645Y90D02*
X694Y90D01*
X737Y90D02*
X746Y90D01*
X790Y90D02*
X836Y90D01*
X935Y90D02*
X944Y90D01*
X974Y90D02*
X983Y90D01*
X1007Y90D02*
X1016Y90D01*
X1079Y90D02*
X1107Y90D01*
X1161Y90D02*
X1170Y90D01*
X1190Y90D02*
X1200Y90D01*
X1639Y90D02*
X1639Y90D01*
X47Y89D02*
X47Y89D01*
X573Y89D02*
X583Y89D01*
X645Y89D02*
X694Y89D01*
X737Y89D02*
X746Y89D01*
X790Y89D02*
X835Y89D01*
X935Y89D02*
X944Y89D01*
X973Y89D02*
X983Y89D01*
X1007Y89D02*
X1016Y89D01*
X1079Y89D02*
X1106Y89D01*
X1161Y89D02*
X1170Y89D01*
X1190Y89D02*
X1200Y89D01*
X1639Y89D02*
X1639Y89D01*
X47Y88D02*
X47Y88D01*
X574Y88D02*
X583Y88D01*
X645Y88D02*
X694Y88D01*
X737Y88D02*
X746Y88D01*
X790Y88D02*
X834Y88D01*
X935Y88D02*
X945Y88D01*
X973Y88D02*
X983Y88D01*
X1007Y88D02*
X1016Y88D01*
X1079Y88D02*
X1103Y88D01*
X1161Y88D02*
X1170Y88D01*
X1190Y88D02*
X1199Y88D01*
X1639Y88D02*
X1639Y88D01*
X47Y87D02*
X47Y87D01*
X574Y87D02*
X583Y87D01*
X645Y87D02*
X654Y87D01*
X685Y87D02*
X694Y87D01*
X737Y87D02*
X746Y87D01*
X790Y87D02*
X833Y87D01*
X935Y87D02*
X945Y87D01*
X973Y87D02*
X982Y87D01*
X1007Y87D02*
X1016Y87D01*
X1079Y87D02*
X1088Y87D01*
X1161Y87D02*
X1170Y87D01*
X1189Y87D02*
X1199Y87D01*
X1639Y87D02*
X1639Y87D01*
X47Y86D02*
X47Y86D01*
X574Y86D02*
X584Y86D01*
X645Y86D02*
X654Y86D01*
X685Y86D02*
X694Y86D01*
X737Y86D02*
X746Y86D01*
X790Y86D02*
X831Y86D01*
X935Y86D02*
X945Y86D01*
X972Y86D02*
X982Y86D01*
X1007Y86D02*
X1016Y86D01*
X1079Y86D02*
X1088Y86D01*
X1161Y86D02*
X1170Y86D01*
X1189Y86D02*
X1199Y86D01*
X1639Y86D02*
X1639Y86D01*
X47Y85D02*
X47Y85D01*
X574Y85D02*
X584Y85D01*
X645Y85D02*
X654Y85D01*
X685Y85D02*
X694Y85D01*
X737Y85D02*
X746Y85D01*
X790Y85D02*
X830Y85D01*
X936Y85D02*
X946Y85D01*
X972Y85D02*
X982Y85D01*
X1007Y85D02*
X1016Y85D01*
X1079Y85D02*
X1088Y85D01*
X1161Y85D02*
X1170Y85D01*
X1188Y85D02*
X1199Y85D01*
X1639Y85D02*
X1639Y85D01*
X47Y84D02*
X47Y84D01*
X575Y84D02*
X585Y84D01*
X645Y84D02*
X654Y84D01*
X685Y84D02*
X694Y84D01*
X737Y84D02*
X746Y84D01*
X790Y84D02*
X827Y84D01*
X936Y84D02*
X946Y84D01*
X971Y84D02*
X981Y84D01*
X1007Y84D02*
X1016Y84D01*
X1079Y84D02*
X1088Y84D01*
X1161Y84D02*
X1170Y84D01*
X1188Y84D02*
X1198Y84D01*
X1639Y84D02*
X1639Y84D01*
X47Y83D02*
X47Y83D01*
X575Y83D02*
X585Y83D01*
X645Y83D02*
X654Y83D01*
X685Y83D02*
X694Y83D01*
X737Y83D02*
X746Y83D01*
X790Y83D02*
X799Y83D01*
X937Y83D02*
X947Y83D01*
X971Y83D02*
X981Y83D01*
X1007Y83D02*
X1016Y83D01*
X1079Y83D02*
X1088Y83D01*
X1161Y83D02*
X1170Y83D01*
X1187Y83D02*
X1198Y83D01*
X1639Y83D02*
X1639Y83D01*
X47Y82D02*
X47Y82D01*
X576Y82D02*
X586Y82D01*
X645Y82D02*
X654Y82D01*
X685Y82D02*
X694Y82D01*
X737Y82D02*
X746Y82D01*
X790Y82D02*
X799Y82D01*
X937Y82D02*
X947Y82D01*
X970Y82D02*
X980Y82D01*
X1007Y82D02*
X1016Y82D01*
X1079Y82D02*
X1088Y82D01*
X1161Y82D02*
X1170Y82D01*
X1187Y82D02*
X1197Y82D01*
X1639Y82D02*
X1639Y82D01*
X47Y81D02*
X47Y81D01*
X576Y81D02*
X586Y81D01*
X645Y81D02*
X654Y81D01*
X685Y81D02*
X694Y81D01*
X737Y81D02*
X746Y81D01*
X790Y81D02*
X799Y81D01*
X938Y81D02*
X948Y81D01*
X970Y81D02*
X980Y81D01*
X1007Y81D02*
X1016Y81D01*
X1079Y81D02*
X1088Y81D01*
X1161Y81D02*
X1170Y81D01*
X1186Y81D02*
X1197Y81D01*
X1639Y81D02*
X1639Y81D01*
X47Y80D02*
X47Y80D01*
X577Y80D02*
X587Y80D01*
X645Y80D02*
X654Y80D01*
X685Y80D02*
X694Y80D01*
X737Y80D02*
X746Y80D01*
X790Y80D02*
X799Y80D01*
X938Y80D02*
X948Y80D01*
X969Y80D02*
X979Y80D01*
X1007Y80D02*
X1016Y80D01*
X1079Y80D02*
X1088Y80D01*
X1161Y80D02*
X1170Y80D01*
X1186Y80D02*
X1196Y80D01*
X1639Y80D02*
X1639Y80D01*
X47Y79D02*
X47Y79D01*
X577Y79D02*
X587Y79D01*
X645Y79D02*
X654Y79D01*
X685Y79D02*
X694Y79D01*
X737Y79D02*
X746Y79D01*
X790Y79D02*
X799Y79D01*
X939Y79D02*
X949Y79D01*
X969Y79D02*
X979Y79D01*
X1007Y79D02*
X1016Y79D01*
X1079Y79D02*
X1088Y79D01*
X1161Y79D02*
X1170Y79D01*
X1185Y79D02*
X1196Y79D01*
X1639Y79D02*
X1639Y79D01*
X47Y78D02*
X47Y78D01*
X578Y78D02*
X588Y78D01*
X645Y78D02*
X654Y78D01*
X685Y78D02*
X694Y78D01*
X737Y78D02*
X746Y78D01*
X790Y78D02*
X799Y78D01*
X939Y78D02*
X949Y78D01*
X968Y78D02*
X978Y78D01*
X1007Y78D02*
X1016Y78D01*
X1079Y78D02*
X1088Y78D01*
X1161Y78D02*
X1170Y78D01*
X1185Y78D02*
X1195Y78D01*
X1639Y78D02*
X1639Y78D01*
X47Y77D02*
X47Y77D01*
X578Y77D02*
X589Y77D01*
X645Y77D02*
X654Y77D01*
X685Y77D02*
X694Y77D01*
X737Y77D02*
X746Y77D01*
X790Y77D02*
X799Y77D01*
X940Y77D02*
X950Y77D01*
X968Y77D02*
X978Y77D01*
X1007Y77D02*
X1016Y77D01*
X1079Y77D02*
X1088Y77D01*
X1161Y77D02*
X1170Y77D01*
X1184Y77D02*
X1195Y77D01*
X1639Y77D02*
X1639Y77D01*
X47Y76D02*
X47Y76D01*
X579Y76D02*
X589Y76D01*
X645Y76D02*
X654Y76D01*
X685Y76D02*
X694Y76D01*
X737Y76D02*
X746Y76D01*
X790Y76D02*
X799Y76D01*
X940Y76D02*
X950Y76D01*
X967Y76D02*
X977Y76D01*
X1007Y76D02*
X1016Y76D01*
X1079Y76D02*
X1088Y76D01*
X1161Y76D02*
X1170Y76D01*
X1184Y76D02*
X1194Y76D01*
X1639Y76D02*
X1639Y76D01*
X47Y75D02*
X47Y75D01*
X579Y75D02*
X590Y75D01*
X645Y75D02*
X654Y75D01*
X685Y75D02*
X694Y75D01*
X737Y75D02*
X746Y75D01*
X790Y75D02*
X799Y75D01*
X941Y75D02*
X951Y75D01*
X967Y75D02*
X977Y75D01*
X1007Y75D02*
X1016Y75D01*
X1079Y75D02*
X1088Y75D01*
X1161Y75D02*
X1170Y75D01*
X1183Y75D02*
X1194Y75D01*
X1639Y75D02*
X1639Y75D01*
X47Y74D02*
X47Y74D01*
X580Y74D02*
X590Y74D01*
X645Y74D02*
X654Y74D01*
X685Y74D02*
X694Y74D01*
X737Y74D02*
X746Y74D01*
X790Y74D02*
X799Y74D01*
X941Y74D02*
X951Y74D01*
X966Y74D02*
X976Y74D01*
X1007Y74D02*
X1016Y74D01*
X1079Y74D02*
X1088Y74D01*
X1161Y74D02*
X1170Y74D01*
X1183Y74D02*
X1193Y74D01*
X1639Y74D02*
X1639Y74D01*
X47Y73D02*
X47Y73D01*
X580Y73D02*
X591Y73D01*
X645Y73D02*
X654Y73D01*
X685Y73D02*
X694Y73D01*
X737Y73D02*
X746Y73D01*
X790Y73D02*
X799Y73D01*
X942Y73D02*
X952Y73D01*
X966Y73D02*
X976Y73D01*
X1007Y73D02*
X1016Y73D01*
X1079Y73D02*
X1088Y73D01*
X1161Y73D02*
X1170Y73D01*
X1182Y73D02*
X1193Y73D01*
X1639Y73D02*
X1639Y73D01*
X47Y72D02*
X47Y72D01*
X581Y72D02*
X591Y72D01*
X645Y72D02*
X654Y72D01*
X685Y72D02*
X694Y72D01*
X737Y72D02*
X746Y72D01*
X790Y72D02*
X799Y72D01*
X942Y72D02*
X952Y72D01*
X965Y72D02*
X975Y72D01*
X1007Y72D02*
X1016Y72D01*
X1079Y72D02*
X1088Y72D01*
X1161Y72D02*
X1170Y72D01*
X1182Y72D02*
X1192Y72D01*
X1639Y72D02*
X1639Y72D01*
X47Y71D02*
X47Y71D01*
X581Y71D02*
X592Y71D01*
X645Y71D02*
X654Y71D01*
X685Y71D02*
X694Y71D01*
X737Y71D02*
X746Y71D01*
X790Y71D02*
X799Y71D01*
X943Y71D02*
X953Y71D01*
X965Y71D02*
X975Y71D01*
X1007Y71D02*
X1016Y71D01*
X1079Y71D02*
X1088Y71D01*
X1161Y71D02*
X1170Y71D01*
X1181Y71D02*
X1192Y71D01*
X1639Y71D02*
X1639Y71D01*
X47Y70D02*
X47Y70D01*
X582Y70D02*
X592Y70D01*
X645Y70D02*
X654Y70D01*
X685Y70D02*
X694Y70D01*
X737Y70D02*
X746Y70D01*
X790Y70D02*
X799Y70D01*
X943Y70D02*
X953Y70D01*
X964Y70D02*
X974Y70D01*
X1007Y70D02*
X1016Y70D01*
X1079Y70D02*
X1088Y70D01*
X1161Y70D02*
X1170Y70D01*
X1181Y70D02*
X1191Y70D01*
X1639Y70D02*
X1639Y70D01*
X47Y69D02*
X47Y69D01*
X582Y69D02*
X593Y69D01*
X645Y69D02*
X654Y69D01*
X685Y69D02*
X694Y69D01*
X737Y69D02*
X746Y69D01*
X790Y69D02*
X799Y69D01*
X944Y69D02*
X954Y69D01*
X964Y69D02*
X974Y69D01*
X1007Y69D02*
X1016Y69D01*
X1079Y69D02*
X1088Y69D01*
X1161Y69D02*
X1170Y69D01*
X1180Y69D02*
X1191Y69D01*
X1639Y69D02*
X1639Y69D01*
X47Y68D02*
X47Y68D01*
X583Y68D02*
X593Y68D01*
X645Y68D02*
X654Y68D01*
X685Y68D02*
X694Y68D01*
X737Y68D02*
X746Y68D01*
X790Y68D02*
X799Y68D01*
X944Y68D02*
X954Y68D01*
X963Y68D02*
X973Y68D01*
X1007Y68D02*
X1016Y68D01*
X1079Y68D02*
X1088Y68D01*
X1161Y68D02*
X1170Y68D01*
X1180Y68D02*
X1190Y68D01*
X1639Y68D02*
X1639Y68D01*
X47Y67D02*
X47Y67D01*
X583Y67D02*
X594Y67D01*
X645Y67D02*
X654Y67D01*
X685Y67D02*
X694Y67D01*
X737Y67D02*
X746Y67D01*
X790Y67D02*
X799Y67D01*
X945Y67D02*
X955Y67D01*
X963Y67D02*
X973Y67D01*
X1007Y67D02*
X1016Y67D01*
X1079Y67D02*
X1088Y67D01*
X1161Y67D02*
X1170Y67D01*
X1179Y67D02*
X1190Y67D01*
X1639Y67D02*
X1639Y67D01*
X47Y66D02*
X47Y66D01*
X584Y66D02*
X594Y66D01*
X645Y66D02*
X654Y66D01*
X685Y66D02*
X694Y66D01*
X737Y66D02*
X746Y66D01*
X790Y66D02*
X799Y66D01*
X945Y66D02*
X955Y66D01*
X962Y66D02*
X972Y66D01*
X1007Y66D02*
X1016Y66D01*
X1079Y66D02*
X1088Y66D01*
X1161Y66D02*
X1170Y66D01*
X1179Y66D02*
X1189Y66D01*
X1639Y66D02*
X1639Y66D01*
X47Y65D02*
X47Y65D01*
X584Y65D02*
X595Y65D01*
X645Y65D02*
X654Y65D01*
X685Y65D02*
X694Y65D01*
X737Y65D02*
X746Y65D01*
X790Y65D02*
X799Y65D01*
X946Y65D02*
X956Y65D01*
X961Y65D02*
X972Y65D01*
X1007Y65D02*
X1016Y65D01*
X1079Y65D02*
X1088Y65D01*
X1161Y65D02*
X1170Y65D01*
X1178Y65D02*
X1189Y65D01*
X1639Y65D02*
X1639Y65D01*
X47Y64D02*
X47Y64D01*
X585Y64D02*
X617Y64D01*
X645Y64D02*
X654Y64D01*
X685Y64D02*
X694Y64D01*
X722Y64D02*
X762Y64D01*
X790Y64D02*
X799Y64D01*
X946Y64D02*
X971Y64D01*
X1007Y64D02*
X1051Y64D01*
X1079Y64D02*
X1123Y64D01*
X1156Y64D02*
X1188Y64D01*
X1639Y64D02*
X1639Y64D01*
X47Y63D02*
X47Y63D01*
X585Y63D02*
X620Y63D01*
X645Y63D02*
X654Y63D01*
X685Y63D02*
X694Y63D01*
X720Y63D02*
X764Y63D01*
X790Y63D02*
X799Y63D01*
X947Y63D02*
X971Y63D01*
X1007Y63D02*
X1053Y63D01*
X1079Y63D02*
X1126Y63D01*
X1153Y63D02*
X1188Y63D01*
X1639Y63D02*
X1639Y63D01*
X47Y62D02*
X47Y62D01*
X586Y62D02*
X621Y62D01*
X645Y62D02*
X654Y62D01*
X685Y62D02*
X694Y62D01*
X719Y62D02*
X765Y62D01*
X790Y62D02*
X799Y62D01*
X947Y62D02*
X970Y62D01*
X1007Y62D02*
X1054Y62D01*
X1079Y62D02*
X1127Y62D01*
X1152Y62D02*
X1187Y62D01*
X1639Y62D02*
X1639Y62D01*
X47Y61D02*
X47Y61D01*
X586Y61D02*
X621Y61D01*
X645Y61D02*
X654Y61D01*
X685Y61D02*
X694Y61D01*
X718Y61D02*
X766Y61D01*
X790Y61D02*
X799Y61D01*
X948Y61D02*
X970Y61D01*
X1007Y61D02*
X1055Y61D01*
X1079Y61D02*
X1127Y61D01*
X1152Y61D02*
X1187Y61D01*
X1639Y61D02*
X1639Y61D01*
X47Y60D02*
X47Y60D01*
X587Y60D02*
X622Y60D01*
X645Y60D02*
X654Y60D01*
X685Y60D02*
X694Y60D01*
X718Y60D02*
X766Y60D01*
X790Y60D02*
X799Y60D01*
X948Y60D02*
X969Y60D01*
X1007Y60D02*
X1055Y60D01*
X1079Y60D02*
X1128Y60D01*
X1151Y60D02*
X1186Y60D01*
X1639Y60D02*
X1639Y60D01*
X47Y59D02*
X47Y59D01*
X588Y59D02*
X622Y59D01*
X645Y59D02*
X654Y59D01*
X685Y59D02*
X694Y59D01*
X718Y59D02*
X766Y59D01*
X790Y59D02*
X799Y59D01*
X949Y59D02*
X968Y59D01*
X1007Y59D02*
X1055Y59D01*
X1079Y59D02*
X1128Y59D01*
X1151Y59D02*
X1185Y59D01*
X1639Y59D02*
X1639Y59D01*
X47Y58D02*
X47Y58D01*
X589Y58D02*
X622Y58D01*
X645Y58D02*
X654Y58D01*
X685Y58D02*
X694Y58D01*
X718Y58D02*
X766Y58D01*
X790Y58D02*
X799Y58D01*
X950Y58D02*
X968Y58D01*
X1007Y58D02*
X1055Y58D01*
X1079Y58D02*
X1128Y58D01*
X1151Y58D02*
X1184Y58D01*
X1639Y58D02*
X1639Y58D01*
X47Y57D02*
X47Y57D01*
X590Y57D02*
X621Y57D01*
X646Y57D02*
X654Y57D01*
X685Y57D02*
X694Y57D01*
X718Y57D02*
X766Y57D01*
X790Y57D02*
X798Y57D01*
X951Y57D02*
X966Y57D01*
X1007Y57D02*
X1055Y57D01*
X1079Y57D02*
X1127Y57D01*
X1152Y57D02*
X1183Y57D01*
X1639Y57D02*
X1639Y57D01*
X47Y56D02*
X47Y56D01*
X592Y56D02*
X621Y56D01*
X646Y56D02*
X653Y56D01*
X686Y56D02*
X693Y56D01*
X719Y56D02*
X765Y56D01*
X791Y56D02*
X798Y56D01*
X952Y56D02*
X965Y56D01*
X1007Y56D02*
X1054Y56D01*
X1079Y56D02*
X1127Y56D01*
X1152Y56D02*
X1181Y56D01*
X1639Y56D02*
X1639Y56D01*
X47Y55D02*
X47Y55D01*
X594Y55D02*
X620Y55D01*
X647Y55D02*
X652Y55D01*
X687Y55D02*
X692Y55D01*
X720Y55D02*
X764Y55D01*
X792Y55D02*
X797Y55D01*
X954Y55D02*
X963Y55D01*
X1007Y55D02*
X1053Y55D01*
X1079Y55D02*
X1126Y55D01*
X1153Y55D02*
X1179Y55D01*
X1639Y55D02*
X1639Y55D01*
X47Y54D02*
X47Y54D01*
X599Y54D02*
X617Y54D01*
X723Y54D02*
X761Y54D01*
X1007Y54D02*
X1050Y54D01*
X1079Y54D02*
X1123Y54D01*
X1156Y54D02*
X1174Y54D01*
X1639Y54D02*
X1639Y54D01*
X47Y53D02*
X47Y53D01*
X1639Y53D02*
X1639Y53D01*
X47Y52D02*
X47Y52D01*
X1639Y52D02*
X1639Y52D01*
X47Y51D02*
X47Y51D01*
X1639Y51D02*
X1639Y51D01*
X47Y50D02*
X47Y50D01*
X1639Y50D02*
X1639Y50D01*
X47Y49D02*
X47Y49D01*
X1639Y49D02*
X1639Y49D01*
X47Y48D02*
X47Y48D01*
X1639Y48D02*
X1639Y48D01*
X47Y47D02*
X47Y47D01*
X1639Y47D02*
X1639Y47D01*
X47Y46D02*
X47Y46D01*
X1639Y46D02*
X1639Y46D01*
X47Y45D02*
X47Y45D01*
X1639Y45D02*
X1639Y45D01*
X47Y44D02*
X47Y44D01*
X1639Y44D02*
X1639Y44D01*
X47Y43D02*
X47Y43D01*
X1639Y43D02*
X1639Y43D01*
X47Y42D02*
X47Y42D01*
X1639Y42D02*
X1639Y42D01*
X47Y41D02*
X47Y41D01*
X1639Y41D02*
X1639Y41D01*
X47Y40D02*
X47Y40D01*
X1639Y40D02*
X1639Y40D01*
X47Y39D02*
X47Y39D01*
X1639Y39D02*
X1639Y39D01*
X47Y38D02*
X47Y38D01*
X1639Y38D02*
X1639Y38D01*
X47Y37D02*
X47Y37D01*
X1639Y37D02*
X1639Y37D01*
X47Y36D02*
X47Y36D01*
X1639Y36D02*
X1639Y36D01*
X47Y35D02*
X47Y35D01*
X1639Y35D02*
X1639Y35D01*
X47Y34D02*
X47Y34D01*
X1639Y34D02*
X1639Y34D01*
X47Y33D02*
X47Y33D01*
X1639Y33D02*
X1639Y33D01*
X47Y32D02*
X47Y32D01*
X1639Y32D02*
X1639Y32D01*
X47Y31D02*
X47Y31D01*
X1639Y31D02*
X1639Y31D01*
X47Y30D02*
X47Y30D01*
X1639Y30D02*
X1639Y30D01*
X47Y29D02*
X47Y29D01*
X1639Y29D02*
X1639Y29D01*
X47Y28D02*
X47Y28D01*
X1639Y28D02*
X1639Y28D01*
X47Y27D02*
X47Y27D01*
X1639Y27D02*
X1639Y27D01*
X47Y26D02*
X47Y26D01*
X1639Y26D02*
X1639Y26D01*
X47Y25D02*
X47Y25D01*
X1639Y25D02*
X1639Y25D01*
X47Y24D02*
X47Y24D01*
X1639Y24D02*
X1639Y24D01*
X47Y23D02*
X47Y23D01*
X1639Y23D02*
X1639Y23D01*
X47Y22D02*
X47Y22D01*
X1639Y22D02*
X1639Y22D01*
X47Y21D02*
X47Y21D01*
X1639Y21D02*
X1639Y21D01*
X47Y20D02*
X47Y20D01*
X1639Y20D02*
X1639Y20D01*
X47Y19D02*
X47Y19D01*
X1639Y19D02*
X1639Y19D01*
X47Y18D02*
X47Y18D01*
X1639Y18D02*
X1639Y18D01*
X47Y17D02*
X47Y17D01*
X1639Y17D02*
X1639Y17D01*
X47Y16D02*
X47Y16D01*
X1639Y16D02*
X1639Y16D01*
X47Y15D02*
X47Y15D01*
X1639Y15D02*
X1639Y15D01*
X47Y14D02*
X47Y14D01*
X1639Y14D02*
X1639Y14D01*
X47Y13D02*
X47Y13D01*
X1639Y13D02*
X1639Y13D01*
X47Y12D02*
X47Y12D01*
X1639Y12D02*
X1639Y12D01*
X47Y11D02*
X47Y11D01*
X1639Y11D02*
X1639Y11D01*
X47Y10D02*
X47Y10D01*
X1639Y10D02*
X1639Y10D01*
X47Y9D02*
X47Y9D01*
X1639Y9D02*
X1639Y9D01*
X47Y8D02*
X47Y8D01*
X1639Y8D02*
X1639Y8D01*
X47Y7D02*
X47Y7D01*
X1639Y7D02*
X1639Y7D01*
X47Y6D02*
X47Y6D01*
X1639Y6D02*
X1639Y6D01*
X47Y5D02*
X47Y5D01*
X1639Y5D02*
X1639Y5D01*
X47Y4D02*
X47Y4D01*
X1639Y4D02*
X1639Y4D01*
X47Y3D02*
X47Y3D01*
X1639Y3D02*
X1639Y3D01*
X47Y2D02*
X47Y2D01*
X1639Y2D02*
X1639Y2D01*
X47Y1D02*
X47Y1D01*
X1639Y1D02*
X1639Y1D01*
X47Y0D02*
X47Y0D01*
X1639Y0D02*
X1639Y0D01*
X47Y-1D02*
X47Y-1D01*
X1639Y-1D02*
X1639Y-1D01*
D02*
G04 End of Silk1*
M02*