; NON-PLATED HOLES START AT T1
; THROUGH (PLATED) HOLES START AT T100
M48
INCH
T100C0.040000
T101C0.035000
T102C0.028000
%
T100
X015930Y011055
X015930Y006049
X001926Y006053
X000926Y001053
X000926Y017059
X014930Y001049
X014930Y018055
X000926Y020059
X015930Y005049
X001926Y005053
X000926Y016059
X014930Y017055
X015930Y004049
X014930Y020055
X001926Y004053
X000926Y015059
X014930Y016055
X015930Y003049
X001926Y003053
X001926Y019059
X000926Y014059
X014930Y015055
X015930Y002049
X015930Y019055
X001926Y002053
X001926Y018059
X000926Y013059
X014930Y014055
X000926Y009053
X014930Y009049
X015930Y001049
X015930Y018055
X001926Y001053
X001926Y017059
X000926Y012059
X001926Y020059
X014930Y013055
X000926Y008053
X014930Y008049
X015930Y017055
X001926Y016059
X015930Y020055
X000926Y011059
X014930Y012055
X000926Y007053
X014930Y007049
X015930Y016055
X001926Y015059
X000926Y010053
X014930Y010049
X014930Y011055
X000926Y006053
X014930Y006049
X015930Y015055
X001926Y014059
X000926Y005053
X014930Y005049
X015930Y014055
X001926Y013059
X015930Y009049
X001926Y009053
X000926Y004053
X014930Y004049
X015930Y013055
X001926Y012059
X015930Y008049
X001926Y008053
X000926Y003053
X000926Y019059
X014930Y003049
X015930Y012055
X001926Y011059
X015930Y007049
X001926Y007053
X015930Y010049
X000926Y002053
X001926Y010053
X000926Y018059
X014930Y002049
X014930Y019055
T101
X009025Y006232
X009025Y004953
X010797Y002394
X011978Y006724
X004793Y006724
X007844Y004165
X013749Y004165
X010797Y008791
X003021Y004165
X006072Y004165
X010797Y006232
X010797Y004953
X009025Y002394
X011978Y004165
X007844Y006724
X004793Y004165
X013749Y006724
X009025Y008791
X003021Y006724
X006072Y006724
T102
X009258Y019324
X010253Y019323
X008253Y019323
X007253Y019323
T00
M30
