G04 MADE WITH FRITZING*
G04 WWW.FRITZING.ORG*
G04 DOUBLE SIDED*
G04 HOLES PLATED*
G04 CONTOUR ON CENTER OF CONTOUR VECTOR*
%ASAXBY*%
%FSLAX23Y23*%
%MOIN*%
%OFA0B0*%
%SFA1.0B1.0*%
%ADD10C,0.074000*%
%ADD11C,0.060000*%
%ADD12C,0.075000*%
%ADD13R,0.074000X0.074000*%
%ADD14C,0.008000*%
%LNCOPPER1*%
G90*
G70*
G54D10*
X93Y2006D03*
X193Y2006D03*
X93Y1906D03*
X193Y1906D03*
X93Y1806D03*
X193Y1806D03*
X93Y1706D03*
X193Y1706D03*
X93Y1606D03*
X193Y1606D03*
X93Y1506D03*
X193Y1506D03*
X93Y1406D03*
X193Y1406D03*
X93Y1306D03*
X193Y1306D03*
X93Y1206D03*
X193Y1206D03*
X93Y1106D03*
X193Y1106D03*
X93Y1005D03*
X193Y1005D03*
X93Y905D03*
X193Y905D03*
X93Y805D03*
X193Y805D03*
X93Y705D03*
X193Y705D03*
X93Y605D03*
X193Y605D03*
X93Y505D03*
X193Y505D03*
X93Y405D03*
X193Y405D03*
X93Y305D03*
X193Y305D03*
X93Y205D03*
X193Y205D03*
X93Y105D03*
X193Y105D03*
X1493Y2006D03*
X1593Y2006D03*
X1493Y1906D03*
X1593Y1906D03*
X1493Y1806D03*
X1593Y1806D03*
X1493Y1706D03*
X1593Y1706D03*
X1493Y1606D03*
X1593Y1606D03*
X1493Y1506D03*
X1593Y1506D03*
X1493Y1406D03*
X1593Y1406D03*
X1493Y1306D03*
X1593Y1306D03*
X1493Y1206D03*
X1593Y1206D03*
X1493Y1106D03*
X1593Y1106D03*
X1493Y1005D03*
X1593Y1005D03*
X1493Y905D03*
X1593Y905D03*
X1493Y805D03*
X1593Y805D03*
X1493Y705D03*
X1593Y705D03*
X1493Y605D03*
X1593Y605D03*
X1493Y505D03*
X1593Y505D03*
X1493Y405D03*
X1593Y405D03*
X1493Y305D03*
X1593Y305D03*
X1493Y205D03*
X1593Y205D03*
X1493Y105D03*
X1593Y105D03*
G54D11*
X1025Y1932D03*
X926Y1932D03*
X825Y1932D03*
X725Y1932D03*
G54D12*
X607Y417D03*
X607Y672D03*
X784Y417D03*
X784Y672D03*
X903Y623D03*
X903Y879D03*
X1080Y623D03*
X1080Y879D03*
X1198Y417D03*
X1198Y672D03*
X1375Y417D03*
X1375Y672D03*
X302Y417D03*
X302Y672D03*
X479Y417D03*
X479Y672D03*
X903Y239D03*
X903Y495D03*
X1080Y239D03*
X1080Y495D03*
G54D13*
X93Y2006D03*
X1493Y2006D03*
G54D14*
X1021Y1874D02*
X765Y1657D01*
D02*
X765Y1657D02*
X134Y1657D01*
D02*
X134Y1657D02*
X109Y1626D01*
D02*
X1024Y1913D02*
X1021Y1874D01*
D02*
X1374Y988D02*
X1424Y1056D01*
D02*
X1543Y1056D02*
X1575Y1088D01*
D02*
X1424Y1056D02*
X1543Y1056D01*
D02*
X1375Y696D02*
X1374Y988D01*
D02*
X1415Y1106D02*
X1468Y1106D01*
D02*
X1103Y495D02*
X1257Y495D01*
D02*
X1296Y958D02*
X1415Y1106D01*
D02*
X1296Y554D02*
X1296Y958D01*
D02*
X1257Y495D02*
X1296Y554D01*
D02*
X1119Y721D02*
X1237Y780D01*
D02*
X1237Y988D02*
X1374Y1154D01*
D02*
X1237Y780D02*
X1237Y988D01*
D02*
X1088Y645D02*
X1119Y721D01*
D02*
X1552Y1154D02*
X1577Y1186D01*
D02*
X1374Y1154D02*
X1552Y1154D01*
D02*
X1169Y819D02*
X1169Y978D01*
D02*
X815Y751D02*
X1070Y762D01*
D02*
X1070Y762D02*
X1169Y819D01*
D02*
X1169Y978D02*
X1356Y1204D01*
D02*
X1356Y1204D02*
X1468Y1205D01*
D02*
X793Y694D02*
X815Y751D01*
D02*
X548Y967D02*
X1089Y967D01*
D02*
X1089Y967D02*
X1336Y1253D01*
D02*
X1336Y1253D02*
X1552Y1253D01*
D02*
X1552Y1253D02*
X1577Y1285D01*
D02*
X479Y696D02*
X480Y908D01*
D02*
X480Y908D02*
X548Y967D01*
G04 End of Copper1*
M02*