G04 MADE WITH FRITZING*
G04 WWW.FRITZING.ORG*
G04 DOUBLE SIDED*
G04 HOLES PLATED*
G04 CONTOUR ON CENTER OF CONTOUR VECTOR*
%ASAXBY*%
%FSLAX23Y23*%
%MOIN*%
%OFA0B0*%
%SFA1.0B1.0*%
%ADD10C,0.084000*%
%ADD11C,0.070000*%
%ADD12C,0.085000*%
%ADD13R,0.084000X0.084000*%
%LNMASK1*%
G90*
G70*
G54D10*
X93Y2006D03*
X193Y2006D03*
X93Y1906D03*
X193Y1906D03*
X93Y1806D03*
X193Y1806D03*
X93Y1706D03*
X193Y1706D03*
X93Y1606D03*
X193Y1606D03*
X93Y1506D03*
X193Y1506D03*
X93Y1406D03*
X193Y1406D03*
X93Y1306D03*
X193Y1306D03*
X93Y1206D03*
X193Y1206D03*
X93Y1106D03*
X193Y1106D03*
X93Y1005D03*
X193Y1005D03*
X93Y905D03*
X193Y905D03*
X93Y805D03*
X193Y805D03*
X93Y705D03*
X193Y705D03*
X93Y605D03*
X193Y605D03*
X93Y505D03*
X193Y505D03*
X93Y405D03*
X193Y405D03*
X93Y305D03*
X193Y305D03*
X93Y205D03*
X193Y205D03*
X93Y105D03*
X193Y105D03*
X1493Y2006D03*
X1593Y2006D03*
X1493Y1906D03*
X1593Y1906D03*
X1493Y1806D03*
X1593Y1806D03*
X1493Y1706D03*
X1593Y1706D03*
X1493Y1606D03*
X1593Y1606D03*
X1493Y1506D03*
X1593Y1506D03*
X1493Y1406D03*
X1593Y1406D03*
X1493Y1306D03*
X1593Y1306D03*
X1493Y1206D03*
X1593Y1206D03*
X1493Y1106D03*
X1593Y1106D03*
X1493Y1005D03*
X1593Y1005D03*
X1493Y905D03*
X1593Y905D03*
X1493Y805D03*
X1593Y805D03*
X1493Y705D03*
X1593Y705D03*
X1493Y605D03*
X1593Y605D03*
X1493Y505D03*
X1593Y505D03*
X1493Y405D03*
X1593Y405D03*
X1493Y305D03*
X1593Y305D03*
X1493Y205D03*
X1593Y205D03*
X1493Y105D03*
X1593Y105D03*
G54D11*
X1025Y1932D03*
X926Y1932D03*
X825Y1932D03*
X725Y1932D03*
G54D12*
X607Y417D03*
X607Y672D03*
X784Y417D03*
X784Y672D03*
X903Y623D03*
X903Y879D03*
X1080Y623D03*
X1080Y879D03*
X1198Y417D03*
X1198Y672D03*
X1375Y417D03*
X1375Y672D03*
X302Y417D03*
X302Y672D03*
X479Y417D03*
X479Y672D03*
X903Y239D03*
X903Y495D03*
X1080Y239D03*
X1080Y495D03*
G54D13*
X93Y2006D03*
X1493Y2006D03*
G04 End of Mask1*
M02*